<svg width="51" height="51" viewBox="0 0 51 51" fill="none" xmlns="http://www.w3.org/2000/svg">
<rect x="11.4382" width="29.5173" height="2.22772" rx="1.11386" fill="white"/>
<path d="M0.457275 50.6805L12.9882 3.89832H38.607L50.5811 50.6805H0.457275Z" fill="url(#paint0_linear)" fill-opacity="0.24"/>
<g filter="url(#filter0_d)">
<path d="M38.4496 26.5035C38.3206 26.7239 38.1649 26.9275 37.986 27.1096C37.824 27.2773 37.6485 27.4314 37.4613 27.5703C37.0984 27.8463 36.6966 28.0301 36.3068 28.2422C35.5226 28.6555 34.7333 29.0566 33.9389 29.4456L33.3414 29.7334L32.7409 30.0142C32.3416 30.2036 31.9381 30.3833 31.5358 30.5656C30.73 30.9277 29.9207 31.2813 29.1116 31.6356L29.819 30.7908C29.7871 30.935 29.7589 31.0553 29.7276 31.1844C29.697 31.3111 29.6654 31.4371 29.6329 31.5623C29.5684 31.8132 29.4999 32.0622 29.4289 32.311C29.2847 32.8078 29.1249 33.3022 28.9495 33.7943C28.7729 34.2862 28.5685 34.7742 28.3414 35.262C28.2818 35.3836 28.2274 35.5047 28.1619 35.6258L27.9691 35.9887C27.9008 36.1095 27.828 36.2302 27.7572 36.3507L27.7037 36.4409L27.6878 36.4674L27.6409 36.5381L27.5915 36.6069C27.5725 36.6319 27.5443 36.6652 27.5197 36.6929C27.4941 36.7217 27.4677 36.7496 27.4404 36.7767C27.4033 36.8118 27.3616 36.8475 27.3197 36.88C27.2736 36.9165 27.2249 36.9495 27.174 36.9789C27.1124 37.0146 27.0484 37.0459 26.9825 37.0727C26.9455 37.0877 26.9077 37.1005 26.8693 37.1113C26.8286 37.123 26.7872 37.1331 26.7455 37.1413C26.6627 37.1583 26.5783 37.1665 26.4938 37.1659C26.4102 37.1659 26.3268 37.1584 26.2445 37.1437C26.1744 37.1297 26.1055 37.1109 26.0381 37.0873C26.0069 37.0763 25.9656 37.0606 25.9453 37.0507C25.9209 37.0396 25.8966 37.0279 25.8726 37.0155C25.825 36.9909 25.7772 36.9633 25.7336 36.9349C25.7014 36.9128 25.6697 36.8896 25.6386 36.8653L25.5928 36.8283C25.5776 36.8156 25.562 36.8022 25.5531 36.7935C25.5115 36.7546 25.4675 36.7106 25.4324 36.6714C25.403 36.6375 25.3745 36.603 25.3468 36.5677C25.3219 36.5351 25.3035 36.5082 25.2822 36.4778C25.26 36.4464 25.2446 36.4213 25.2288 36.3957C25.2134 36.3705 25.1958 36.3424 25.1829 36.3192L25.1446 36.2495C25.0638 36.0961 24.9929 35.9376 24.9323 35.7751C24.8243 35.4894 24.7451 35.228 24.6712 34.9687C24.5268 34.453 24.4108 33.9534 24.3028 33.4549C24.0894 32.4591 23.8988 31.4756 23.7086 30.4929C23.3299 28.529 22.9804 26.5702 22.6293 24.6121C22.2857 22.6531 21.9403 20.6959 21.623 18.7347L21.3847 17.2639C21.3459 17.0186 21.3061 16.7735 21.2626 16.5289C21.2181 16.2844 21.1711 16.0402 21.1386 15.794C21.0771 15.3012 21.0215 14.8075 20.9639 14.3139L20.8793 13.5728L20.8583 13.387C20.8561 13.2938 20.8289 13.4434 20.9946 13.822C21.1509 14.1255 21.4156 14.359 21.736 14.476C21.9223 14.5434 22.1212 14.5689 22.3185 14.5504C22.5157 14.532 22.7065 14.4702 22.8772 14.3694C23.0479 14.2687 23.1942 14.1314 23.3058 13.9674C23.4174 13.8035 23.4915 13.6169 23.5227 13.4209L23.5207 13.4324L23.5168 13.4552L23.5008 13.5467L23.4371 13.9127C23.1003 15.8648 22.7501 17.8149 22.4048 19.7657C22.0622 21.717 21.7107 23.6669 21.38 25.62L20.8773 28.5487C20.8364 28.7929 20.8052 29.0386 20.7838 29.2859C20.7632 29.5333 20.7471 29.7814 20.73 30.0293C20.7022 30.5255 20.6161 31.0168 20.4734 31.4928L20.2434 32.2243L19.8959 32.3147C19.7448 32.3398 19.5899 32.329 19.4437 32.2832C19.2775 32.2444 19.1116 32.2061 18.9827 32.2357C18.9194 32.2489 18.8601 32.2767 18.8094 32.3169C18.7581 32.3559 18.7069 32.3949 18.657 32.4365C18.5569 32.519 18.4592 32.6058 18.3652 32.6994C18.1696 32.8932 17.9942 33.1065 17.8418 33.336C17.759 33.4595 17.6837 33.588 17.6164 33.7207C17.5411 33.8667 17.4784 34.0188 17.4291 34.1755C17.2999 34.5883 17.0523 34.954 16.7171 35.2268C16.3818 35.4997 15.9738 35.6677 15.5439 35.71C15.114 35.7523 14.6811 35.667 14.2993 35.4646C13.9175 35.2623 13.6035 34.9519 13.3966 34.5721C13.1897 34.1924 13.0989 33.76 13.1357 33.329C13.1724 32.8979 13.3349 32.4872 13.6031 32.148C13.8712 31.8089 14.2331 31.5562 14.6437 31.4216C15.0542 31.2869 15.4952 31.2762 15.9118 31.3908C16.07 31.4341 16.2317 31.4636 16.395 31.4792C16.5429 31.4943 16.6915 31.5004 16.8401 31.4975C17.1152 31.4933 17.3892 31.4611 17.6578 31.4013C17.7874 31.3728 17.9131 31.3374 18.0365 31.2977C18.0984 31.2783 18.1589 31.2562 18.2195 31.2342C18.2806 31.2132 18.336 31.1783 18.3814 31.1322C18.476 31.0396 18.5336 30.8792 18.5909 30.7182C18.6316 30.5703 18.7064 30.434 18.8092 30.3203L18.2318 31.1422C18.2408 30.6453 18.3084 30.1511 18.433 29.67C18.4922 29.4286 18.5524 29.1874 18.6081 28.9455C18.6626 28.7034 18.7077 28.4599 18.7434 28.2148L19.1564 25.272C19.4361 23.3108 19.695 21.3463 19.9628 19.3833C20.2279 17.4198 20.4881 15.4555 20.7617 13.4933L20.8124 13.1253L20.8251 13.0333L20.8283 13.0103L20.8299 12.9988C20.8583 12.8159 20.9226 12.6403 21.0192 12.4824C21.1476 12.2738 21.3291 12.1031 21.545 11.9879C21.761 11.8727 22.0036 11.817 22.2481 11.8266C22.4926 11.8362 22.7302 11.9108 22.9365 12.0426C23.1427 12.1745 23.3103 12.3589 23.4219 12.5769C23.5913 12.9624 23.5642 13.12 23.5632 13.0344L23.5903 13.2169L23.7002 13.9486L23.9225 15.4132C23.9569 15.6576 23.9772 15.9041 24.0003 16.1502C24.0245 16.3961 24.0528 16.6415 24.0824 16.8867L24.2588 18.358C24.5007 20.3188 24.737 22.2805 25.0112 24.2347C25.2798 26.1893 25.5803 28.139 25.9394 30.0674C26.0315 30.5489 26.1227 31.0298 26.2285 31.5058C26.3318 31.9821 26.4387 32.4563 26.5599 32.9219C26.6793 33.3871 26.8059 33.8483 26.9455 34.2814C27.0152 34.4959 27.0895 34.7057 27.1641 34.8803C27.1922 34.9491 27.225 35.0159 27.2624 35.08L27.2695 35.0912C27.2718 35.095 27.2716 35.0926 27.2724 35.0938C27.2729 35.0944 27.2737 35.0957 27.2701 35.0891C27.267 35.084 27.2636 35.079 27.2599 35.0743C27.252 35.0629 27.2432 35.0521 27.2337 35.042C27.2167 35.0218 27.1982 35.003 27.1784 34.9856L27.1563 34.9658L27.1288 34.943C27.1101 34.9282 27.0907 34.9144 27.0706 34.9017C27.0392 34.88 27.0063 34.8605 26.9723 34.8433C26.9551 34.8346 26.9377 34.8265 26.9201 34.8191C26.9063 34.8136 26.873 34.7986 26.849 34.7903C26.7964 34.7711 26.7422 34.7566 26.6871 34.7471C26.6201 34.734 26.5521 34.7275 26.4839 34.7278C26.4148 34.7288 26.3459 34.7354 26.2779 34.7477C26.2438 34.7542 26.21 34.7625 26.1767 34.7725C26.1441 34.7821 26.1087 34.7958 26.0855 34.8042C26.0334 34.8239 25.9831 34.8482 25.9352 34.8769C25.8814 34.9106 25.8599 34.9245 25.8272 34.9491C25.7974 34.9719 25.7691 34.9966 25.7425 35.0231C25.7254 35.0386 25.7092 35.055 25.6939 35.0722C25.6793 35.0881 25.6622 35.1104 25.6524 35.1229C25.6443 35.1328 25.6365 35.143 25.6291 35.1535C25.6218 35.164 25.6148 35.1748 25.6084 35.1858C25.607 35.188 25.6136 35.1763 25.6158 35.1722L25.6547 35.1015L25.8109 34.8185L25.9586 34.5215C26.0091 34.4238 26.0521 34.317 26.1001 34.2157C26.2895 33.8054 26.4625 33.3767 26.6234 32.9377C26.7883 32.5006 26.9408 32.0541 27.0823 31.6026C27.1532 31.377 27.2223 31.1504 27.2872 30.9233C27.32 30.8097 27.3517 30.6963 27.3823 30.5831L27.4682 30.2554L27.6316 29.6316L28.1756 29.4106C28.9938 29.0783 29.8118 28.7452 30.6334 28.4207C31.0447 28.2597 31.4549 28.0961 31.8692 27.9422L32.4892 27.708L33.1122 27.4808C33.9445 27.1817 34.7824 26.8962 35.6261 26.6243C36.05 26.4931 36.4619 26.3336 36.9126 26.2663C37.1427 26.2291 37.3754 26.211 37.6084 26.212C37.8635 26.2111 38.1177 26.2417 38.3653 26.3031C38.4004 26.3123 38.4304 26.335 38.4488 26.3664C38.4671 26.3977 38.4723 26.4351 38.4631 26.4702C38.46 26.4818 38.4555 26.493 38.4496 26.5035Z" fill="white"/>
</g>
<defs>
<filter id="filter0_d" x="7.12769" y="9.82556" width="37.3399" height="37.3403" filterUnits="userSpaceOnUse" color-interpolation-filters="sRGB">
<feFlood flood-opacity="0" result="BackgroundImageFix"/>
<feColorMatrix in="SourceAlpha" type="matrix" values="0 0 0 0 0 0 0 0 0 0 0 0 0 0 0 0 0 0 127 0"/>
<feOffset dy="4"/>
<feGaussianBlur stdDeviation="3"/>
<feColorMatrix type="matrix" values="0 0 0 0 0 0 0 0 0 0 0 0 0 0 0 0 0 0 0.25 0"/>
<feBlend mode="normal" in2="BackgroundImageFix" result="effect1_dropShadow"/>
<feBlend mode="normal" in="SourceGraphic" in2="effect1_dropShadow" result="shape"/>
</filter>
<linearGradient id="paint0_linear" x1="24.8112" y1="3.89832" x2="24.8112" y2="50.6805" gradientUnits="userSpaceOnUse">
<stop stop-color="#0085FF"/>
<stop offset="1" stop-color="#0085FF" stop-opacity="0"/>
</linearGradient>
</defs>
</svg>
