<svg width="90" height="51" viewBox="0 0 90 51" fill="none" xmlns="http://www.w3.org/2000/svg">
<rect x="19" width="53" height="2" rx="1" fill="white"/>
<path d="M0 50.6806L22.5 3.89844H68.5L90 50.6806H0Z" fill="url(#paint0_linear)" fill-opacity="0.24"/>
<rect x="19" y="14" width="52.529" height="23" rx="11.5" fill="black" stroke="white" stroke-width="2"/>
<path d="M45.1406 29.7065C42.7626 29.7065 40.828 27.7719 40.828 25.394C40.828 23.016 42.7626 21.0814 45.1406 21.0814C47.5185 21.0814 49.4531 23.016 49.4531 25.394C49.4531 27.7719 47.5185 29.7065 45.1406 29.7065ZM45.1406 23.5458C44.1215 23.5458 43.2923 24.3749 43.2923 25.394C43.2923 26.4131 44.1215 27.2422 45.1406 27.2422C46.1597 27.2422 46.9888 26.4131 46.9888 25.394C46.9888 24.3749 46.1597 23.5458 45.1406 23.5458ZM37.6332 30.1906L32.8982 25.4556L37.6332 20.7205L35.8907 18.978L29.4131 25.4556L35.8907 31.9332L37.6332 30.1906ZM60.9913 25.4556L54.6986 19.1629L52.956 20.9054L57.5062 25.4556L52.8944 30.0674L54.637 31.8099L60.9913 25.4556Z" fill="white"/>
<defs>
<linearGradient id="paint0_linear" x1="43.7288" y1="3.89844" x2="43.5" y2="43.5" gradientUnits="userSpaceOnUse">
<stop stop-color="#0085FF"/>
<stop offset="1" stop-color="#0085FF" stop-opacity="0"/>
</linearGradient>
</defs>
</svg>
