<svg width="51" height="51" viewBox="0 0 51 51" fill="none" xmlns="http://www.w3.org/2000/svg">
<rect x="11.1509" width="29.5173" height="2.22772" rx="1.11386" fill="white"/>
<path d="M0.569092 50.6805L13.1 3.89832H38.7189L50.6929 50.6805H0.569092Z" fill="url(#paint0_linear)" fill-opacity="0.24"/>
<g filter="url(#filter0_d)">
<path d="M17.2728 16.6335H20.3248V15.5941H16.1633V19.4819H17.2728V16.6335Z" fill="white"/>
<path d="M17.2726 29.4342H16.1631V33.3325H20.3133V32.2931H17.2726V29.4342Z" fill="white"/>
<path d="M30.9373 15.5941V16.6335H33.9892V19.4819H35.0987V15.5941H30.9373Z" fill="white"/>
<path d="M33.9892 32.2931H30.9485V33.3325H35.0987V29.4342H33.9892V32.2931Z" fill="white"/>
<path d="M25.6309 17.5586L19.8499 20.6691L25.6309 23.7795L31.412 20.6691L25.6309 17.5586Z" fill="white"/>
<path d="M31.9656 21.5697L26.1855 24.6796V31.0695L31.9656 27.9595V21.5697Z" fill="white"/>
<path d="M19.2961 27.9595L25.0762 31.0695V24.6796L19.2961 21.5697V27.9595Z" fill="white"/>
</g>
<defs>
<filter id="filter0_d" x="10.1631" y="13.5941" width="30.9356" height="29.7384" filterUnits="userSpaceOnUse" color-interpolation-filters="sRGB">
<feFlood flood-opacity="0" result="BackgroundImageFix"/>
<feColorMatrix in="SourceAlpha" type="matrix" values="0 0 0 0 0 0 0 0 0 0 0 0 0 0 0 0 0 0 127 0"/>
<feOffset dy="4"/>
<feGaussianBlur stdDeviation="3"/>
<feColorMatrix type="matrix" values="0 0 0 0 0 0 0 0 0 0 0 0 0 0 0 0 0 0 0.25 0"/>
<feBlend mode="normal" in2="BackgroundImageFix" result="effect1_dropShadow"/>
<feBlend mode="normal" in="SourceGraphic" in2="effect1_dropShadow" result="shape"/>
</filter>
<linearGradient id="paint0_linear" x1="24.923" y1="3.89832" x2="24.923" y2="50.6805" gradientUnits="userSpaceOnUse">
<stop stop-color="#0085FF"/>
<stop offset="1" stop-color="#0085FF" stop-opacity="0"/>
</linearGradient>
</defs>
</svg>
