<svg width="200" height="200" viewBox="0 0 200 200" fill="none" xmlns="http://www.w3.org/2000/svg">
<path d="M161.915 82.0564C161.915 47.2736 133.232 19.1897 98.2292 20.1666C64.9801 21.0944 38.2452 48.4925 38.0864 81.754C38.0056 98.676 44.7147 114.03 55.646 125.251C65.6958 135.567 71.4217 149.332 71.4217 163.734V168.474H128.579V163.734C128.579 149.401 134.181 135.628 144.215 125.393C155.163 114.227 161.915 98.9309 161.915 82.0564V82.0564Z" fill="url(#paint0_radial)"/>
<path d="M100 139.976C131.988 139.976 157.919 114.044 157.919 82.0564C157.919 50.0685 131.988 24.1372 100 24.1372C68.0121 24.1372 42.0808 50.0685 42.0808 82.0564C42.0808 114.044 68.0121 139.976 100 139.976Z" fill="url(#paint1_linear)"/>
<path d="M99.9999 69.3171C120.749 69.3171 137.569 59.5402 137.569 47.4798C137.569 35.4194 120.749 25.6426 99.9999 25.6426C79.2511 25.6426 62.4309 35.4194 62.4309 47.4798C62.4309 59.5402 79.2511 69.3171 99.9999 69.3171Z" fill="url(#paint2_linear)"/>
<path d="M127.696 26.6716C131.872 35.0058 134.226 44.4112 134.226 54.3677C134.226 88.5622 106.506 116.282 72.3113 116.282C62.3548 116.282 52.9494 113.929 44.6152 109.752C54.7807 130.041 75.7623 143.971 99.9999 143.971C134.194 143.971 161.914 116.251 161.914 82.0563C161.914 57.8183 147.985 36.8371 127.696 26.6716V26.6716Z" fill="url(#paint3_linear)"/>
<path d="M99.9999 152.978C120.749 152.978 137.569 136.158 137.569 115.409C137.569 94.6601 120.749 77.8398 99.9999 77.8398C79.2511 77.8398 62.4309 94.6601 62.4309 115.409C62.4309 136.158 79.2511 152.978 99.9999 152.978Z" fill="url(#paint4_radial)"/>
<path d="M122.541 194.887C108.287 201.704 91.7133 201.704 77.4592 194.887C73.7564 193.116 71.3992 189.375 71.3992 185.271V154.371H128.6V185.271C128.601 189.375 126.243 193.116 122.541 194.887Z" fill="url(#paint5_linear)"/>
<path d="M71.3992 161.026L77.0705 166.698H128.601V160.978H71.3992V161.026Z" fill="url(#paint6_linear)"/>
<path d="M71.3992 175.121L77.0705 180.792H128.601V175.073H71.3992V175.121Z" fill="url(#paint7_linear)"/>
<path d="M71.9099 188.511C72.006 188.811 72.115 189.107 72.2366 189.396L77.0711 194.231H123.708C125.805 192.882 127.344 190.85 128.091 188.511H71.9099Z" fill="url(#paint8_linear)"/>
<path d="M116.112 115.409H114.951C110.347 115.409 106.602 119.154 106.602 123.757V126.446H99.9999H93.3971V123.757C93.3971 119.154 89.6521 115.409 85.0485 115.409H83.887C79.2834 115.409 75.5383 119.154 75.5383 123.757C75.5383 128.361 79.2834 132.106 83.887 132.106H87.7375V153.704H93.3971V132.106H99.9999H106.603V153.704H112.262V132.106H116.112C120.716 132.106 124.461 128.361 124.461 123.757C124.461 119.154 120.716 115.409 116.112 115.409ZM87.7379 126.446H83.8873C82.4046 126.446 81.1983 125.24 81.1983 123.757C81.1983 122.275 82.4046 121.068 83.8873 121.068H85.0489C86.5317 121.068 87.7379 122.275 87.7379 123.757V126.446ZM116.112 126.446H112.262V123.757C112.262 122.275 113.468 121.068 114.951 121.068H116.112C117.595 121.068 118.801 122.275 118.801 123.757C118.802 125.24 117.596 126.446 116.112 126.446Z" fill="url(#paint9_linear)"/>
<path d="M116.112 115.409H114.951C110.347 115.409 106.602 119.154 106.602 123.757V126.446H99.9999H93.3971V123.757C93.3971 119.154 89.6521 115.409 85.0485 115.409H83.887C79.2834 115.409 75.5383 119.154 75.5383 123.757C75.5383 128.361 79.2834 132.106 83.887 132.106H87.7375V153.704H93.3971V132.106H99.9999H106.603V153.704H112.262V132.106H116.112C120.716 132.106 124.461 128.361 124.461 123.757C124.461 119.154 120.716 115.409 116.112 115.409ZM87.7379 126.446H83.8873C82.4046 126.446 81.1983 125.24 81.1983 123.757C81.1983 122.275 82.4046 121.068 83.8873 121.068H85.0489C86.5317 121.068 87.7379 122.275 87.7379 123.757V126.446ZM116.112 126.446H112.262V123.757C112.262 122.275 113.468 121.068 114.951 121.068H116.112C117.595 121.068 118.801 122.275 118.801 123.757C118.802 125.24 117.596 126.446 116.112 126.446Z" fill="url(#paint10_linear)"/>
<path d="M127.039 161.25H72.9606C70.2516 161.25 68.0559 159.054 68.0559 156.345C68.0559 153.636 70.252 151.44 72.9606 151.44H127.039C129.748 151.44 131.944 153.637 131.944 156.345C131.944 159.054 129.748 161.25 127.039 161.25Z" fill="#464646"/>
<path d="M127.039 175.355H72.9606C70.2516 175.355 68.0559 173.159 68.0559 170.45C68.0559 167.741 70.252 165.545 72.9606 165.545H127.039C129.748 165.545 131.944 167.741 131.944 170.45C131.944 173.159 129.748 175.355 127.039 175.355Z" fill="url(#paint11_linear)"/>
<path d="M127.039 189.46H72.9606C70.2516 189.46 68.0559 187.264 68.0559 184.555C68.0559 181.846 70.252 179.65 72.9606 179.65H127.039C129.748 179.65 131.944 181.846 131.944 184.555C131.944 187.264 129.748 189.46 127.039 189.46Z" fill="url(#paint12_linear)"/>
<path d="M118.623 196.566C113.42 194.8 106.977 193.755 99.9999 193.755C93.0227 193.755 86.5799 194.8 81.3772 196.566C93.3674 201.142 106.632 201.142 118.623 196.566Z" fill="#464646"/>
<defs>
<radialGradient id="paint0_radial" cx="0" cy="0" r="1" gradientUnits="userSpaceOnUse" gradientTransform="translate(79.3166 58.7176) scale(97.9667)">
<stop stop-color="#FFDA45"/>
<stop offset="0.3043" stop-color="#FFCE3E"/>
<stop offset="0.8558" stop-color="#FFAE2B"/>
<stop offset="1" stop-color="#FFA425"/>
</radialGradient>
<linearGradient id="paint1_linear" x1="106.913" y1="88.9698" x2="44.1098" y2="26.1662" gradientUnits="userSpaceOnUse">
<stop stop-color="#FFDA45" stop-opacity="0"/>
<stop offset="1" stop-color="#FCEE21"/>
</linearGradient>
<linearGradient id="paint2_linear" x1="104.094" y1="64.8241" x2="92.8364" y2="17.1351" gradientUnits="userSpaceOnUse">
<stop stop-color="#FFDA45" stop-opacity="0"/>
<stop offset="1" stop-color="white"/>
</linearGradient>
<linearGradient id="paint3_linear" x1="102.15" y1="105.785" x2="187.255" y2="-52.4974" gradientUnits="userSpaceOnUse">
<stop stop-color="#FFDA45" stop-opacity="0"/>
<stop offset="1" stop-color="#B53759"/>
</linearGradient>
<radialGradient id="paint4_radial" cx="0" cy="0" r="1" gradientUnits="userSpaceOnUse" gradientTransform="translate(99.9999 115.409) scale(37.569)">
<stop stop-color="#FCEE21" stop-opacity="0.6"/>
<stop offset="0.3263" stop-color="#FDEA28" stop-opacity="0.404"/>
<stop offset="0.7865" stop-color="#FEE03A" stop-opacity="0.128"/>
<stop offset="1" stop-color="#FFDA45" stop-opacity="0"/>
</radialGradient>
<linearGradient id="paint5_linear" x1="71.3992" y1="177.186" x2="128.601" y2="177.186" gradientUnits="userSpaceOnUse">
<stop stop-color="#7E8595"/>
<stop offset="1" stop-color="#555A66"/>
</linearGradient>
<linearGradient id="paint6_linear" x1="99.9541" y1="166.321" x2="100.08" y2="159.53" gradientUnits="userSpaceOnUse">
<stop stop-color="#555A66" stop-opacity="0"/>
<stop offset="1" stop-color="#555A66"/>
</linearGradient>
<linearGradient id="paint7_linear" x1="99.9541" y1="180.416" x2="100.08" y2="173.625" gradientUnits="userSpaceOnUse">
<stop stop-color="#555A66" stop-opacity="0"/>
<stop offset="1" stop-color="#555A66"/>
</linearGradient>
<linearGradient id="paint8_linear" x1="99.9013" y1="193.854" x2="100.027" y2="187.073" gradientUnits="userSpaceOnUse">
<stop stop-color="#555A66" stop-opacity="0"/>
<stop offset="1" stop-color="#555A66"/>
</linearGradient>
<linearGradient id="paint9_linear" x1="99.9999" y1="129.306" x2="99.9999" y2="109.42" gradientUnits="userSpaceOnUse">
<stop stop-color="#FFDA45" stop-opacity="0"/>
<stop offset="1" stop-color="#FCEE21"/>
</linearGradient>
<linearGradient id="paint10_linear" x1="99.9999" y1="133.33" x2="99.9999" y2="156.979" gradientUnits="userSpaceOnUse">
<stop stop-color="#FFDA45" stop-opacity="0"/>
<stop offset="1" stop-color="#B53759"/>
</linearGradient>
<linearGradient id="paint11_linear" x1="99.8516" y1="166.965" x2="100.217" y2="175.543" gradientUnits="userSpaceOnUse">
<stop stop-color="#7E8595"/>
<stop offset="1" stop-color="#555A66"/>
</linearGradient>
<linearGradient id="paint12_linear" x1="99.8516" y1="181.071" x2="100.217" y2="189.648" gradientUnits="userSpaceOnUse">
<stop stop-color="#7E8595"/>
<stop offset="1" stop-color="#555A66"/>
</linearGradient>
</defs>
</svg>
