<svg width="51" height="51" viewBox="0 0 51 51" fill="none" xmlns="http://www.w3.org/2000/svg">
<rect x="10.8562" width="29.5173" height="2.22772" rx="1.11386" fill="white"/>
<path d="M0.831787 50.6805L13.3627 3.89832H38.9815L50.9556 50.6805H0.831787Z" fill="url(#paint0_linear)" fill-opacity="0.24"/>
<g filter="url(#filter0_d)">
<path fill-rule="evenodd" clip-rule="evenodd" d="M25.2951 15.594C20.3994 15.594 16.426 19.5674 16.426 24.4631C16.426 29.3589 20.3994 33.3322 25.2951 33.3322C30.1909 33.3322 34.1643 29.3589 34.1643 24.4631C34.1643 19.5674 30.1909 15.594 25.2951 15.594ZM24.4082 31.4964C20.9049 31.0618 18.1998 28.0818 18.1998 24.4632C18.1998 23.9133 18.2707 23.39 18.386 22.8756L22.6343 27.1239V28.0108C22.6343 28.9864 23.4326 29.7846 24.4082 29.7846V31.4964ZM28.8426 28.0108C29.6408 28.0108 30.2971 28.5252 30.5277 29.2436C31.6807 27.9842 32.3902 26.3079 32.3902 24.4631C32.3902 21.492 30.5543 18.9465 27.9556 17.8911V18.2547C27.9556 19.2303 27.1574 20.0286 26.1818 20.0286H24.408V21.8024C24.408 22.2902 24.0089 22.6893 23.5211 22.6893H21.7473V24.4631H27.0687C27.5565 24.4631 27.9556 24.8622 27.9556 25.35V28.0108H28.8426Z" fill="white"/>
</g>
<defs>
<filter id="filter0_d" x="10.426" y="13.594" width="29.7382" height="29.7382" filterUnits="userSpaceOnUse" color-interpolation-filters="sRGB">
<feFlood flood-opacity="0" result="BackgroundImageFix"/>
<feColorMatrix in="SourceAlpha" type="matrix" values="0 0 0 0 0 0 0 0 0 0 0 0 0 0 0 0 0 0 127 0"/>
<feOffset dy="4"/>
<feGaussianBlur stdDeviation="3"/>
<feColorMatrix type="matrix" values="0 0 0 0 0 0 0 0 0 0 0 0 0 0 0 0 0 0 0.25 0"/>
<feBlend mode="normal" in2="BackgroundImageFix" result="effect1_dropShadow"/>
<feBlend mode="normal" in="SourceGraphic" in2="effect1_dropShadow" result="shape"/>
</filter>
<linearGradient id="paint0_linear" x1="25.1857" y1="3.89832" x2="25.1857" y2="50.6805" gradientUnits="userSpaceOnUse">
<stop stop-color="#0085FF"/>
<stop offset="1" stop-color="#0085FF" stop-opacity="0"/>
</linearGradient>
</defs>
</svg>
