<svg width="51" height="51" viewBox="0 0 51 51" fill="none" xmlns="http://www.w3.org/2000/svg">
<rect x="10.8887" width="29.5173" height="2.22772" rx="1.11386" fill="white"/>
<path d="M0.306885 50.6805L12.8378 3.89832H38.4566L50.4307 50.6805H0.306885Z" fill="url(#paint0_linear)" fill-opacity="0.24"/>
<g filter="url(#filter0_d)">
<path d="M32.4906 16.1971C32.8277 16.2473 33.1311 16.4294 33.3341 16.7032C33.537 16.977 33.623 17.3202 33.573 17.6574C33.5488 17.8245 33.4917 17.9851 33.4053 18.1302C33.3188 18.2752 33.2046 18.4017 33.0691 18.5025C32.9337 18.6034 32.7797 18.6765 32.6159 18.7177C32.4522 18.7589 32.2819 18.7674 32.1149 18.7427C30.5482 18.5102 28.3393 20.8084 25.8802 25.5041C22.8277 31.3347 20.0056 34.0937 17.09 33.8775C16.7502 33.8519 16.4344 33.6925 16.2122 33.4342C15.9899 33.1759 15.8793 32.8399 15.9047 32.5001C15.9572 31.7912 16.5725 31.2595 17.2799 31.312C18.8898 31.4311 21.1292 29.0414 23.6075 24.3082C26.6777 18.4442 29.5331 15.759 32.4906 16.1971Z" fill="white"/>
<path d="M32.4906 16.1971C32.8277 16.2473 33.1311 16.4294 33.3341 16.7032C33.537 16.977 33.623 17.3202 33.573 17.6574C33.5488 17.8245 33.4917 17.9851 33.4053 18.1302C33.3188 18.2752 33.2046 18.4017 33.0691 18.5025C32.9337 18.6034 32.7797 18.6765 32.6159 18.7177C32.4522 18.7589 32.2819 18.7674 32.1149 18.7427C30.5482 18.5102 28.3393 20.8084 25.8802 25.5041C22.8277 31.3347 20.0056 34.0937 17.09 33.8775C16.7502 33.8519 16.4344 33.6925 16.2122 33.4342C15.9899 33.1759 15.8793 32.8399 15.9047 32.5001C15.9572 31.7912 16.5725 31.2595 17.2799 31.312C18.8898 31.4311 21.1292 29.0414 23.6075 24.3082C26.6777 18.4442 29.5331 15.759 32.4906 16.1971Z" stroke="white" stroke-width="0.778"/>
</g>
<defs>
<filter id="filter0_d" x="9.51221" y="13.7618" width="30.4638" height="30.5164" filterUnits="userSpaceOnUse" color-interpolation-filters="sRGB">
<feFlood flood-opacity="0" result="BackgroundImageFix"/>
<feColorMatrix in="SourceAlpha" type="matrix" values="0 0 0 0 0 0 0 0 0 0 0 0 0 0 0 0 0 0 127 0"/>
<feOffset dy="4"/>
<feGaussianBlur stdDeviation="3"/>
<feColorMatrix type="matrix" values="0 0 0 0 0 0 0 0 0 0 0 0 0 0 0 0 0 0 0.25 0"/>
<feBlend mode="normal" in2="BackgroundImageFix" result="effect1_dropShadow"/>
<feBlend mode="normal" in="SourceGraphic" in2="effect1_dropShadow" result="shape"/>
</filter>
<linearGradient id="paint0_linear" x1="24.6608" y1="3.89832" x2="24.6608" y2="50.6805" gradientUnits="userSpaceOnUse">
<stop stop-color="#0085FF"/>
<stop offset="1" stop-color="#0085FF" stop-opacity="0"/>
</linearGradient>
</defs>
</svg>
