<svg width="56" height="56" viewBox="0 0 56 56" fill="none" xmlns="http://www.w3.org/2000/svg">
<path d="M53.5 28C53.5 42.0833 42.0833 53.5 28 53.5C13.9167 53.5 2.5 42.0833 2.5 28C2.5 13.9167 13.9167 2.5 28 2.5C42.0833 2.5 53.5 13.9167 53.5 28Z" fill="white" stroke="#FF2A00" stroke-width="5"/>
<path d="M37.6982 18.0545C38.0985 18.114 38.4587 18.3295 38.6997 18.6537C38.9408 18.9779 39.0428 19.3842 38.9835 19.7834C38.9547 19.9812 38.887 20.1714 38.7843 20.3431C38.6816 20.5148 38.546 20.6646 38.3851 20.784C38.2243 20.9033 38.0414 20.9899 37.847 21.0386C37.6526 21.0874 37.4504 21.0975 37.2521 21.0683C35.3919 20.793 32.769 23.5138 29.8491 29.0729C26.2246 35.9757 22.8737 39.242 19.4116 38.9861C19.0081 38.9558 18.6332 38.767 18.3693 38.4612C18.1054 38.1555 17.9741 37.7577 18.0042 37.3554C18.0665 36.5162 18.7972 35.8867 19.6372 35.9488C21.5488 36.0898 24.2078 33.2608 27.1505 27.6571C30.796 20.7149 34.1865 17.5359 37.6982 18.0545Z" fill="black" stroke="black" stroke-width="2"/>
</svg>
