<svg width="56" height="56" viewBox="0 0 56 56" fill="none" xmlns="http://www.w3.org/2000/svg">
<path d="M54 28C54 42.3594 42.3594 54 28 54C13.6406 54 2 42.3594 2 28C2 13.6406 13.6406 2 28 2C42.3594 2 54 13.6406 54 28Z" fill="#100E0E" stroke="white" stroke-width="4"/>
<g filter="url(#filter0_d)">
<path d="M18.0545 19.3018C18.114 18.9015 18.3295 18.5413 18.6537 18.3003C18.9779 18.0592 19.3842 17.9572 19.7834 18.0165C19.9812 18.0453 20.1714 18.113 20.3431 18.2157C20.5148 18.3184 20.6646 18.454 20.784 18.6149C20.9033 18.7757 20.9899 18.9586 21.0386 19.153C21.0874 19.3474 21.0975 19.5496 21.0683 19.7479C20.793 21.6081 23.5138 24.231 29.0729 27.1509C35.9757 30.7754 39.242 34.1263 38.9861 37.5884C38.9558 37.9919 38.767 38.3668 38.4612 38.6307C38.1555 38.8946 37.7577 39.0259 37.3554 38.9958C36.5162 38.9335 35.8867 38.2028 35.9488 37.3628C36.0898 35.4512 33.2608 32.7922 27.6571 29.8495C20.7149 26.204 17.5359 22.8135 18.0545 19.3018V19.3018Z" fill="white"/>
<path d="M18.0545 19.3018C18.114 18.9015 18.3295 18.5413 18.6537 18.3003C18.9779 18.0592 19.3842 17.9572 19.7834 18.0165C19.9812 18.0453 20.1714 18.113 20.3431 18.2157C20.5148 18.3184 20.6646 18.454 20.784 18.6149C20.9033 18.7757 20.9899 18.9586 21.0386 19.153C21.0874 19.3474 21.0975 19.5496 21.0683 19.7479C20.793 21.6081 23.5138 24.231 29.0729 27.1509C35.9757 30.7754 39.242 34.1263 38.9861 37.5884C38.9558 37.9919 38.767 38.3668 38.4612 38.6307C38.1555 38.8946 37.7577 39.0259 37.3554 38.9958C36.5162 38.9335 35.8867 38.2028 35.9488 37.3628C36.0898 35.4512 33.2608 32.7922 27.6571 29.8495C20.7149 26.204 17.5359 22.8135 18.0545 19.3018V19.3018Z" stroke="white" stroke-width="2"/>
</g>
<defs>
<filter id="filter0_d" x="10.9998" y="15" width="35.0005" height="35" filterUnits="userSpaceOnUse" color-interpolation-filters="sRGB">
<feFlood flood-opacity="0" result="BackgroundImageFix"/>
<feColorMatrix in="SourceAlpha" type="matrix" values="0 0 0 0 0 0 0 0 0 0 0 0 0 0 0 0 0 0 127 0"/>
<feOffset dy="4"/>
<feGaussianBlur stdDeviation="3"/>
<feColorMatrix type="matrix" values="0 0 0 0 0 0 0 0 0 0 0 0 0 0 0 0 0 0 0.25 0"/>
<feBlend mode="normal" in2="BackgroundImageFix" result="effect1_dropShadow"/>
<feBlend mode="normal" in="SourceGraphic" in2="effect1_dropShadow" result="shape"/>
</filter>
</defs>
</svg>
