<svg xmlns="http://www.w3.org/2000/svg" width="40" height="40" viewBox="0 0 40 40">
  <g id="mute" transform="translate(-31.541 -41.102)">
    <g id="mute-bg" transform="translate(31.541 41.102)" fill="#100e0e" stroke="#fff" stroke-width="3">
      <circle cx="20" cy="20" r="20" stroke="none"/>
      <circle cx="20" cy="20" r="18.5" fill="none"/>
    </g>
    <g id="speaker" transform="translate(43.851 50.636) rotate(14)">
      <path id="speaker-2" data-name="speaker" d="M10777-4638.733l-6.733-2.216-1.656-6.547,4.929-4.842c.581-.571,1.215-.4,1.415.387l3.1,12.26c.161.632-.112,1.034-.629,1.034A1.352,1.352,0,0,1,10777-4638.733Zm-12.024-2.441-.937-3.754a1.493,1.493,0,0,1,1.088-1.808l2.645-.658,1.656,6.649-2.645.658a1.5,1.5,0,0,1-.359.044A1.492,1.492,0,0,1,10764.979-4641.174Zm13.754-2.847a1,1,0,0,1-.225-1.394l.9-1.246-1.613-1.179a1,1,0,0,1-.217-1.394,1,1,0,0,1,1.392-.217l1.607,1.174,1.088-1.5a1,1,0,0,1,1.394-.225.993.993,0,0,1,.223,1.391l-1.095,1.513,1.138.831a1,1,0,0,1,.214,1.394.993.993,0,0,1-1.094.366.948.948,0,0,1-.3-.149l-1.128-.825-.9,1.239a.98.98,0,0,1-.685.406.961.961,0,0,1-.124.008A.979.979,0,0,1,10778.733-4644.021Z" transform="translate(-10764 4654)" fill="#fff"/>
    </g>
  </g>
</svg>
