<svg width="51" height="51" viewBox="0 0 51 51" fill="none" xmlns="http://www.w3.org/2000/svg">
<rect x="10.6262" width="29.5173" height="2.22772" rx="1.11386" fill="white"/>
<path d="M0.0441895 50.6805L12.5751 3.89832H38.194L50.168 50.6805H0.0441895Z" fill="url(#paint0_linear)" fill-opacity="0.24"/>
<g filter="url(#filter0_d)">
<path d="M19.1689 28.1414C18.9818 27.325 18.8877 26.4901 18.8885 25.6526C18.8885 21.3292 21.3552 17.6346 24.8365 16.151C28.3178 17.6346 30.7846 21.3292 30.7846 25.6526C30.7846 26.5108 30.6877 27.3444 30.5041 28.1414L32.2206 29.6675C32.2945 29.7332 32.3431 29.8226 32.3582 29.9203C32.3732 30.0181 32.3537 30.118 32.303 30.2028L30.2144 33.6833C30.1811 33.7386 30.1357 33.7856 30.0816 33.8207C30.0275 33.8559 29.9661 33.8782 29.902 33.8861C29.838 33.8939 29.773 33.8871 29.712 33.8661C29.651 33.8451 29.5955 33.8105 29.5499 33.7649L27.6346 31.8496C27.4753 31.6902 27.2592 31.6007 27.0339 31.6006H22.6391C22.4138 31.6007 22.1977 31.6902 22.0384 31.8496L20.1231 33.7649C20.0775 33.8105 20.022 33.8451 19.961 33.8661C19.9 33.8871 19.835 33.8939 19.771 33.8861C19.7069 33.8782 19.6455 33.8559 19.5914 33.8207C19.5373 33.7856 19.4919 33.7386 19.4586 33.6833L17.37 30.2037C17.3191 30.1187 17.2995 30.0186 17.3145 29.9207C17.3296 29.8228 17.3783 29.7333 17.4524 29.6675L19.1689 28.1414ZM24.8365 25.6526C25.2872 25.6526 25.7195 25.4735 26.0382 25.1548C26.3569 24.8361 26.5359 24.4039 26.5359 23.9531C26.5359 23.5024 26.3569 23.0702 26.0382 22.7515C25.7195 22.4327 25.2872 22.2537 24.8365 22.2537C24.3858 22.2537 23.9535 22.4327 23.6348 22.7515C23.3161 23.0702 23.1371 23.5024 23.1371 23.9531C23.1371 24.4039 23.3161 24.8361 23.6348 25.1548C23.9535 25.4735 24.3858 25.6526 24.8365 25.6526Z" fill="white"/>
</g>
<defs>
<filter id="filter0_d" x="11.3096" y="14.151" width="27.0535" height="29.7382" filterUnits="userSpaceOnUse" color-interpolation-filters="sRGB">
<feFlood flood-opacity="0" result="BackgroundImageFix"/>
<feColorMatrix in="SourceAlpha" type="matrix" values="0 0 0 0 0 0 0 0 0 0 0 0 0 0 0 0 0 0 127 0"/>
<feOffset dy="4"/>
<feGaussianBlur stdDeviation="3"/>
<feColorMatrix type="matrix" values="0 0 0 0 0 0 0 0 0 0 0 0 0 0 0 0 0 0 0.25 0"/>
<feBlend mode="normal" in2="BackgroundImageFix" result="effect1_dropShadow"/>
<feBlend mode="normal" in="SourceGraphic" in2="effect1_dropShadow" result="shape"/>
</filter>
<linearGradient id="paint0_linear" x1="24.3981" y1="3.89832" x2="24.3981" y2="50.6805" gradientUnits="userSpaceOnUse">
<stop stop-color="#0085FF"/>
<stop offset="1" stop-color="#0085FF" stop-opacity="0"/>
</linearGradient>
</defs>
</svg>
