<svg width="56" height="56" viewBox="0 0 56 56" fill="none" xmlns="http://www.w3.org/2000/svg">
<path d="M54 28C54 42.3594 42.3594 54 28 54C13.6406 54 2 42.3594 2 28C2 13.6406 13.6406 2 28 2C42.3594 2 54 13.6406 54 28Z" fill="#100E0E" stroke="white" stroke-width="4"/>
<g filter="url(#filter0_d)">
<path d="M18.9083 25.3783C19.5611 24.3388 20.3292 23.3763 21.198 22.5089C25.679 18.028 32.0574 16.7479 37.1927 18.8078C39.2526 23.943 37.9724 30.3214 33.4915 34.8024C32.602 35.6919 31.6379 36.4557 30.6222 37.0922L30.8142 40.4477C30.8224 40.5921 30.7801 40.735 30.6943 40.8519C30.6086 40.9687 30.4849 41.0521 30.3445 41.0877L24.5788 42.5366C24.4872 42.5596 24.3915 42.5613 24.2992 42.5418C24.2068 42.5223 24.1202 42.482 24.0459 42.424C23.9716 42.366 23.9115 42.2917 23.8702 42.2069C23.8289 42.1221 23.8075 42.0289 23.8076 41.9345L23.8135 37.9701C23.814 37.6403 23.6835 37.3242 23.4507 37.0913L18.9091 32.5497C18.6762 32.3169 18.3601 32.1864 18.0303 32.187L14.0659 32.1928C13.9715 32.1929 13.8783 32.1715 13.7935 32.1302C13.7087 32.089 13.6345 32.0289 13.5764 31.9545C13.5184 31.8802 13.4781 31.7936 13.4586 31.7012C13.4391 31.6089 13.4409 31.5132 13.4638 31.4216L14.9119 25.6568C14.9473 25.5161 15.0308 25.3921 15.1478 25.3061C15.2648 25.2202 15.4081 25.1778 15.5528 25.1862L18.9083 25.3783V25.3783ZM27.3448 28.6557C27.8105 29.1214 28.4428 29.3826 29.1025 29.3816C29.7622 29.3806 30.3952 29.1176 30.8623 28.6505C31.3295 28.1833 31.5925 27.5503 31.5934 26.8906C31.5944 26.2309 31.3333 25.5987 30.8675 25.1329C30.4017 24.6671 29.7695 24.406 29.1098 24.407C28.4501 24.4079 27.8171 24.6709 27.3499 25.1381C26.8828 25.6052 26.6198 26.2383 26.6188 26.8979C26.6179 27.5576 26.879 28.1899 27.3448 28.6557Z" fill="white"/>
</g>
<defs>
<filter id="filter0_d" x="5.02954" y="9.02942" width="45.9411" height="45.9411" filterUnits="userSpaceOnUse" color-interpolation-filters="sRGB">
<feFlood flood-opacity="0" result="BackgroundImageFix"/>
<feColorMatrix in="SourceAlpha" type="matrix" values="0 0 0 0 0 0 0 0 0 0 0 0 0 0 0 0 0 0 127 0"/>
<feOffset dy="4"/>
<feGaussianBlur stdDeviation="3"/>
<feColorMatrix type="matrix" values="0 0 0 0 0 0 0 0 0 0 0 0 0 0 0 0 0 0 0.25 0"/>
<feBlend mode="normal" in2="BackgroundImageFix" result="effect1_dropShadow"/>
<feBlend mode="normal" in="SourceGraphic" in2="effect1_dropShadow" result="shape"/>
</filter>
</defs>
</svg>
