<svg width="56" height="56" viewBox="0 0 56 56" fill="none" xmlns="http://www.w3.org/2000/svg">
<path d="M53.5 28C53.5 42.0833 42.0833 53.5 28 53.5C13.9167 53.5 2.5 42.0833 2.5 28C2.5 13.9167 13.9167 2.5 28 2.5C42.0833 2.5 53.5 13.9167 53.5 28Z" fill="white" stroke="#FF3500" stroke-width="5"/>
<path d="M19.7173 32.5751C19.4439 31.3785 19.3064 30.1547 19.3075 28.927C19.3075 22.59 22.9125 17.1746 28.0002 15C33.088 17.1746 36.693 22.59 36.693 28.927C36.693 30.185 36.5515 31.4068 36.2832 32.5751L38.7917 34.812C38.8997 34.9083 38.9708 35.0393 38.9928 35.1825C39.0148 35.3258 38.9862 35.4722 38.9122 35.5966L35.8598 40.6981C35.8112 40.7792 35.7448 40.8481 35.6657 40.8996C35.5866 40.9511 35.4969 40.9838 35.4033 40.9954C35.3097 41.0069 35.2147 40.9969 35.1255 40.9661C35.0363 40.9353 34.9553 40.8846 34.8886 40.8177L32.0896 38.0104C31.8567 37.7768 31.5409 37.6455 31.2116 37.6454H24.7889C24.4596 37.6455 24.1437 37.7768 23.9109 38.0104L21.1118 40.8177C21.0451 40.8846 20.9641 40.9353 20.875 40.9661C20.7858 40.9969 20.6908 41.0069 20.5972 40.9954C20.5036 40.9838 20.4139 40.9511 20.3348 40.8996C20.2557 40.8481 20.1893 40.7792 20.1407 40.6981L17.0883 35.5979C17.0139 35.4733 16.9852 35.3266 17.0072 35.1831C17.0292 35.0396 17.1005 34.9083 17.2088 34.812L19.7173 32.5751ZM28.0002 28.927C28.6589 28.927 29.2907 28.6646 29.7564 28.1974C30.2222 27.7303 30.4839 27.0967 30.4839 26.4361C30.4839 25.7754 30.2222 25.1418 29.7564 24.6747C29.2907 24.2075 28.6589 23.9451 28.0002 23.9451C27.3415 23.9451 26.7098 24.2075 26.244 24.6747C25.7783 25.1418 25.5166 25.7754 25.5166 26.4361C25.5166 27.0967 25.7783 27.7303 26.244 28.1974C26.7098 28.6646 27.3415 28.927 28.0002 28.927Z" fill="black"/>
</svg>
