<svg width="96" height="96" viewBox="0 0 96 96" fill="none" xmlns="http://www.w3.org/2000/svg">
<g filter="url(#filter0_df)">
<circle cx="48" cy="48" r="33" fill="#FBE1B9"/>
<circle cx="48" cy="48" r="28" stroke="#FB8700" stroke-width="10"/>
</g>
<g filter="url(#filter1_d)">
<circle cx="48" cy="48" r="30" fill="white"/>
</g>
<path d="M75.5 48C75.5 63.1878 63.1878 75.5 48 75.5C32.8122 75.5 20.5 63.1878 20.5 48C20.5 32.8122 32.8122 20.5 48 20.5C63.1878 20.5 75.5 32.8122 75.5 48Z" fill="#100E0E" stroke="white"/>
<path d="M39 41.3807V55.1437C39.0319 56.0682 39.4284 56.9425 40.103 57.5755C40.7776 58.2085 41.6753 58.5487 42.6 58.5217C43.5247 58.5487 44.4224 58.2085 45.097 57.5755C45.7716 56.9425 46.1681 56.0682 46.2 55.1437V41.3807C46.1681 40.4562 45.7716 39.5819 45.097 38.9489C44.4224 38.3159 43.5247 37.9757 42.6 38.0027C41.6753 37.9757 40.7776 38.3159 40.103 38.9489C39.4284 39.5819 39.0319 40.4562 39 41.3807V41.3807Z" fill="white"/>
<path d="M53.8119 38.0017C52.8873 37.9748 51.9895 38.3149 51.3149 38.9479C50.6403 39.5809 50.2438 40.4552 50.2119 41.3797V55.1427C50.2691 56.0597 50.6737 56.9205 51.3433 57.5496C52.0129 58.1788 52.8971 58.529 53.8159 58.529C54.7347 58.529 55.619 58.1788 56.2886 57.5496C56.9582 56.9205 57.3627 56.0597 57.4199 55.1427V41.3807C57.3883 40.4546 56.9908 39.5788 56.3144 38.9454C55.6381 38.312 54.7381 37.9726 53.8119 38.0017V38.0017Z" fill="white"/>
<defs>
<filter id="filter0_df" x="0" y="0" width="96" height="96" filterUnits="userSpaceOnUse" color-interpolation-filters="sRGB">
<feFlood flood-opacity="0" result="BackgroundImageFix"/>
<feColorMatrix in="SourceAlpha" type="matrix" values="0 0 0 0 0 0 0 0 0 0 0 0 0 0 0 0 0 0 127 0"/>
<feOffset/>
<feColorMatrix type="matrix" values="0 0 0 0 1 0 0 0 0 0.607843 0 0 0 0 0.152941 0 0 0 1 0"/>
<feBlend mode="normal" in2="BackgroundImageFix" result="effect1_dropShadow"/>
<feBlend mode="normal" in="SourceGraphic" in2="effect1_dropShadow" result="shape"/>
<feGaussianBlur stdDeviation="7.5" result="effect2_foregroundBlur"/>
</filter>
<filter id="filter1_d" x="14" y="14" width="68" height="68" filterUnits="userSpaceOnUse" color-interpolation-filters="sRGB">
<feFlood flood-opacity="0" result="BackgroundImageFix"/>
<feColorMatrix in="SourceAlpha" type="matrix" values="0 0 0 0 0 0 0 0 0 0 0 0 0 0 0 0 0 0 127 0"/>
<feOffset/>
<feGaussianBlur stdDeviation="2"/>
<feColorMatrix type="matrix" values="0 0 0 0 1 0 0 0 0 0.607843 0 0 0 0 0.152941 0 0 0 1 0"/>
<feBlend mode="normal" in2="BackgroundImageFix" result="effect1_dropShadow"/>
<feBlend mode="normal" in="SourceGraphic" in2="effect1_dropShadow" result="shape"/>
</filter>
</defs>
</svg>
