<svg width="96" height="96" viewBox="0 0 96 96" fill="none" xmlns="http://www.w3.org/2000/svg">
<g filter="url(#filter0_df)">
<circle cx="48" cy="48" r="33" fill="#FBE1B9"/>
<circle cx="48" cy="48" r="28" stroke="#FB8700" stroke-width="10"/>
</g>
<g filter="url(#filter1_d)">
<circle cx="48" cy="48" r="30" fill="white"/>
</g>
<path d="M75.5 48C75.5 63.1878 63.1878 75.5 48 75.5C32.8122 75.5 20.5 63.1878 20.5 48C20.5 32.8122 32.8122 20.5 48 20.5C63.1878 20.5 75.5 32.8122 75.5 48Z" fill="#100E0E" stroke="white"/>
<path d="M43.6388 38.4398C41.8298 37.3978 40.3638 38.2528 40.3638 40.3368V55.7188C40.3638 57.8058 41.8298 58.6538 43.6388 57.6188L57.0838 49.9088C58.8928 48.8708 58.8928 47.1898 57.0838 46.1518L43.6388 38.4398Z" fill="white"/>
<defs>
<filter id="filter0_df" x="0" y="0" width="96" height="96" filterUnits="userSpaceOnUse" color-interpolation-filters="sRGB">
<feFlood flood-opacity="0" result="BackgroundImageFix"/>
<feColorMatrix in="SourceAlpha" type="matrix" values="0 0 0 0 0 0 0 0 0 0 0 0 0 0 0 0 0 0 127 0"/>
<feOffset/>
<feColorMatrix type="matrix" values="0 0 0 0 1 0 0 0 0 0.607843 0 0 0 0 0.152941 0 0 0 1 0"/>
<feBlend mode="normal" in2="BackgroundImageFix" result="effect1_dropShadow"/>
<feBlend mode="normal" in="SourceGraphic" in2="effect1_dropShadow" result="shape"/>
<feGaussianBlur stdDeviation="7.5" result="effect2_foregroundBlur"/>
</filter>
<filter id="filter1_d" x="14" y="14" width="68" height="68" filterUnits="userSpaceOnUse" color-interpolation-filters="sRGB">
<feFlood flood-opacity="0" result="BackgroundImageFix"/>
<feColorMatrix in="SourceAlpha" type="matrix" values="0 0 0 0 0 0 0 0 0 0 0 0 0 0 0 0 0 0 127 0"/>
<feOffset/>
<feGaussianBlur stdDeviation="2"/>
<feColorMatrix type="matrix" values="0 0 0 0 1 0 0 0 0 0.607843 0 0 0 0 0.152941 0 0 0 1 0"/>
<feBlend mode="normal" in2="BackgroundImageFix" result="effect1_dropShadow"/>
<feBlend mode="normal" in="SourceGraphic" in2="effect1_dropShadow" result="shape"/>
</filter>
</defs>
</svg>
