<svg width="42" height="47" viewBox="0 0 42 47" fill="none" xmlns="http://www.w3.org/2000/svg">
<rect x="1" width="40" height="40" rx="10" fill="#212121"/>
<g filter="url(#filter0_d)">
<path d="M11.338 24.1807C11.338 24.1807 10.576 19.8246 11.9863 16.4871C13.7255 13.6666 17.2313 14.9805 18.0774 16.1557C18.9235 17.3308 23.8871 17.6735 26.5195 15.9812C29.152 14.289 30.5072 15.5469 30.8363 16.4871C31.1653 17.4273 31.7764 21.8929 31.4004 23.3032C31.8915 24.0696 31.9471 24.4033 31.9471 24.4033L30.7232 28.4087C30.7232 28.4087 30.2345 30.956 28.0957 32.7281C25.6051 34.2219 21.9891 35.8631 21.1824 35.9465C20.3758 36.03 15.4525 33.3205 14.3955 32.7281C13.3386 32.1358 12.3796 30.8056 11.9282 29.8299C10.995 27.8126 10.8009 26.1027 10.6626 24.659C11.0242 24.4059 11.338 24.1807 11.338 24.1807Z" fill="#DCAD9F"/>
<path d="M15.4494 33.2031C15.4494 33.2031 14.1388 29.558 12.0091 29.0666C11.4357 27.674 10.5347 24.6433 10.5347 24.6433C10.5347 24.6433 11.0514 24.4196 11.1742 23.9691C11.2971 23.5186 8.9059 16.7231 12.8755 15.4629C13.033 16.9121 12.0563 20.7241 12.8755 21.2597C13.6946 21.7953 14.0727 21.1336 14.4192 22.0472C13.7891 21.9526 13.7576 21.8267 12.3714 22.7403C10.9853 23.6539 11.4578 23.7799 11.4578 23.7799C11.4578 23.7799 11.7728 23.3388 12.0091 23.4018C12.2454 23.4649 11.2688 25.8592 12.3714 27.0564C13.4741 28.2536 16.215 30.3643 19.2394 28.5056C19.6175 28.7576 19.6175 29.0666 19.6175 29.0666L17.2401 31.2027C17.2401 31.2027 17.5794 31.7601 17.6763 31.7843C17.7732 31.8085 19.7362 30.1849 19.7362 30.1849L20.5602 30.6211L20.2694 31.0331C20.2694 31.0331 22.6564 31.3481 23.335 30.6211C23.9408 31.13 25.255 32.9156 24.0911 34.4599C22.9271 36.0041 21.0036 36.2556 16.9395 34.0503C15.3643 33.1997 15.4494 33.2031 15.4494 33.2031Z" fill="#E5B7A8"/>
<path d="M19.2398 25.3229C19.2398 25.3229 19.8383 25.1339 19.8068 25.0394C19.7753 24.9449 17.8706 20.2446 17.8706 20.2446C17.8706 20.2446 18.0998 19.9618 18.6643 20.6067C19.2287 21.2516 20.9725 25.5119 20.9725 25.5119H21.3821L23.7613 21.4147L23.5244 23.2162L22.5827 25.5119L23.5244 25.3229L23.9654 26.0475C23.9654 26.0475 22.7368 26.7405 22.2957 27.8117C23.1463 28.7883 23.5243 29.1979 23.5243 29.1979L22.2957 30.143C22.2957 30.143 22.4217 30.143 21.9806 29.1979C21.5396 28.2528 21.3821 27.0556 21.3821 27.0556C21.3821 27.0556 21.004 26.6775 20.689 27.0556C20.3739 27.4337 20.689 28.2252 20.689 28.2252L19.8068 28.5678C19.8068 28.5678 19.9644 27.6542 19.5233 27.2761C19.0822 26.898 18.6179 26.0735 18.7949 25.7673C18.9718 25.4611 19.2398 25.3229 19.2398 25.3229Z" fill="#D69E8D"/>
<path d="M25.9746 33.8574C26.1428 33.5656 26.1113 32.6385 26.4417 32.1569C27.211 30.7547 28.0359 30.4298 28.416 30.1048C28.796 29.7798 29.9883 26.8826 29.9883 26.8826L29.7016 23.8465L30.7255 24.0926L29.7016 23.067C29.7016 23.067 29.333 21.2617 29.1692 21.2617C29.0053 21.2617 29.8019 21.0951 29.1875 18.2232C29.024 17.4588 28.9174 17.4389 28.9174 17.4389L30.1266 16.6069C30.1266 16.6069 31.0941 17.2409 31.135 18.0204C31.176 18.8 31.5446 23.067 31.5446 23.067L32.036 24.5029C32.036 24.5029 30.7255 28.8109 30.275 29.8777C30.0465 30.4185 29.5876 31.3187 28.8161 32.0937C28.1078 32.8054 27.0998 33.393 25.9746 33.8574Z" fill="#D69E8D"/>
<path d="M16.3412 23.4959C15.5851 22.3618 15.6166 22.1413 15.3331 21.6057C15.0495 21.0701 15.5221 20.4401 16.0577 21.2276C16.5933 22.0152 18.137 23.496 18.137 23.496C18.137 23.496 17.6518 21.4778 17.6361 20.9428C17.6204 20.4078 18.0109 20.1565 18.0109 20.1565L19.7752 25.1342L19.1451 25.3232C19.1451 25.3232 17.0973 24.6301 16.3412 23.4959Z" fill="#E1B7A7"/>
<path d="M14.9546 17.7622C14.9546 17.7622 15.1436 19.4635 16.0572 19.495C16.9708 19.5265 17.0653 17.1637 17.0653 17.1637C17.0653 17.1637 17.0338 15.935 15.9312 15.809C14.8285 15.683 14.9546 17.7622 14.9546 17.7622Z" fill="#E5B7A8"/>
<path opacity="0.42" d="M25.6979 29.0695C25.6979 29.0695 28.0729 29.2876 29.1392 28.5848C28.5333 27.6881 28.5333 27.9305 28.5333 27.9305C28.5333 27.9305 27.7336 28.5928 26.013 28.2253C25.4556 29.2391 25.6979 29.0695 25.6979 29.0695Z" fill="#D69E8D"/>
<path d="M21.7485 17.4262C24.3613 18.0416 26.2627 17.2959 28.3506 16.521C28.8085 17.1944 28.811 17.2469 28.9239 17.4424C29.0368 17.638 29.5417 17.078 29.5417 17.078C29.5417 17.078 30.1042 16.5816 30.9425 17.5964C31.119 16.5264 30.6447 15.0593 29.0784 15.302C27.512 15.5447 26.8406 16.6249 21.7485 17.4262Z" fill="#D69E8D"/>
<path d="M15.4691 33.2347C14.9285 33.2161 12.8779 31.9111 12.0391 29.935C11.2002 27.9589 10.0444 24.6594 10.0444 24.6594H10.5477L12.0391 29.0775C12.0391 29.0775 14.2761 29.7114 15.4691 33.2347Z" fill="#C69586"/>
<path d="M19.4351 29.822C19.4371 29.8244 19.4365 29.8264 19.4351 29.822C19.4928 29.7516 19.8019 29.2208 19.9379 28.5068C20.0927 27.6945 20.112 27.211 20.112 27.211C20.112 27.211 20.3441 26.8435 20.789 26.8435C21.2338 26.8435 21.4852 27.0949 21.4852 27.0949C21.4852 27.0949 21.9107 29.087 22.4329 29.822C22.1042 30.6924 21.1178 30.7697 21.1178 30.7697C21.1178 30.7697 19.8605 30.7117 19.4351 29.822Z" fill="#CE9282"/>
<path d="M21.3053 27.0942C21.3053 27.0942 21.6012 29.1831 22.0848 29.5893C21.8139 29.8407 21.7173 30.2275 21.1757 30.2082C20.6341 30.1888 20.228 29.8407 20.228 29.8407L20.112 30.0535H19.8799L20.3247 29.2411L19.9572 29.0284L19.6284 29.4925C19.6284 29.4925 20.1818 28.1357 20.112 27.1984C20.6967 26.6777 21.3053 27.0942 21.3053 27.0942Z" fill="#E5B7A8"/>
<path d="M20.38 30.2585C20.3367 30.2152 20.2066 29.9695 19.8307 30.0851C19.5272 30.2874 20.221 30.4826 20.221 30.4826C20.221 30.4826 20.5173 30.4898 20.38 30.2585Z" fill="#712D1A"/>
<path d="M21.4565 30.501C21.4565 30.501 21.5071 30.3937 21.8902 30.0854C21.948 30.0251 22.0926 29.9715 22.1142 30.005C22.1359 30.0385 22.2298 30.1256 22.0853 30.2999C21.9407 30.4742 21.471 30.6484 21.4565 30.6417C21.442 30.635 21.2903 30.9032 20.6543 30.6819C20.7483 30.5345 20.8783 30.7021 21.0735 30.6819C21.2686 30.6618 21.4565 30.501 21.4565 30.501Z" fill="#712D1A"/>
<path d="M20.7417 26.9797C20.7417 26.9797 21.4647 29.3144 21.3349 29.5555C21.2052 29.7965 20.8251 29.9077 20.8251 29.9077C20.8251 29.9077 20.992 30.1858 21.3349 30.1209C21.6779 30.056 21.9281 29.6203 21.9281 29.6203C21.9281 29.6203 21.6987 29.0477 21.5203 28.3875C21.3419 27.7274 21.2237 26.9797 21.2237 26.9797H20.7417Z" fill="#ECC7B7"/>
<path d="M10.1349 23.831C10.1 23.8323 8.56506 22.8555 8.18131 24.3905C7.97202 25.9603 8.69707 27.481 9.91802 29.2602C10.7203 30.0625 11.9807 29.8635 11.9807 29.8635C11.9807 29.8635 10.4501 25.591 10.1349 23.831Z" fill="#E5B7A8"/>
<path d="M9.77458 24.481L10.4891 25.7195C10.4891 25.7195 9.981 26.3864 10.1874 26.577C10.3938 26.7675 10.9972 27.2915 10.9972 27.2915C10.9972 27.2915 11.2195 28.3236 11.2036 28.6888C10.902 28.8317 10.8384 28.6888 10.8384 28.6888C10.8384 28.6888 10.7831 28.2739 10.3703 28.004C9.95749 27.7341 9.2506 27.482 8.79014 25.9101C8.47255 24.2905 9.77458 24.481 9.77458 24.481Z" fill="#CC8E7B"/>
<path d="M9.21875 24.1476C9.25169 24.015 8.64709 23.7506 8.36133 24.4016C8.07549 25.0526 8.55185 24.7192 8.67888 24.5445C8.80592 24.3698 9.18583 24.2802 9.21875 24.1476Z" fill="#CC8E7B"/>
<path d="M9.40088 28.166L9.9261 28.8866L10.2193 28.8011L9.48638 27.7629L9.40088 28.166Z" fill="#CC8E7B"/>
<path d="M32.2267 23.9192C32.2615 23.9217 33.8283 23.0224 34.1591 24.5334C34.3146 26.0723 33.5383 27.5307 32.2577 29.2237C31.4287 29.9784 30.1764 29.7402 30.1764 29.7402C30.1764 29.7402 32.2728 25.5893 32.2267 23.9192Z" fill="#E5B7A8"/>
<path d="M32.5629 24.5877L31.8058 25.8C31.8058 25.8 32.2901 26.484 32.0772 26.6671C31.8643 26.8502 31.2432 27.3526 31.2432 27.3526C31.2432 27.3526 30.985 28.3758 30.9881 28.7412C31.2845 28.8946 31.3529 28.754 31.3529 28.754C31.3529 28.754 31.4226 28.3415 31.8445 28.0863C32.2663 27.8311 32.9814 27.604 33.4964 26.0498C33.8703 24.4429 32.5629 24.5877 32.5629 24.5877Z" fill="#CC8E7B"/>
<path d="M33.1307 24.2744C33.1025 24.1408 33.7157 23.8978 33.9784 24.5582C34.2411 25.2186 33.7769 24.8688 33.6562 24.6898C33.5354 24.5109 33.1589 24.408 33.1307 24.2744Z" fill="#CC8E7B"/>
<path d="M32.8117 28.162L32.2618 28.8635L31.972 28.7679L32.7404 27.7564L32.8117 28.162Z" fill="#CC8E7B"/>
<path d="M11.3008 27.7156C11.4027 28.2045 11.6246 29.2119 11.978 30.0511C12.3315 30.8904 12.9845 31.6549 13.9852 32.4412C14.9858 33.2276 15.5076 33.2128 16.9793 34.1168C18.2007 34.8677 18.3903 35.5278 21.0139 36.0078C23.1396 35.459 23.2498 35.1732 24.785 34.4874C26.0397 33.9514 28.0357 32.9703 28.7249 32.2584C29.414 31.5464 29.8555 30.9945 30.2291 30.0511C30.6026 29.1078 30.8572 28.1394 30.8572 28.1394C30.8572 28.1394 30.3667 28.7827 29.9193 29.3753C29.3299 30.156 28.7148 29.9128 27.7167 31.0349C26.7187 32.1569 26.7699 33.2294 25.0622 33.2562C24.9822 32.5824 24.9369 32.1362 24.232 31.6193C23.5271 31.1024 23.5579 31.0485 23.2765 30.8989C23.0322 30.7687 22.7805 30.7783 22.5716 30.8989C22.1643 31.1339 22.1438 31.1182 21.1461 31.1182C20.1483 31.1182 20.413 31.1307 19.8459 30.8989C19.2788 30.667 18.859 30.8989 18.859 30.8989C18.859 30.8989 18.2638 31.353 17.8565 31.6976C17.4492 32.0423 16.876 32.2927 16.9793 33.2562C15.8779 33.0503 14.839 31.2753 13.9852 30.5375C13.1313 29.7996 12.7316 29.9576 12.1612 29.2298C11.5907 28.5021 11.669 28.1262 11.3008 27.7156Z" fill="#160C0B" stroke="#060201" stroke-width="0.03"/>
<path d="M19.8722 32.7735L22.1376 32.8236C22.1376 32.8236 22.8107 34.3602 22.9904 34.5114C23.184 34.5239 23.8614 34.184 24.2347 33.7053V32.9496C24.2347 32.9496 24.2918 31.9927 21.7462 31.9798C21.5785 31.8866 21.4669 32.1362 21.0936 32.1362C20.7203 32.1362 20.5434 31.7782 20.253 31.9798C19.9485 31.9798 17.7783 32.1433 17.7783 32.8236V33.7053C17.7783 33.7053 18.6424 34.5806 19.0779 34.5114C19.284 34.4786 19.8722 32.7735 19.8722 32.7735Z" fill="#CD9D8D" stroke="#707070" stroke-width="0.03"/>
<path d="M17.5547 32.073C17.5547 32.073 18.6187 31.237 18.7251 31.0698" stroke="#331C1A" stroke-width="0.03"/>
<path d="M17.5547 32.3547L18.6982 31.2439C18.6982 31.2439 17.9148 32.3078 17.9265 32.4715C18.0785 32.2845 18.441 31.5245 18.9671 31.3725" stroke="#331C1A" stroke-width="0.03"/>
<path d="M24.4487 32.0232C24.4487 32.0232 23.3283 31.2635 23.2104 31.104" stroke="#331C1A" stroke-width="0.03"/>
<path d="M24.4688 32.3043L23.2498 31.2759C23.2498 31.2759 24.1061 32.2828 24.1059 32.447C23.9411 32.271 23.5262 31.5379 22.9904 31.423" stroke="#331C1A" stroke-width="0.03"/>
<path d="M19.1094 31.3493L19.4484 31.1038" stroke="#331C1A" stroke-width="0.03"/>
<path d="M19.2856 31.443L19.7124 31.1858" stroke="#331C1A" stroke-width="0.03"/>
<path d="M19.4609 31.5717L19.8234 31.2793" stroke="#331C1A" stroke-width="0.03"/>
<path d="M19.7275 31.5715L20.0783 31.2908" stroke="#331C1A" stroke-width="0.03"/>
<path d="M20.1387 31.5718L20.4076 31.3145" stroke="#331C1A" stroke-width="0.03"/>
<path d="M22.8029 31.445L22.4639 31.1995" stroke="#331C1A" stroke-width="0.03"/>
<path d="M22.6255 31.5382L22.1987 31.281" stroke="#331C1A" stroke-width="0.03"/>
<path d="M22.4508 31.6672L22.0884 31.3748" stroke="#331C1A" stroke-width="0.03"/>
<path d="M22.1843 31.6672L21.8335 31.3865" stroke="#331C1A" stroke-width="0.03"/>
<path d="M21.7733 31.6673L21.5044 31.4099" stroke="#331C1A" stroke-width="0.03"/>
<path d="M22.3288 34.7003L21.943 34.9108L22.4575 34.7003C22.4575 34.7003 22.3405 34.9342 22.3288 34.9108C22.3171 34.8873 22.5393 34.8056 22.5393 34.8056L22.3288 35.0745L22.6796 34.9108L21.943 35.4837C21.943 35.4837 22.551 35.2733 22.4575 35.3084C22.3639 35.3434 21.7559 35.7059 21.791 35.6825C21.8261 35.6591 23.463 34.9108 23.463 34.9108L22.5393 35.2265L23.1005 34.9108L22.5861 35.0745C22.5861 35.0745 23.7436 34.4198 23.8839 34.2561C23.8021 34.373 23.463 34.7003 23.463 34.7003L24.4334 33.9404L23.8839 34.5834C23.8839 34.5834 24.7608 33.9754 24.7959 33.8468C24.831 33.7182 24.8894 33.1804 24.8894 33.1804V33.8468L24.3867 34.4197L24.8894 34.0807L24.4334 34.5834" stroke="#331C1A" stroke-width="0.03"/>
<path d="M20.4097 34.8686L20.2344 34.5529C20.2344 34.5529 20.2461 34.9856 20.3162 35.0791C20.3864 35.1727 20.1292 34.7985 20.1292 34.7985L20.2344 35.2311L19.8836 34.8686L20.0824 35.2311L19.0769 34.5529L19.6498 35.0791C19.6498 35.0791 18.9249 34.7751 18.7846 34.6114C18.9015 34.8686 19.4861 35.2895 19.4861 35.2895C19.4861 35.2895 18.539 34.857 18.235 34.3074C18.2233 34.5296 19.0769 35.2311 19.0769 35.2311L18.1064 34.4243L18.7845 35.0791L17.8726 34.3776L18.2935 34.8686" stroke="#331C1A" stroke-width="0.03"/>
<path d="M14.9533 32.2677L14.8521 32.4487L14.7453 31.9824C14.7453 31.9824 14.6041 32.3024 14.5982 32.41C14.5923 32.5177 14.4338 31.6646 14.4338 31.6646L14.3891 32.456L14.2258 31.6895L14.2321 32.3544L13.9213 31.2665L14.015 31.9824C14.015 31.9824 13.6804 31.3251 13.6783 31.1259C13.608 31.3749 13.7728 32.0258 13.7728 32.0258C13.7728 32.0258 13.4872 31.1961 13.5989 30.6305C13.4579 30.7759 13.3154 31.5797 13.3154 31.5797L13.3021 30.6045L12.9614 31.1824L12.8817 30.345L12.6831 30.7442" stroke="#30201D" stroke-width="0.03"/>
<path d="M27.3543 32.3635L27.4555 32.5444L27.5623 32.0783C27.5623 32.0783 27.7035 32.3982 27.7094 32.5058C27.7153 32.6134 27.8736 31.7605 27.8736 31.7605L27.9185 32.5517L28.0816 31.7852L28.0754 32.4501L28.386 31.3623L28.2924 32.0781C28.2924 32.0781 28.6268 31.4209 28.6289 31.2216C28.6993 31.4706 28.5346 32.1214 28.5346 32.1214C28.5346 32.1214 28.82 31.2918 28.7082 30.7263C28.8491 30.8717 28.9918 31.6753 28.9918 31.6753L29.0049 30.7003L29.3456 31.278L29.4252 30.4407L29.6238 30.8397" stroke="#30201D" stroke-width="0.03"/>
<path d="M17.3628 33.6782L17.7871 34.1423L17.2025 33.7495L17.6969 34.2849L17.0742 33.8066L17.7006 34.4369" stroke="#331C1A" stroke-width="0.03"/>
<path d="M20.2749 34.1663L20.5298 33.5227L20.5841 33.8528L20.6886 33.5896L20.7638 33.9531L20.8725 33.6272L20.9644 34.0032L21.0814 33.6105L21.1942 34.0283L21.3154 33.5896L21.399 33.8528L21.4616 33.5603L21.7458 34.1663" stroke="#331C1A" stroke-width="0.03"/>
<path d="M14.0068 20.1344C14.0068 20.1344 14.3557 19.9251 16.1348 20.4483C18.5419 20.553 19.3093 20.7971 19.3093 20.7971" stroke="#A16855" stroke-width="0.03"/>
<path d="M18.542 21.1812L20.6002 21.5649" stroke="#A16855" stroke-width="0.03"/>
<path d="M24.1577 21.3726C24.1577 21.3726 27.2275 20.7272 28.2741 20.0295" stroke="#A16855" stroke-width="0.03"/>
<path d="M24.9537 19.5425C24.256 19.4029 26.605 19.0979 26.605 19.0979C26.605 19.0979 25.6514 19.682 24.9537 19.5425Z" fill="#A06754"/>
<path d="M18.542 22.6462C18.542 22.6462 22.9724 23.0997 24.0189 22.8555" stroke="#985D4B" stroke-width="0.03"/>
<path d="M24.6816 22.8208C25.9685 22.5068 27.2282 22.1928 27.7864 21.844" stroke="#9B5E4C" stroke-width="0.03"/>
<path d="M8.44948 23.8312C8.03306 24.405 6.012 17.5975 7.59929 11.7927C8.77689 11.1238 9.10615 11.0909 9.58091 10.678C10.0557 10.2652 10.5097 9.60467 10.84 9.06799C9.80792 8.77899 9.41573 8.55194 9.41573 8.55194C9.41573 8.55194 15.0251 3.739 24.3218 4.01112C25.8637 4.14717 28.189 5.06484 28.7207 6.77746C28.9017 7.58184 28.9636 8.75842 28.9636 8.75842L29.5003 8.42815C29.5003 8.42815 32.2584 8.31951 34.3898 13.444C35.2515 15.3487 34.9341 15.8023 34.9341 15.8023C34.9341 15.8023 34.6619 20.3826 34.1177 22.2873C33.5735 24.192 32.3159 24.085 31.2425 27.6808C30.8132 28.5126 30.7864 28.2175 30.7864 28.2175L31.9403 24.3265L31.4036 23.3068C31.4036 23.3068 32.3428 13.7001 28.1298 15.659C26.2971 16.5111 24.6715 17.6209 21.6059 17.503C18.2455 17.3851 16.6147 15.1678 15.4155 14.9679C13.2931 14.6141 11.4066 16.2059 11.4066 18.7999C11.4066 21.394 10.7581 22.071 11.4066 24.3265C10.4275 24.7559 10.6133 24.7353 10.6133 24.7353C10.6133 24.7353 11.0439 27.2742 11.4066 27.8935C10.8404 27.2123 10.1386 25.1565 10.056 23.8312C9.31286 23.6 8.86593 23.2575 8.44948 23.8312Z" fill="#160C0B" stroke="#0B0505" stroke-width="0.03"/>
<path d="M22.5745 17.3497C22.5745 17.3497 25.0701 14.049 21.7963 10.4264C21.3402 10.1044 17.1563 11.065 17.5646 19.6467C16.4832 17.1886 15.9774 11.9023 20.6485 9.68021C25.5463 8.27435 24.1858 17.2643 23.1881 17.3497C22.1904 17.4351 22.5745 17.3497 22.5745 17.3497Z" fill="#060201"/>
<path d="M15.124 20.5886C14.9203 19.8481 14.118 9.40465 22.0399 8.95089C23.8688 8.95089 24.967 11.0769 24.3185 15.4986C27.6199 11.5486 24.908 7.65755 23.0804 7.24486C21.2528 6.83216 17.9292 7.89609 15.8289 10.8411C13.7287 13.7861 13.2808 18.9411 15.124 20.5886Z" fill="#060201"/>
<path d="M17.4759 19.238C16.0805 14.9821 17.3575 11.6935 20.4965 9.91406C18.6133 11.7981 16.7084 13.7263 17.4759 19.238Z" fill="#745754"/>
<path d="M22.937 8.3877C21.9602 8.56212 19.7435 8.63727 18.3132 9.99775C18.3345 9.96257 18.2755 10.056 18.3132 9.99775C19.3372 8.40949 22.2881 8.42184 22.937 8.3877V8.3877Z" fill="#160C0B"/>
<path d="M24.3418 15.6621C24.7434 14.7547 25.9207 12.875 25.5926 10.9285C25.6098 10.9658 25.5654 10.8647 25.5926 10.9285C26.3367 12.6656 24.6763 15.105 24.3418 15.6621Z" fill="#160C0B"/>
<path d="M22.8312 17.4124C23.1847 16.4853 24.262 14.5465 23.8325 12.6198C23.8517 12.6561 23.802 12.5575 23.8325 12.6198C24.6665 14.3156 23.1361 16.8386 22.8312 17.4124Z" fill="#160C0B"/>
<path d="M16.3442 12.1467C16.5884 10.542 18.228 8.34422 19.9722 7.96052C21.7165 7.57677 22.2746 7.61167 22.2746 7.61167C22.2746 7.61167 17.8997 8.49035 16.3442 12.1467Z" fill="#160C0B"/>
<path d="M17.636 9.53115C17.7407 9.2166 17.636 8.97241 17.636 8.97241C17.636 8.97241 12.3336 13.1237 14.6011 19.5424C14.0778 14.7981 14.5662 12.4621 17.636 9.53115Z" fill="#745754"/>
<path d="M7 15.7399L11.1173 21.053L7 15.23C7 15.23 11.2783 20.8384 11.1173 20.6237C10.9563 20.409 7 14.8812 7 14.8812C7 14.8812 11.654 20.8384 11.1173 20.3554C10.5807 19.8724 7.14588 14.6665 7.14588 14.6665L11.1173 19.8723L7.14588 14.2103L11.1173 19.6308L7.2532 13.8615L11.1173 19.3893L7.2532 13.4053" stroke="#8F7C78" stroke-width="0.03"/>
<path d="M9.50792 22.878L7.30753 19.9262L8.83705 21.5899L7.30753 19.5773L9.21275 21.5899L7.30753 18.4235L9.21275 21.3752L7.17334 17.5111L10.7155 22.4754C10.7155 22.4754 8.0857 20.7581 7.17334 16.4109" stroke="#442F2B" stroke-width="0.03"/>
<path d="M31.6187 21.4017C31.6187 21.4017 34.651 17.4302 34.8656 16.8935C35.0803 16.3569 31.7797 20.9455 31.7797 20.9455L34.9998 16.0348L31.6187 20.6772C31.6187 20.6772 34.973 16.0348 34.9998 15.2567C35.0267 14.4785 31.7797 20.2747 31.7797 20.2747C31.7797 20.2747 34.7851 15.0152 34.8656 14.9078C34.9461 14.8005 31.7797 20.0063 31.7797 20.0063C31.7797 20.0063 34.7315 14.8541 34.7315 14.5858C34.7315 14.3175 31.726 20.0063 31.7797 19.8722C31.8333 19.738 34.2753 15.4981 34.3558 13.9954C34.4363 12.4927 33.4971 17.0814 32.9067 17.5107" stroke="#8F7C78" stroke-width="0.03"/>
<path d="M33.3095 19.6467L34.7317 17.833L33.6314 19.6467C33.6314 19.6467 34.5974 18.7355 34.5438 18.7086C34.4901 18.6818 33.524 20.9458 31.8066 21.7508C33.0947 21.402 34.5438 19.6467 34.5438 19.6467C34.5438 19.6467 32.9069 21.885 31.9945 22.2338C32.397 22.4217 34.4365 20.4896 34.4365 20.4896L31.9945 22.6363L34.3291 20.8116L33.0678 22.2338L34.0071 21.4557L33.0678 22.6363L33.8997 22.2338L32.719 23.2267L33.8997 22.6363" stroke="#442F2B" stroke-width="0.03"/>
<path d="M8.56836 12.9031C8.7426 13.7468 10.3931 15.2645 12.1105 15.1572C10.8761 14.6742 9.34656 13.9765 8.56836 12.9031Z" fill="#060201" stroke="#060201" stroke-width="0.03"/>
<path d="M8.05518 13.5786C8.18538 14.4306 9.7553 16.0326 11.4765 16.0146C10.2685 15.4679 8.77676 14.6914 8.05518 13.5786Z" fill="#060201" stroke="#060201" stroke-width="0.03"/>
<path d="M9.93629 12.8307C9.74258 12.723 11.523 14.2494 11.9732 14.2188C11.9017 13.8573 12.0892 13.8904 11.8455 13.7372C11.3363 13.3902 10.13 12.9384 9.93629 12.8307Z" fill="#060201" stroke="#060201" stroke-width="0.03"/>
<path d="M9.3999 12.0099C12.2175 11.5537 13.4251 11.3658 15.0351 10.5876C16.028 10.7487 13.3982 11.6879 13.3982 11.6879C13.3982 11.6879 9.99025 12.5197 9.3999 12.0099Z" fill="#060201" stroke="#060201" stroke-width="0.03"/>
<path d="M12.5933 12.6541C12.5933 12.6541 14.1497 12.3589 14.6059 11.688C15.1963 11.527 14.9548 12.01 14.7401 12.2247C14.5254 12.4394 13.5325 13.0029 12.8885 12.9492C12.2445 12.8956 12.5933 12.6541 12.5933 12.6541Z" fill="#060201" stroke="#060201" stroke-width="0.03"/>
<path d="M11.4663 11.2319C12.4055 10.9099 14.2302 10.5878 14.7132 10.2122C15.1962 9.83652 14.7132 10.5073 14.7132 10.5073C14.7132 10.5073 11.9761 11.6344 11.4663 11.2319Z" fill="#060201" stroke="#060201" stroke-width="0.03"/>
<path d="M12.1104 10.7081C12.7007 10.2387 14.2303 9.67523 14.928 8.95068C15.3037 9.29952 14.7938 9.40685 14.7938 9.40685C14.7938 9.40685 12.8349 10.748 12.1104 10.7081Z" fill="#060201" stroke="#060201" stroke-width="0.03"/>
<path d="M10.0986 10.5878C10.0986 10.5878 13.6139 8.441 15.1435 8.25317C13.6139 9.27286 10.0986 10.5878 10.0986 10.5878Z" fill="#060201" stroke="#060201" stroke-width="0.03"/>
<path d="M13.7373 10.3325C13.7373 10.3325 17.1119 8.90222 17.4607 8.58826C17.8095 8.27429 17.1467 9.28593 16.2398 9.59989C15.3328 9.91385 13.7373 10.3325 13.7373 10.3325Z" fill="#060201" stroke="#060201" stroke-width="0.03"/>
<path d="M13.5464 9.85348C13.5464 9.85348 16.9209 8.42322 17.2698 8.10925C17.6186 7.79529 16.9558 8.80693 16.0488 9.12088C15.1419 9.43484 13.5464 9.85348 13.5464 9.85348Z" fill="#060201" stroke="#060201" stroke-width="0.03"/>
<path d="M13.5464 9.37423C13.5464 9.37423 16.9209 7.94397 17.2698 7.63C17.6186 7.31604 16.9558 8.32768 16.0488 8.64164C15.1419 8.9556 13.5464 9.37423 13.5464 9.37423Z" fill="#060201" stroke="#060201" stroke-width="0.03"/>
<path d="M12.499 7.89108C12.499 7.89108 16.0656 6.87942 17.9145 6.18172C19.7634 5.48401 24.1203 4.77305 25.751 7.53906C27.3817 10.3051 26.9147 12.147 25.8682 14.4494C24.8217 16.7518 23.8798 17.275 23.8798 17.275" stroke="#060201" stroke-width="0.03"/>
<path d="M12.2114 8.65756C12.2114 8.65756 15.778 7.64593 17.6269 6.94821C19.4758 6.25049 23.5009 6.36236 24.8426 7.86922C26.1843 9.37604 26.9029 12.2408 25.8212 14.5427C24.7395 16.8446 23.9117 17.2864 23.9117 17.2864" stroke="#060201" stroke-width="0.03"/>
<path d="M25.6591 15.2863C25.6591 15.2863 28.3104 11.8676 28.2406 8.90237C28.1708 5.93713 24.8568 4.43714 23.88 4.61156C22.9032 4.78597 18.3683 4.47202 12.9263 7.33257" stroke="#060201" stroke-width="0.03"/>
<path d="M26.4917 14.9297C26.4917 14.9297 29.2176 10.5072 28.206 6.98388C27.1944 3.46054 21.3686 4.4024 21.3686 4.4024C21.3686 4.4024 16.6243 5.13499 14.2173 6.28617" stroke="#060201" stroke-width="0.03"/>
<path d="M22.3456 15.2865C22.1135 13.351 21.0898 11.2748 20.427 10.9958C19.7642 10.7167 21.6479 10.8213 22.1014 12.9842C22.5549 15.147 22.3456 15.2865 22.3456 15.2865Z" fill="#040402"/>
<path d="M21.4293 16.4949C21.4293 16.4949 21.4134 12.3824 20.0161 11.4456C21.0165 11.652 21.588 13.2716 21.6357 13.9543C21.6834 14.6371 21.4293 16.4949 21.4293 16.4949Z" fill="#040402"/>
<path d="M21.0488 16.7646C21.0488 16.7646 21.4299 12.8903 19.3975 12.2234C19.6991 12.9062 20.4614 12.9697 21.0488 16.7646Z" fill="#040402"/>
<path d="M20.419 16.575C20.419 16.575 20.3702 14.3032 19.4053 13.155C20.2603 13.6558 20.5901 15.3291 20.6145 15.9032C20.6389 16.4773 20.419 16.575 20.419 16.575Z" fill="#040402"/>
<path d="M20.1507 16.2821C20.1996 17.4547 19.8698 14.3401 18.8072 13.6317C17.7446 12.9232 18.7705 13.0087 18.9904 13.2897C19.2103 13.5706 20.1019 15.1096 20.1507 16.2821Z" fill="#040402"/>
<path d="M19.7599 16.5878C19.7237 16.4274 19.4703 15.3899 18.6739 14.1812C17.8775 12.9726 18.7282 13.8497 18.7282 13.8497C18.7282 13.8497 19.1717 14.2133 19.4341 14.9086C19.6965 15.6038 19.7599 16.5878 19.7599 16.5878Z" fill="#040402"/>
<path d="M26.6819 12.3041C26.6819 12.3041 28.3145 9.09097 26.3191 6.59672C24.3237 4.10248 18.6096 4.91878 12.8501 7.41304" stroke="#060201" stroke-width="0.03"/>
<path d="M29.6706 13.0835C29.9846 13.0189 32.0079 13.9608 32.0079 13.9608L30.2288 13.8212C30.2288 13.8212 28.1357 13.8212 25.31 16.5771C24.8914 17.1004 24.3682 17.205 24.3682 17.205C24.3682 17.205 26.3915 14.9724 27.1589 14.4143C27.9264 13.8561 29.3567 13.1481 29.6706 13.0835Z" fill="#0F0607" stroke="#060201" stroke-width="0.03"/>
<path d="M30.9526 14.279C31.2534 14.278 32.9969 15.3751 32.9969 15.3751L31.365 14.9699C31.365 14.9699 29.4216 14.6266 26.4025 16.4021C25.9387 16.7586 25.4378 16.7578 25.4378 16.7578C25.4378 16.7578 27.6369 15.2758 28.4296 14.9482C29.2222 14.6206 30.6519 14.28 30.9526 14.279Z" fill="#0F0607" stroke="#060201" stroke-width="0.03"/>
<path d="M27.4028 13.5419C27.4028 13.5419 29.2168 11.5535 30.6471 11.9721C32.0774 12.3907 33.2286 13.5419 33.2286 13.5419C33.2286 13.5419 32.0773 11.2046 30.3681 11.2046C28.6587 11.2046 27.4028 13.5419 27.4028 13.5419Z" fill="#0F0607" stroke="#060201" stroke-width="0.03"/>
<path d="M27.9272 11.7216C27.9272 11.7216 29.4371 9.73314 30.6276 10.1518C31.8181 10.5704 32.7763 11.7216 32.7763 11.7216C32.7763 11.7216 31.8181 9.38428 30.3953 9.38428C28.9726 9.38428 27.9272 11.7216 27.9272 11.7216Z" fill="#0F0607" stroke="#060201" stroke-width="0.03"/>
<path d="M18.9897 32.1594C18.9897 32.1594 20.0227 33.1641 21.1265 33.0934C22.2302 33.0226 23.1217 32.3009 23.1217 32.3009C23.1217 32.3009 22.202 31.8744 21.8113 31.907C21.4207 31.9396 21.3999 32.0932 21.1265 32.0932C20.853 32.0932 20.8869 31.9494 20.42 31.907C19.953 31.8646 18.9897 32.1594 18.9897 32.1594" fill="#975F50"/>
<path d="M19.0132 32.2151L20.2774 32.3586C20.2774 32.3586 20.6759 32.4918 21.1064 32.4918C21.5369 32.4918 21.6506 32.3761 22.0191 32.3586C22.3875 32.341 23.136 32.3586 23.136 32.3586" stroke="#5A2B19" stroke-width="0.03"/>
<path d="M22.514 27.6592C22.6212 27.7287 23.3341 27.655 23.5406 27.7026C23.747 27.7502 27.2144 28.2995 28.3989 27.7026C29.5834 27.1057 29.1559 25.6645 28.9971 25.5179C28.8383 25.3713 24.9908 25.298 24.1847 26.0065C23.3785 26.7149 22.4068 27.5897 22.514 27.6592Z" fill="white"/>
<path d="M24.3613 26.243C24.3247 26.7814 24.6039 27.3861 24.8643 27.733C24.8838 27.7549 24.9973 27.8828 25.0161 27.8991C25.3414 27.9424 25.7824 27.9928 26.2016 27.9926C26.7365 27.9995 26.8594 28.0067 27.3533 27.9559C27.7655 27.5803 27.9896 26.9666 28.009 26.4338C28.0243 26.1466 27.9797 25.8594 27.8781 25.5905L27.8581 25.5409C27.8432 25.5035 27.8184 25.4419 27.8006 25.4061L27.7544 25.3887C27.4737 25.365 27.1925 25.3999 26.9117 25.4164C26.2518 25.4569 25.6002 25.5179 24.969 25.6928C24.7739 25.7474 24.6001 25.85 24.4566 25.9039L24.405 25.9225C24.3964 25.9621 24.3885 26.0068 24.3828 26.0448C24.3811 26.0578 24.3804 26.0708 24.3807 26.0839C24.3689 26.1318 24.3642 26.1869 24.3613 26.243Z" fill="url(#paint0_linear)"/>
<path d="M25.007 26.3474L25.0064 26.3596C25.0023 26.4398 25.0084 26.5203 25.0245 26.599C25.1378 27.0921 25.6062 27.455 26.1593 27.478C26.8132 27.5236 27.3782 27.0793 27.4211 26.4859C27.4337 26.239 27.3479 25.9952 27.1794 25.7993C27.1659 25.7831 27.1515 25.7669 27.1362 25.7514C27.092 25.7054 27.0441 25.6631 26.9929 25.6251C26.3645 25.6634 25.7418 25.7672 25.135 25.9349C25.1193 25.9626 25.1044 25.9903 25.0912 26.0189L25.076 26.0539C25.0371 26.1479 25.0141 26.2476 25.0078 26.3491L25.007 26.3474Z" fill="#040807"/>
<path d="M27.1479 25.7205C27.2822 25.6121 27.4515 25.632 27.5262 25.765C27.6008 25.898 27.5525 26.0936 27.4182 26.202C27.2839 26.3104 27.1145 26.2905 27.0399 26.1575C26.9653 26.0245 27.0136 25.8289 27.1479 25.7205Z" fill="#DAE6F4"/>
<path d="M22.2041 27.8173C22.2041 27.8173 22.9823 26.5829 23.8947 26.0462C24.8071 25.5095 23.1334 26.4049 23.1334 26.4049L23.7205 25.9576C23.7205 25.9576 25.5152 24.8171 29.7071 25.5633C30.0247 25.7062 30.2153 25.7539 29.2149 25.7221C29.3787 25.8778 29.3586 26.0847 29.5819 26.3496C29.8051 26.6146 29.9307 26.6954 30.108 26.7818C30.4744 26.9604 30.1369 27.1186 29.9201 26.9379C29.7033 26.7572 29.3737 26.4049 29.3737 26.4049C29.3737 26.4049 29.6277 26.8495 28.6115 27.6276C28.3892 27.7863 28.3416 27.7228 28.548 27.5164C28.7544 27.3099 29.1216 26.8678 29.1196 26.6907C29.1176 26.5136 29.421 25.4044 27.7697 25.5155C26.1183 25.6267 24.8651 25.5923 24.2458 26.0462C23.6266 26.5002 22.5259 27.6276 22.5259 27.6276C22.5259 27.6276 23.0504 27.5951 23.3997 27.6745C23.749 27.7539 22.2041 27.8173 22.2041 27.8173Z" fill="#211006" stroke="#181216" stroke-width="0.03"/>
<path d="M23.3555 27.6913C23.3555 27.6913 25.0863 25.1507 29.1671 26.3575C29.1353 25.6906 28.6589 25.5 28.4367 25.5C28.2144 25.5 25.0863 25.2142 24.1018 26.0081C23.1174 26.8021 22.4346 27.6913 22.4346 27.6913L23.3555 27.6913Z" fill="black" fill-opacity="0.15"/>
<path d="M18.9059 27.7489C18.4555 27.6505 17.9965 27.5968 17.5356 27.5886C17.3924 27.6141 17.2477 27.6299 17.1024 27.6361H17.0287C16.837 27.646 16.6089 27.649 16.3703 27.646C15.8452 27.646 15.2492 27.6084 14.7413 27.5559L14.6713 27.5509C14.2027 27.5004 13.8213 27.4311 13.6603 27.3529C13.6267 27.3406 13.5985 27.3167 13.5808 27.2856C13.485 27.0876 13.1141 26.2539 13.1237 25.8688C13.1233 25.8315 13.1292 25.7943 13.1409 25.7589V25.75C13.2512 25.445 13.4591 24.8589 13.8702 24.8381H14.3052C14.5151 24.8461 14.7777 24.8629 15.0719 24.8906C15.7637 24.9579 16.6051 25.0886 17.2424 25.3421C17.4136 25.407 17.5774 25.4899 17.7311 25.5896C17.7493 25.6015 17.7665 25.6134 17.7828 25.6262C17.8376 25.665 17.8892 25.7081 17.9371 25.7549C18.307 26.0866 18.8082 27.3103 18.9059 27.7489Z" fill="#FBFDFF"/>
<path d="M17.797 25.952C17.806 26.5309 17.5822 27.0911 17.1713 27.5178C17.1501 27.5402 17.1277 27.5616 17.1042 27.5816C17.086 27.599 17.0668 27.6163 17.0467 27.6327H16.9691C16.6817 27.6536 16.3874 27.6484 16.0822 27.6484H16.0316C15.5064 27.6484 15.1608 27.5998 14.6529 27.5515C14.2515 27.126 14.0516 26.5239 14.0598 25.952C14.0591 25.6445 14.1197 25.3399 14.238 25.056L14.261 25.004C14.2783 24.9648 14.3068 24.9003 14.327 24.8629L14.375 24.8469C14.663 24.8371 14.9486 24.8903 15.2346 24.9237C15.9068 25.0041 16.5694 25.1059 17.2051 25.3287C17.4016 25.398 17.5738 25.5177 17.7175 25.5834L17.7693 25.6062C17.776 25.6491 17.7817 25.6974 17.7855 25.7385C17.7865 25.7525 17.7865 25.7665 17.7855 25.7805C17.7952 25.8325 17.797 25.8918 17.797 25.952Z" fill="url(#paint1_linear)"/>
<path d="M17.3178 25.9438V25.9582C17.3178 26.0527 17.3068 26.147 17.2852 26.239C17.2132 26.5177 17.0499 26.7642 16.8212 26.9392C16.5926 27.1141 16.312 27.2073 16.0241 27.204C15.3228 27.2173 14.7436 26.6595 14.7305 25.9582C14.7307 25.6667 14.8358 25.3851 15.0266 25.1648C15.0419 25.1466 15.0582 25.1283 15.0754 25.1111C15.1247 25.06 15.1782 25.0132 15.2355 24.9712C15.9077 25.0556 16.568 25.2163 17.2038 25.4503C17.2191 25.4839 17.2335 25.5174 17.2459 25.5519L17.2603 25.5941C17.2968 25.7078 17.3158 25.8263 17.3169 25.9458L17.3178 25.9438Z" fill="#040807"/>
<path d="M17.2479 26.2214C17.3694 26.0815 17.3707 25.8837 17.2508 25.7796C17.131 25.6754 16.9353 25.7043 16.8138 25.8442C16.6923 25.984 16.6909 26.1818 16.8108 26.286C16.9307 26.3902 17.1264 26.3612 17.2479 26.2214Z" fill="#DDE7F3"/>
<path d="M13.1994 25.6619C13.1994 25.6619 13.1879 25.8219 13.3824 26.486C13.4651 26.8057 13.58 27.1162 13.7255 27.4126L13.3249 27.0581L13.0049 25.8679L13.1994 25.6619Z" fill="#211006" stroke="#181216" stroke-width="0.03"/>
<path d="M19.0527 27.8149C18.471 27.5322 17.4738 27.6409 17.0568 27.6298C17.8296 27.6131 18.3553 27.4633 18.7802 27.502C18.4257 26.6328 18.1538 26.2443 17.9593 25.8092C17.9098 25.748 17.8525 25.6935 17.7887 25.6473C17.7727 25.634 17.7561 25.6215 17.7389 25.6099C17.589 25.5117 17.4282 25.4313 17.2597 25.3703C16.6206 25.1298 15.7265 25.0072 15.026 24.9449C14.7385 24.92 14.4836 24.9046 14.2881 24.895H14.2373C14.0246 24.8855 13.8962 24.8835 13.8962 24.8835C13.8962 24.8835 13.5359 25.3387 13.2043 25.7393L13.1267 25.8351C13.0941 25.8754 13.0615 25.9137 13.0309 25.9511C12.9437 26.0536 12.8651 26.1427 12.8028 26.2107C12.477 26.5538 12.9696 25.5237 13.2561 25.0321C12.6476 25.0206 12.5 24.7915 12.5 24.7915H13.7592L13.0385 24.4025C13.0385 24.4025 13.1526 24.3019 14.1022 24.7341C14.1731 24.7264 14.2441 24.7206 14.3169 24.7178H14.3715C14.6595 24.7075 14.9479 24.72 15.234 24.7551C15.9061 24.8395 16.5665 25.0003 17.2023 25.2343C17.3987 25.3071 17.5731 25.379 17.7169 25.448L17.7686 25.4719C17.8661 25.5188 17.9599 25.573 18.0494 25.6339C18.5314 25.9702 18.8763 27.3894 19.0527 27.8149Z" fill="#211006" stroke="#181216" stroke-width="0.03"/>
<path d="M18.2916 27.517C17.8885 27.3338 17.2961 24.2379 13.244 26.1431C12.9756 25.5259 13.0535 25.7034 13.0535 25.7034L13.6837 24.8973C13.6837 24.8973 16.4808 24.6041 17.9587 25.7034C18.5816 26.7294 18.9237 27.6455 18.9237 27.6455C18.9237 27.6455 18.6947 27.7002 18.2916 27.517Z" fill="black" fill-opacity="0.15"/>
<path d="M22.1593 25.6771C22.1593 25.6771 23.2172 25.5041 24.4584 24.844C25.5832 24.2458 26.6576 23.252 27.5073 22.3594C28.307 22.3742 29.0401 22.3147 30.8894 24.0703C30.2563 23.9215 29.9231 23.4603 28.9068 23.5794C27.8905 23.6984 27.1075 23.7876 25.9412 24.7398C24.4918 25.692 22.8757 26.1234 21.8428 26.0639C21.9927 25.8556 22.1593 25.6771 22.1593 25.6771Z" fill="#1A0E10"/>
<path d="M27.6269 23.0284C27.8713 22.9907 28.7628 23.1139 28.7628 23.1139L27.7491 23.3093C27.7491 23.3093 27.3827 23.066 27.6269 23.0284Z" fill="#3B302E" fill-opacity="0.45"/>
<path d="M27.9912 23.468C27.9912 23.468 27.295 23.2359 26.9896 23.5657C26.6842 23.8955 27.9912 23.468 27.9912 23.468Z" fill="#3B302E" fill-opacity="0.45"/>
<path d="M26.6466 23.969C26.6466 23.969 25.3519 24.824 24.79 25.0072C25.1565 24.4209 26.6466 23.969 26.6466 23.969Z" fill="#463430" fill-opacity="0.3"/>
<path d="M23.8735 25.4101C23.8735 25.4101 25.2415 25.117 25.7423 24.6406C24.4232 25.0681 23.8735 25.4101 23.8735 25.4101Z" fill="#463430" fill-opacity="0.3"/>
<path d="M22.4639 25.7762C22.4639 25.7762 23.7585 25.7761 24.2593 25.2998C22.8791 25.5319 22.4639 25.7762 22.4639 25.7762Z" fill="#463430" fill-opacity="0.3"/>
<path d="M19.1934 25.3895C19.1934 25.3895 18.2487 25.2165 17.1403 24.5564C16.1359 23.9582 15.1764 22.9644 14.4176 22.0718C13.7035 22.0866 13.0489 22.0271 11.3975 23.7827C11.9628 23.6339 12.2604 23.1727 13.1679 23.2918C14.0755 23.4108 14.7747 23.5 15.8162 24.4522C17.1105 25.4044 18.5536 25.8358 19.4761 25.7763C19.3889 25.6424 19.2946 25.5132 19.1934 25.3895V25.3895Z" fill="#1A0E10"/>
<path d="M14.3961 22.7408C14.1519 22.7031 13.2603 22.8263 13.2603 22.8263L14.274 23.0217C14.274 23.0217 14.6404 22.7785 14.3961 22.7408Z" fill="#3B302E" fill-opacity="0.45"/>
<path d="M13.9443 23.1804C13.9443 23.1804 14.6405 22.9483 14.9459 23.2781C15.2512 23.6079 13.9443 23.1804 13.9443 23.1804Z" fill="#3B302E" fill-opacity="0.45"/>
<path d="M15.0679 23.6812C15.0679 23.6812 16.3626 24.5361 16.9244 24.7194C16.558 24.1331 15.0679 23.6812 15.0679 23.6812Z" fill="#463430" fill-opacity="0.3"/>
<path d="M17.7179 25.1223C17.7179 25.1223 16.3499 24.8291 15.8491 24.3528C17.1683 24.7802 17.7179 25.1223 17.7179 25.1223Z" fill="#463430" fill-opacity="0.3"/>
<path d="M18.8545 25.4891C18.8545 25.4891 17.5598 25.489 17.0591 25.0127C18.4392 25.2448 18.8545 25.4891 18.8545 25.4891Z" fill="#463430" fill-opacity="0.3"/>
</g>
<defs>
<filter id="filter0_d" x="0.984863" y="1.98511" width="40.0301" height="44.039" filterUnits="userSpaceOnUse" color-interpolation-filters="sRGB">
<feFlood flood-opacity="0" result="BackgroundImageFix"/>
<feColorMatrix in="SourceAlpha" type="matrix" values="0 0 0 0 0 0 0 0 0 0 0 0 0 0 0 0 0 0 127 0"/>
<feOffset dy="4"/>
<feGaussianBlur stdDeviation="3"/>
<feColorMatrix type="matrix" values="0 0 0 0 0 0 0 0 0 0 0 0 0 0 0 0 0 0 0.25 0"/>
<feBlend mode="normal" in2="BackgroundImageFix" result="effect1_dropShadow"/>
<feBlend mode="normal" in="SourceGraphic" in2="effect1_dropShadow" result="shape"/>
</filter>
<linearGradient id="paint0_linear" x1="25.8601" y1="25.766" x2="26.2989" y2="28.1697" gradientUnits="userSpaceOnUse">
<stop stop-color="#000302"/>
<stop offset="1" stop-color="#037147"/>
</linearGradient>
<linearGradient id="paint1_linear" x1="16.818" y1="28.5881" x2="17.5136" y2="26.114" gradientUnits="userSpaceOnUse">
<stop stop-color="#037147"/>
<stop offset="1" stop-color="#000302"/>
</linearGradient>
</defs>
</svg>
