<svg width="51" height="51" viewBox="0 0 51 51" fill="none" xmlns="http://www.w3.org/2000/svg">
<rect x="11.6338" width="29.5173" height="2.22772" rx="1.11386" fill="white"/>
<path d="M0.864014 50.6805L13.395 3.89832H39.0138L50.9878 50.6805H0.864014Z" fill="url(#paint0_linear)" fill-opacity="0.24"/>
<g filter="url(#filter0_d)">
<path d="M34.3097 26.6507L32.6793 25.3758C32.7 25.1792 32.7177 24.9493 32.7177 24.7062C32.7177 24.463 32.7007 24.2332 32.6793 24.0365L34.3112 22.7609C34.6143 22.5214 34.697 22.0964 34.5041 21.7424L32.8086 18.8089C32.6275 18.4778 32.2306 18.3078 31.8279 18.4564L29.904 19.2287C29.5352 18.9626 29.1486 18.738 28.7488 18.5584L28.4561 16.5177C28.4081 16.1304 28.071 15.8378 27.6727 15.8378H24.2729C23.8745 15.8378 23.5382 16.1304 23.4909 16.5118L23.1975 18.5599C22.8102 18.7343 22.4296 18.956 22.0445 19.2302L20.1155 18.4556C19.754 18.316 19.3216 18.4726 19.142 18.8023L17.4444 21.7394C17.2441 22.078 17.3268 22.5177 17.6365 22.7631L19.267 24.038C19.2411 24.2871 19.2285 24.5037 19.2285 24.7069C19.2285 24.9102 19.2411 25.1267 19.267 25.3765L17.635 26.6522C17.332 26.8924 17.25 27.3174 17.4429 27.6707L19.1384 30.6041C19.3195 30.9345 19.7126 31.106 20.1191 30.9567L22.043 30.1843C22.4111 30.4497 22.7976 30.6744 23.1975 30.8547L23.4902 32.8946C23.5382 33.2833 23.8745 33.576 24.2736 33.576H27.6734C28.0718 33.576 28.4088 33.2833 28.4561 32.902L28.7495 30.8547C29.1368 30.6795 29.5167 30.4585 29.9025 30.1836L31.8315 30.9581C31.9247 30.9943 32.0215 31.0128 32.1213 31.0128C32.408 31.0128 32.6719 30.8561 32.8049 30.6122L34.5078 27.6633C34.697 27.3174 34.6142 26.8924 34.3097 26.6507ZM25.9728 27.6633C24.3423 27.6633 23.0164 26.3373 23.0164 24.7069C23.0164 23.0765 24.3423 21.7505 25.9728 21.7505C27.6032 21.7505 28.9291 23.0765 28.9291 24.7069C28.9291 26.3373 27.6032 27.6633 25.9728 27.6633Z" fill="white"/>
</g>
<defs>
<filter id="filter0_d" x="11.3354" y="13.8378" width="29.2733" height="29.7382" filterUnits="userSpaceOnUse" color-interpolation-filters="sRGB">
<feFlood flood-opacity="0" result="BackgroundImageFix"/>
<feColorMatrix in="SourceAlpha" type="matrix" values="0 0 0 0 0 0 0 0 0 0 0 0 0 0 0 0 0 0 127 0"/>
<feOffset dy="4"/>
<feGaussianBlur stdDeviation="3"/>
<feColorMatrix type="matrix" values="0 0 0 0 0 0 0 0 0 0 0 0 0 0 0 0 0 0 0.25 0"/>
<feBlend mode="normal" in2="BackgroundImageFix" result="effect1_dropShadow"/>
<feBlend mode="normal" in="SourceGraphic" in2="effect1_dropShadow" result="shape"/>
</filter>
<linearGradient id="paint0_linear" x1="25.2179" y1="3.89832" x2="25.2179" y2="50.6805" gradientUnits="userSpaceOnUse">
<stop stop-color="#0085FF"/>
<stop offset="1" stop-color="#0085FF" stop-opacity="0"/>
</linearGradient>
</defs>
</svg>
