<svg xmlns="http://www.w3.org/2000/svg" width="40" height="40" viewBox="0 0 40 40">
  <g id="sound" transform="translate(-31.541 -41.102)">
    <g id="mute-bg" transform="translate(31.541 41.102)" fill="#100e0e" stroke="#fff" stroke-width="3">
      <circle cx="20" cy="20" r="20" stroke="none"/>
      <circle cx="20" cy="20" r="18.5" fill="none"/>
    </g>
    <g id="speaker" transform="matrix(0.998, -0.07, 0.07, 0.998, 41.032, 53.842)">
      <path id="speaker-2" data-name="speaker" d="M10777-4638.731l-6.731-2.217-1.656-6.547,4.929-4.842c.582-.574,1.216-.4,1.416.387l3.1,12.258c.159.633-.114,1.035-.634,1.035A1.364,1.364,0,0,1,10777-4638.731Zm-12.022-2.444-.937-3.754a1.5,1.5,0,0,1,1.088-1.808l2.645-.658,1.656,6.65-2.645.658a1.475,1.475,0,0,1-.363.045A1.488,1.488,0,0,1,10764.979-4641.175Zm18.435.368-4.858-1.689a.95.95,0,0,1-.587-1.212.949.949,0,0,1,1.21-.585l4.86,1.689a.949.949,0,0,1,.588,1.21.949.949,0,0,1-.9.642A.919.919,0,0,1,10783.414-4640.807Zm-6.325-5.216a.948.948,0,0,1,.7-1.15l5.2-1.3a.95.95,0,0,1,1.152.7.951.951,0,0,1-.692,1.153l-5.2,1.294a.952.952,0,0,1-.23.027A.951.951,0,0,1,10777.089-4646.023Zm-.39-2.555a.956.956,0,0,1-.049-1.348l3.5-3.771a.953.953,0,0,1,1.348-.048.953.953,0,0,1,.049,1.345l-3.5,3.77a.952.952,0,0,1-.7.306A.952.952,0,0,1,10776.7-4648.578Z" transform="translate(-10764 4654)" fill="#fff"/>
    </g>
  </g>
</svg>
