<svg xmlns="http://www.w3.org/2000/svg" xmlns:xlink="http://www.w3.org/1999/xlink" width="88.223" height="92.526" viewBox="0 0 88.223 92.526">
  <defs>
    <linearGradient id="linear-gradient" x1="0.5" x2="0.5" y2="1" gradientUnits="objectBoundingBox">
      <stop offset="0" stop-color="#740015"/>
      <stop offset="1" stop-color="#a5001e"/>
    </linearGradient>
    <linearGradient id="linear-gradient-3" x1="0.403" y1="0.177" x2="0.675" y2="1.023" gradientUnits="objectBoundingBox">
      <stop offset="0" stop-color="#000302"/>
      <stop offset="1" stop-color="#037147"/>
    </linearGradient>
    <linearGradient id="linear-gradient-4" x1="0.738" y1="1.335" x2="1.051" y2="0.5" gradientUnits="objectBoundingBox">
      <stop offset="0" stop-color="#037147"/>
      <stop offset="1" stop-color="#000302"/>
    </linearGradient>
  </defs>
  <g id="Aravinth" transform="translate(-24.672 0.054)">
    <g id="top" transform="translate(24.728 28.937)">
      <path id="top-2" data-name="top" d="M-676.45,3292.99c-4.249-4.37-15.375-13.618-24.6-15.813.988-6.589,12.392-39.871,46.727-39.871s41.016,37.118,41.387,43.242c-8.762,2.16-22.278,12.1-25.982,14.571s-8.707,5.067-8.707,5.067-4.224,3.445,1.169-6.367c-6.714-10.382-22.089-2.585-22.089-2.585s-1.109,1.74,1.88,5.77S-672.2,3297.361-676.45,3292.99Z" transform="translate(701.049 -3237.306)" fill="#a40224" stroke="#740317" stroke-width="0.1"/>
      <path id="graTop" d="M366.687,734.08l-22.535-17.953,4.086,1.857,1.238-1.857-1.238-2.848,2.1,1.375-3.715-6.948h.867l-.867-1.981,1.61,1.238V704.24l1.238,2.724s-1.857-4.581-1.238-4.7,24.268,30.459,24.268,30.459Z" transform="translate(-340.12 -679.464)" fill="url(#linear-gradient)"/>
      <path id="graTop-2" data-name="graTop" d="M2.818,31.36,29.591,13.868l-4.378,1.857-1.327-1.857,1.327-2.848L22.957,12.4l3.98-6.948h-.929l.929-1.981L25.213,4.706V1.981L23.886,4.706S25.876.124,25.213,0,0,30.054,0,30.054Z" transform="matrix(1, 0.017, -0.017, 1, 56.498, 25.48)" fill="url(#linear-gradient)"/>
      <path id="Path_3280" data-name="Path 3280" d="M-672.409,3392.92c.25.106,6.253,4.259,7.572,3.685-3.245-5.78-2.3-6.922-2.366-7.167-.179-.641-5.44,1.022-5.44,1.022l-24.753-19.049s-1.382,3.288-.936,4.031S-690.724,3374.856-672.409,3392.92Z" transform="translate(699.118 -3335.847)" fill="#b71d3d"/>
      <path id="Path_3281" data-name="Path 3281" d="M-691.071,3401.514c-.25.109-6.57,4.522-7.652,4.321,1.318-3.515,2.872-6.535,2.941-6.779.179-.641,4.946,0,4.946,0l26.744-15.946s1.025,1.959.579,2.7S-669.788,3386.681-691.071,3401.514Z" transform="translate(751.054 -3343.116)" fill="#b71d3d"/>
      <path id="top-r" d="M2.217.127C1.662,1.5.743,3.085.055,4.5S5.385,2.329,6.32.865C7.132-.453,6.85.127,2.217.127Z" transform="matrix(0.999, 0.035, -0.035, 0.999, 53.092, 57.105)" fill="#e1af53"/>
      <path id="top-l" d="M-499.383,3450.75a25.648,25.648,0,0,0,2.1,4.266c1.183,2.22-5.152-1.983-5.95-3.306C-503.927,3450.52-503.338,3450.75-499.383,3450.75Z" transform="translate(530.755 -3395.201)" fill="#e1af53"/>
    </g>
    <g id="face" transform="translate(38.364 29.893)">
      <path id="face-outline" d="M3275.688,1901.87s-2.107-12.056,1.8-21.292c4.813-7.806,14.516-4.17,16.857-.918s16.079,4.2,23.365-.483,11.034-1.2,11.946,1.4,2.6,14.961,1.561,18.863a9.886,9.886,0,0,1,1.515,3.044l-3.388,11.085a22.7,22.7,0,0,1-7.271,11.955c-6.893,4.134-16.9,8.676-19.133,8.907s-15.858-7.268-18.782-8.907-5.579-5.321-6.829-8.021a41,41,0,0,1-3.5-14.311C3274.822,1902.493,3275.688,1901.87,3275.688,1901.87Z" transform="translate(-3272.111 -1875.912)" fill="#dcad9f"/>
      <path id="Path_3177" data-name="Path 3177" d="M-627.912,3298.909s-3.627-10.088-9.521-11.447c-1.587-3.854-4.081-12.241-4.081-12.241a3.353,3.353,0,0,0,1.77-1.866c.34-1.247-6.278-20.053,4.708-23.54.436,4.01-2.267,14.561,0,16.042s3.313-.35,4.272,2.179c-1.744-.262-1.831-.609-5.667,1.918s-2.529,2.877-2.529,2.877.872-1.221,1.526-1.048-2.049,6.8,1,10.115,10.637,9.154,19.007,4.01a2.052,2.052,0,0,1,1.046,1.553l-6.58,5.911s.939,1.543,1.207,1.61,5.7-4.426,5.7-4.426l2.281,1.206-.8,1.141s6.606.871,8.484-1.141c1.676,1.411,5.314,6.351,2.092,10.625s-8.545,4.969-19.792-1.134C-628.147,3298.9-627.912,3298.909-627.912,3298.909Z" transform="translate(642.871 -3247.984)" fill="#e5b7a8"/>
      <path id="Path_3178" data-name="Path 3178" d="M-561.175,3313.3s1.657-.523,1.569-.785-5.359-13.269-5.359-13.269.635-.783,2.2,1,6.388,13.576,6.388,13.576h1.134l6.585-11.339-.656,4.984-2.606,6.354,2.606-.523,1.22,2.006s-3.4,1.917-4.621,4.882c2.354,2.7,3.4,3.837,3.4,3.837l-3.4,2.615s.349,0-.872-2.615a23.669,23.669,0,0,1-1.657-5.931,1.275,1.275,0,0,0-1.918,0c-.872,1.048,0,3.237,0,3.237l-2.442.949s.436-2.529-.785-3.574-2.505-3.328-2.016-4.177A3.386,3.386,0,0,1-561.175,3313.3Z" transform="translate(586.622 -3284.18)" fill="#d69e8d"/>
      <path id="Path_3179" data-name="Path 3179" d="M-480.387,3309.819c.465-.809.378-3.373,1.292-4.707,2.129-3.881,4.412-4.78,5.464-5.679s4.351-8.919,4.351-8.919l-.793-8.4,2.834.68-2.834-2.838s-1.02-5-1.473-5,1.751-.461.051-8.409c-.453-2.116-.748-2.171-.748-2.171l3.346-2.3s2.677,1.754,2.791,3.913,1.133,13.966,1.133,13.966l1.36,3.974s-3.627,11.921-4.874,14.875a19.768,19.768,0,0,1-4.037,6.134A24.206,24.206,0,0,1-480.387,3309.819Z" transform="translate(524.475 -3257.078)" fill="#d69e8d"/>
      <path id="Path_3180" data-name="Path 3180" d="M-589.3,3308.036a29.177,29.177,0,0,1-2.79-5.231c-.785-1.482.523-3.225,2.005-1.045a60.368,60.368,0,0,0,5.754,6.276,69.729,69.729,0,0,1-1.386-7.067,2.56,2.56,0,0,1,1.038-2.176l4.883,13.777-1.744.522S-587.211,3311.174-589.3,3308.036Z" transform="translate(606.73 -3283.973)" fill="#e1b7a7"/>
      <path id="Path_3181" data-name="Path 3181" d="M-595.421,3258.789s.523,4.709,3.052,4.8,2.79-6.452,2.79-6.452-.087-3.4-3.139-3.749S-595.421,3258.789-595.421,3258.789Z" transform="translate(609.011 -3250.596)" fill="#e5b7a8"/>
      <path id="Path_3182" data-name="Path 3182" d="M-483.682,3382.848s6.573.6,9.524-1.342c-1.677-2.482-1.677-1.812-1.677-1.812s-2.213,1.833-6.975.817C-484.353,3383.317-483.682,3382.848-483.682,3382.848Z" transform="translate(527.003 -3343.359)" fill="#d69e8d" opacity="0.42"/>
      <path id="Path_3183" data-name="Path 3183" d="M-524.493,3253.811c7.231,1.705,12.493-.359,18.271-2.5a22.267,22.267,0,0,1,1.587,2.55c.313.542,1.709-1.009,1.709-1.009s1.557-1.374,3.877,1.435c.488-2.961-.825-7.021-5.159-6.35S-510.4,3251.6-524.493,3253.811Z" transform="translate(556.885 -3246.549)" fill="#d69e8d"/>
      <path id="Path_3184" data-name="Path 3184" d="M-631.617,3369.519c-1.5-.053-7.171-3.665-9.493-9.133s-5.52-14.6-5.52-14.6h1.393l4.127,12.227S-634.919,3359.769-631.617,3369.519Z" transform="translate(646.63 -3318.503)" fill="#c69586"/>
    </g>
    <g id="nose" transform="translate(64.351 63.22)">
      <path id="Path_267" data-name="Path 267" d="M3365.359,2009.819c.006.007.005.012,0,0a10.468,10.468,0,0,0,1.393-3.64,27.092,27.092,0,0,0,.481-3.586,2.352,2.352,0,0,1,1.874-1.016,2.858,2.858,0,0,1,1.927.7s1.178,5.514,2.623,7.548a4.45,4.45,0,0,1-3.641,2.623S3366.537,2012.281,3365.359,2009.819Z" transform="translate(-3365.359 -2001.576)" fill="#ce9282"/>
      <path id="Path_268" data-name="Path 268" d="M3372.018,2002.99s.82,5.781,2.158,6.905c-.75.7-1.018,1.766-2.517,1.713a4.717,4.717,0,0,1-2.622-1.017l-.321.589h-.642l1.231-2.248-1.018-.589-.909,1.285s1.531-3.755,1.337-6.349A2.712,2.712,0,0,1,3372.018,2002.99Z" transform="translate(-3366.844 -2002.293)" fill="#e5b7a8"/>
      <path id="Path_269" data-name="Path 269" d="M3370.422,2035.651a1.23,1.23,0,0,0-1.52-.48c-.839.56,1.081,1.1,1.081,1.1S3370.8,2036.291,3370.422,2035.651Z" transform="translate(-3367.807 -2026.2)" fill="#712d1a"/>
      <path id="Path_270" data-name="Path 270" d="M3380.31,2035.863a4.986,4.986,0,0,1,1.2-1.15c.159-.167.561-.315.622-.223s.319.335-.081.816a4.727,4.727,0,0,1-1.742.947c-.038-.019-.458.723-2.219.111.26-.408.62.057,1.16,0A2.306,2.306,0,0,0,3380.31,2035.863Z" transform="translate(-3374.714 -2025.74)" fill="#712d1a"/>
      <path id="Path_3215" data-name="Path 3215" d="M-535,3370s2,6.459,1.642,7.128a2.672,2.672,0,0,1-1.411.975,1.368,1.368,0,0,0,1.411.589c.949-.178,1.642-1.384,1.642-1.384a34.673,34.673,0,0,1-1.129-3.413c-.494-1.826-.821-3.9-.821-3.9Z" transform="translate(538.618 -3369.623)" fill="#ecc7b7"/>
    </g>
    <g id="ear-left" transform="translate(33.107 54.039)">
      <path id="Path_284" data-name="Path 284" d="M3253.054,1967.8c-.1,0-4.345-2.7-5.407,1.548-.58,4.345,1.428,8.553,4.806,13.477,2.22,2.221,5.708,1.67,5.708,1.67S3253.925,1972.676,3253.054,1967.8Z" transform="translate(-3247.548 -1966.96)" fill="#e5b7a8"/>
      <path id="Path_285" data-name="Path 285" d="M3256.623,1976.872l1.976,3.428s-1.406,1.845-.834,2.373,2.241,1.978,2.241,1.978a25.8,25.8,0,0,1,.571,3.867c-.834.4-1.01,0-1.01,0a2.93,2.93,0,0,0-1.3-1.9c-1.143-.747-3.1-1.444-4.373-5.795C3253.018,1976.345,3256.623,1976.872,3256.623,1976.872Z" transform="translate(-3252.112 -1974.229)" fill="#cc8e7b"/>
      <path id="Path_286" data-name="Path 286" d="M3251.49,1972.166c.091-.367-1.582-1.1-2.373.7s.528.879.881.4S3251.4,1972.533,3251.49,1972.166Z" transform="translate(-3248.517 -1970.447)" fill="#cc8e7b"/>
      <path id="Path_287" data-name="Path 287" d="M3260.653,2012.288l1.454,1.995.812-.237-2.029-2.873Z" transform="translate(-3257.177 -1999.449)" fill="#cc8e7b"/>
    </g>
    <g id="ear-right" transform="matrix(0.999, 0.035, -0.035, 0.999, 94.679, 54.124)">
      <path id="Path_284-2" data-name="Path 284" d="M5.108.825c.1,0,4.344-2.636,5.406,1.512C11.094,6.58,9.088,10.69,5.709,15.5,3.488,17.667,0,17.129,0,17.129S5.4,5.441,5.108.825Z" transform="translate(0 0)" fill="#e5b7a8"/>
      <path id="Path_285-2" data-name="Path 285" d="M3.957.019,1.98,3.447s1.406,1.846.835,2.373S.573,7.8.573,7.8A25.715,25.715,0,0,0,0,11.664c.835.4,1.011,0,1.011,0a2.932,2.932,0,0,1,1.3-1.9c1.143-.747,3.1-1.445,4.373-5.8C7.56-.508,3.957.019,3.957.019Z" transform="translate(2.147 2.624)" fill="#cc8e7b"/>
      <path id="Path_286-2" data-name="Path 286" d="M0,.462c-.091-.367,1.582-1.1,2.373.7s-.527.879-.879.4S.095.829,0,.462Z" transform="translate(7.639 1.258)" fill="#cc8e7b"/>
      <path id="Path_287-2" data-name="Path 287" d="M2.265,1.115.811,3.11,0,2.873,2.028,0Z" transform="translate(4.874 11.393)" fill="#cc8e7b"/>
    </g>
    <g id="beard" transform="translate(41.842 65.634)">
      <path id="Path_3208" data-name="Path 3208" d="M-594.9,3358.954a37.361,37.361,0,0,0,1.874,6.464,17.105,17.105,0,0,0,5.555,6.614c2.769,2.177,4.214,2.136,8.286,4.638,3.38,2.077,3.905,3.9,11.166,5.233,5.883-1.52,6.2-2.111,10.452-4.008,3.473-1.484,8.981-4.4,10.888-6.369a17.022,17.022,0,0,0,4.163-6.108,53.122,53.122,0,0,0,1.738-5.29s-1.357,1.781-2.6,3.421c-1.631,2.159-3.334,1.487-6.1,4.592s-2.62,6.073-7.346,6.149c-.221-1.864-.347-3.1-2.3-4.531a30.427,30.427,0,0,0-2.644-1.993,1.957,1.957,0,0,0-1.951,0c-1.127.649-1.184.607-3.945.607s-2.029.034-3.6-.607a3.328,3.328,0,0,0-2.731,0s-1.647,1.256-2.775,2.209-2.714,1.648-2.428,4.315c-3.048-.57-5.923-5.482-8.286-7.525s-3.469-1.606-5.048-3.619S-593.878,3360.091-594.9,3358.954Z" transform="translate(594.897 -3358.954)" fill="#160c0b" stroke="#060201" stroke-width="0.1"/>
      <path id="Path_3209" data-name="Path 3209" d="M-566.09,3396.12l6.269.137a35.652,35.652,0,0,0,2.36,4.672,6.329,6.329,0,0,0,3.444-2.231v-2.091s.158-2.647-6.887-2.684c-.464-.259-.773.433-1.806.433s-1.523-.99-2.326-.433c-.843,0-6.849.453-6.849,2.334v2.44s2.391,2.422,3.6,2.231C-567.718,3400.838-566.09,3396.12-566.09,3396.12Z" transform="translate(589.811 -3382.121)" fill="#cd9d8d" stroke="#707070" stroke-width="0.1"/>
      <g id="lines" transform="translate(3.135 6.745)">
        <g id="Group_43" data-name="Group 43" transform="translate(14.174 2.538)">
          <path id="Path_3187" data-name="Path 3187" d="M-568.208,3415.458a37.672,37.672,0,0,0,3.239-2.776" transform="translate(568.208 -3412.682)" fill="none" stroke="#331c1a" stroke-width="0.1"/>
          <path id="Path_3188" data-name="Path 3188" d="M-568.208,3417.628l3.165-3.074s-2.168,2.945-2.135,3.4c.421-.517,1.423-2.622,2.88-3.041" transform="translate(568.208 -3414.072)" fill="none" stroke="#331c1a" stroke-width="0.1"/>
        </g>
        <g id="Group_44" data-name="Group 44" transform="matrix(0.998, -0.07, 0.07, 0.998, 29.16, 2.679)">
          <path id="Path_3187-2" data-name="Path 3187" d="M3.239,2.776A37.688,37.688,0,0,1,0,0" transform="translate(0.67 0)" fill="none" stroke="#331c1a" stroke-width="0.1"/>
          <path id="Path_3188-2" data-name="Path 3188" d="M3.909,3.074.744,0S2.912,2.944,2.88,3.4C2.459,2.88,1.456.777,0,.356" transform="translate(0 0.482)" fill="none" stroke="#331c1a" stroke-width="0.1"/>
        </g>
        <g id="Group_41" data-name="Group 41" transform="translate(18.476 2.632)">
          <path id="Path_3189" data-name="Path 3189" d="M-552.138,3413.725l.938-.679" transform="translate(552.138 -3413.046)" fill="none" stroke="#331c1a" stroke-width="0.1"/>
          <path id="Path_3190" data-name="Path 3190" d="M-550.314,3414.637l1.181-.711" transform="translate(550.803 -3413.699)" fill="none" stroke="#331c1a" stroke-width="0.1"/>
          <path id="Path_3191" data-name="Path 3191" d="M-548.492,3415.741l1-.81" transform="translate(549.465 -3414.445)" fill="none" stroke="#331c1a" stroke-width="0.1"/>
          <path id="Path_3192" data-name="Path 3192" d="M-545.725,3415.834l.971-.778" transform="translate(547.437 -3414.539)" fill="none" stroke="#331c1a" stroke-width="0.1"/>
          <path id="Path_3193" data-name="Path 3193" d="M-541.45,3416.02l.744-.711" transform="translate(544.299 -3414.726)" fill="none" stroke="#331c1a" stroke-width="0.1"/>
        </g>
        <g id="Group_42" data-name="Group 42" transform="translate(25.106 2.897)">
          <path id="Path_3189-2" data-name="Path 3189" d="M-551.2,3413.725l-.938-.679" transform="translate(554.793 -3413.046)" fill="none" stroke="#331c1a" stroke-width="0.1"/>
          <path id="Path_3190-2" data-name="Path 3190" d="M-549.134,3414.637l-1.181-.711" transform="translate(552.238 -3413.699)" fill="none" stroke="#331c1a" stroke-width="0.1"/>
          <path id="Path_3191-2" data-name="Path 3191" d="M-547.488,3415.741l-1-.81" transform="translate(550.108 -3414.445)" fill="none" stroke="#331c1a" stroke-width="0.1"/>
          <path id="Path_3192-2" data-name="Path 3192" d="M-544.754,3415.834l-.971-.778" transform="translate(546.636 -3414.539)" fill="none" stroke="#331c1a" stroke-width="0.1"/>
          <path id="Path_3193-2" data-name="Path 3193" d="M-540.706,3416.02l-.744-.711" transform="translate(541.45 -3414.726)" fill="none" stroke="#331c1a" stroke-width="0.1"/>
        </g>
        <path id="Path_3205" data-name="Path 3205" d="M-526.9,3441.645l-1.068.583,1.424-.583s-.323.647-.356.583.582-.292.582-.292l-.582.745.97-.453-2.038,1.586s1.683-.583,1.424-.485-1.942,1.1-1.844,1.035,4.627-2.136,4.627-2.136l-2.556.874,1.553-.874-1.424.453a33.858,33.858,0,0,0,3.592-2.265,15.968,15.968,0,0,1-1.165,1.229l2.686-2.1-1.521,1.78a16.2,16.2,0,0,0,2.524-2.039c.1-.356.259-1.843.259-1.843v1.843l-1.391,1.585,1.391-.937-1.262,1.391" transform="translate(554.28 -3429.061)" fill="none" stroke="#331c1a" stroke-width="0.1"/>
        <path id="Path_3206" data-name="Path 3206" d="M-554.673,3449.05l-.485-.873a4.693,4.693,0,0,0,.227,1.457c.194.259-.518-.778-.518-.778l.291,1.2-.971-1,.55,1-2.783-1.876,1.585,1.457a11.3,11.3,0,0,1-2.395-1.3,8.2,8.2,0,0,0,1.942,1.877s-2.621-1.2-3.462-2.718c-.032.615,2.33,2.555,2.33,2.555l-2.686-2.233,1.876,1.813-2.524-1.942,1.165,1.358" transform="translate(576.749 -3436.001)" fill="none" stroke="#331c1a" stroke-width="0.1"/>
        <path id="Path_3211" data-name="Path 3211" d="M7.816.962l.117.562L6.864.743A6.23,6.23,0,0,0,7.333,1.9,18.365,18.365,0,0,1,5.637.645L6.98,2.379l-1.732-1.3,1.22,1.377L3.844.743,5.339,2.069A10.8,10.8,0,0,1,3.081.891,7.611,7.611,0,0,0,4.912,2.6,9.338,9.338,0,0,1,2.016,0,9.556,9.556,0,0,0,3.147,2.5L1.349.484,1.686,2.31,0,.705.31,1.9" transform="matrix(0.755, 0.656, -0.656, 0.755, 1.705, 0)" fill="none" stroke="#30201d" stroke-width="0.1"/>
        <path id="Path_3212" data-name="Path 3212" d="M7.816,1.637l.117-.562-1.069.78A6.229,6.229,0,0,1,7.333.7a18.364,18.364,0,0,0-1.7,1.258L6.98.22l-1.732,1.3L6.468.147,3.844,1.855,5.339.53A10.8,10.8,0,0,0,3.081,1.708,7.611,7.611,0,0,1,4.912,0a9.338,9.338,0,0,0-2.9,2.6A9.556,9.556,0,0,1,3.147.1l-1.8,2.013L1.686.289,0,1.893.31.7" transform="translate(48.269 2.226) rotate(139)" fill="none" stroke="#30201d" stroke-width="0.1"/>
        <path id="Path_3207" data-name="Path 3207" d="M.874,0l.55,1.65L.388,0l.647,1.909L0,0,.874,2.3" transform="matrix(0.914, -0.407, 0.407, 0.914, 12.843, 10.113)" fill="none" stroke="#331c1a" stroke-width="0.1"/>
        <path id="Path_3210" data-name="Path 3210" d="M-548.828,3434.617l.705-1.781.15.914.289-.729.208,1.006.3-.9.254,1.041.324-1.088.313,1.158.336-1.215.231.729.173-.81.787,1.677" transform="translate(570.531 -3423.509)" fill="none" stroke="#331c1a" stroke-width="0.1"/>
      </g>
    </g>
    <g id="headlines" transform="translate(49.327 41.784)">
      <path id="Path_273" data-name="Path 273" d="M3308.707,1931.249s.966-.58,5.889.869c6.661.29,8.786.966,8.786.966" transform="translate(-3308.707 -1928.38)" fill="none" stroke="#a16855" stroke-width="0.1"/>
      <path id="Path_274" data-name="Path 274" d="M3356.032,1942.487l5.7,1.062" transform="translate(-3343.48 -1936.722)" fill="none" stroke="#a16855" stroke-width="0.1"/>
      <path id="Path_275" data-name="Path 275" d="M3414.641,1934.191s8.5-1.787,11.392-3.717" transform="translate(-3386.547 -1927.895)" fill="none" stroke="#a16855" stroke-width="0.1"/>
      <path id="Path_276" data-name="Path 276" d="M3421.958,1921.979c-1.932-.386,4.57-1.23,4.57-1.23S3423.888,1922.366,3421.958,1921.979Z" transform="translate(-3391.66 -1920.749)" fill="#a06754"/>
      <path id="Path_277" data-name="Path 277" d="M3356.032,1957.777s12.262,1.255,15.156.579" transform="translate(-3343.48 -1947.957)" fill="none" stroke="#985d4b" stroke-width="0.1"/>
      <path id="Path_278" data-name="Path 278" d="M3420.1,1952.107c3.563-.868,7.048-1.738,8.593-2.7" transform="translate(-3390.56 -1941.805)" fill="none" stroke="#9b5e4c" stroke-width="0.1"/>
    </g>
    <g id="hair-style" transform="translate(29.938)">
      <path id="Path_288" data-name="Path 288" d="M3239.609,1818.08c-1.152,1.588-6.745-17.252-2.353-33.317,3.259-1.851,4.17-1.942,5.483-3.085a20.385,20.385,0,0,0,3.486-4.456,19.147,19.147,0,0,1-3.942-1.429s15.524-13.319,41.253-12.567c4.268.377,10.7,2.917,12.175,7.656a40.858,40.858,0,0,1,.672,5.483l1.485-.914s7.632-.3,13.533,13.881c2.383,5.271,1.505,6.527,1.505,6.527s-.753,12.676-2.259,17.948-4.987,4.975-7.957,14.926c-1.189,2.3-1.264,1.486-1.264,1.486l3.194-10.769-1.485-2.822s2.6-26.587-9.061-21.165c-5.072,2.358-9.571,5.429-18.054,5.1-9.3-.327-13.815-6.463-17.132-7.016-5.873-.979-11.1,3.427-11.1,10.605s-1.794,9.053,0,15.295c-2.71,1.189-2.2,1.132-2.2,1.132s1.191,7.027,2.2,8.74c-1.568-1.885-3.508-7.575-3.738-11.242C3242,1817.44,3240.761,1816.492,3239.609,1818.08Z" transform="translate(-3235.598 -1763.197)" fill="#160c0b" stroke="#0b0505" stroke-width="0.1"/>
      <path id="Path_289" data-name="Path 289" d="M3354.111,1842.554s6.906-9.135-2.153-19.161c-1.264-.891-12.842,1.768-11.713,25.518-2.993-6.8-4.392-21.432,8.536-27.583,13.554-3.89,9.788,20.989,7.027,21.225S3354.111,1842.554,3354.111,1842.554Z" transform="translate(-3311.006 -1805.608)" fill="#060201"/>
      <path id="Path_290" data-name="Path 290" d="M3311.494,1833.333c-.564-2.049-2.783-30.952,19.14-32.208,5.062,0,8.1,5.883,6.305,18.121,9.137-10.932,1.632-21.7-3.426-22.843s-14.256,1.8-20.069,9.952S3306.392,1828.773,3311.494,1833.333Z" transform="translate(-3289.011 -1787.424)" fill="#060201"/>
      <path id="Path_291" data-name="Path 291" d="M3340.6,1850.716c-3.863-11.779-.329-20.881,8.358-25.8C3343.751,1830.125,3338.479,1835.462,3340.6,1850.716Z" transform="translate(-3311.614 -1808.544)" fill="#745754"/>
      <path id="Path_292" data-name="Path 292" d="M3366.352,1808.861c-2.7.483-8.838.691-12.8,4.456.059-.1-.1.161,0,0,2.834-4.4,11-4.362,12.8-4.456Z" transform="translate(-3322.247 -1796.719)" fill="#160c0b"/>
      <path id="Path_323" data-name="Path 323" d="M12.832.043C10.129.526,3.994.734.036,4.5c.059-.1-.1.161,0,0C2.87.1,11.036.137,12.832.043Z" transform="translate(55.204 21.66) rotate(124)" fill="#160c0b"/>
      <path id="Path_324" data-name="Path 324" d="M12.832.043C10.129.526,3.994.734.036,4.5c.059-.1-.1.161,0,0C2.87.1,11.036.137,12.832.043Z" transform="translate(50.458 26.141) rotate(121)" fill="#160c0b"/>
      <path id="Path_293" data-name="Path 293" d="M3333.116,1813.431c.675-4.442,5.213-10.524,10.04-11.586a28.523,28.523,0,0,1,6.373-.965S3337.42,1803.312,3333.116,1813.431Z" transform="translate(-3307.254 -1790.885)" fill="#160c0b"/>
      <path id="Path_294" data-name="Path 294" d="M3318.988,1816.63a2.321,2.321,0,0,0,0-1.547s-14.674,11.489-8.4,29.253C3309.142,1831.207,3310.493,1824.742,3318.988,1816.63Z" transform="translate(-3289.553 -1801.323)" fill="#745754"/>
      <path id="Path_295" data-name="Path 295" d="M3235.6,1867.8l11.394,14.7-11.394-16.115s11.841,15.521,11.394,14.927-11.394-15.893-11.394-15.893,12.879,16.487,11.394,15.15-10.99-15.744-10.99-15.744l10.99,14.408-10.99-15.67,10.99,15-10.694-15.967,10.694,15.3-10.694-16.561" transform="translate(-3235.598 -1835.315)" fill="none" stroke="#8f7c78" stroke-width="0.1"/>
      <path id="Path_296" data-name="Path 296" d="M3243.86,1910.605l-6.09-8.169,4.234,4.6-4.234-5.569,5.274,5.569-5.274-8.763,5.274,8.169-5.644-10.695,9.8,13.74s-7.277-4.753-9.8-16.784" transform="translate(-3236.923 -1858.361)" fill="none" stroke="#442f2b" stroke-width="0.1"/>
      <path id="Path_297" data-name="Path 297" d="M3492.507,1885.694s8.393-10.991,8.987-12.477-8.541,11.215-8.541,11.215l8.913-13.591-9.359,12.848s9.283-12.848,9.359-15-8.913,13.888-8.913,13.888,8.317-14.556,8.541-14.853-8.541,14.109-8.541,14.109,8.169-14.259,8.169-15-8.318,15-8.169,14.63,6.907-12.1,7.129-16.264-2.376,8.54-4.01,9.729" transform="translate(-3424.374 -1837.534)" fill="none" stroke="#8f7c78" stroke-width="0.1"/>
      <path id="Path_298" data-name="Path 298" d="M3498.628,1912.57l3.936-5.019-3.045,5.019a27.686,27.686,0,0,0,2.524-2.6c-.147-.075-2.822,6.19-7.576,8.419,3.566-.966,7.576-5.823,7.576-5.823s-4.53,6.193-7.055,7.159c1.114.521,6.759-4.827,6.759-4.827l-6.759,5.941,6.461-5.049-3.491,3.935,2.6-2.154-2.6,3.268,2.3-1.114-3.267,2.748,3.267-1.634" transform="translate(-3425.814 -1869.267)" fill="none" stroke="#442f2b" stroke-width="0.1"/>
      <path id="Path_299" data-name="Path 299" d="M3251.965,1852.1c.482,2.335,5.05,6.535,9.8,6.238C3258.352,1857.006,3254.118,1855.075,3251.965,1852.1Z" transform="translate(-3247.625 -1827.465)" fill="#060201" stroke="#060201" stroke-width="0.1"/>
      <path id="Path_325" data-name="Path 325" d="M0,0C.482,2.335,5.05,6.535,9.8,6.238,6.387,4.9,2.154,2.971,0,0Z" transform="matrix(0.999, 0.052, -0.052, 0.999, 2.919, 26.509)" fill="#060201" stroke="#060201" stroke-width="0.1"/>
      <path id="Path_300" data-name="Path 300" d="M.042.009c-.58-.2,5.006,3.1,6.218,2.8-.369-.951.158-.951-.58-1.251A50.006,50.006,0,0,0,.042.009Z" transform="matrix(0.985, 0.174, -0.174, 0.985, 8.086, 24.423)" fill="#060201" stroke="#060201" stroke-width="0.1"/>
      <path id="Path_301" data-name="Path 301" d="M3260.646,1835.879c7.8-1.263,11.138-1.783,15.6-3.937,2.747.446-4.531,3.045-4.531,3.045S3262.279,1837.29,3260.646,1835.879Z" transform="translate(-3254.004 -1813.71)" fill="#060201" stroke="#060201" stroke-width="0.1"/>
      <path id="Path_302" data-name="Path 302" d="M3293.245,1845.849s4.308-.817,5.571-2.674c1.634-.445.964.892.371,1.486s-3.342,2.154-5.124,2.005S3293.245,1845.849,3293.245,1845.849Z" transform="translate(-3277.765 -1821.9)" fill="#060201" stroke="#060201" stroke-width="0.1"/>
      <path id="Path_303" data-name="Path 303" d="M3282.207,1829.969c2.6-.891,7.647-1.783,8.984-2.823s0,.817,0,.817S3283.616,1831.082,3282.207,1829.969Z" transform="translate(-3269.846 -1809.954)" fill="#060201" stroke="#060201" stroke-width="0.1"/>
      <path id="Path_304" data-name="Path 304" d="M3288.928,1819.724c1.633-1.3,5.865-2.858,7.8-4.863,1.04.966-.372,1.262-.372,1.262S3290.933,1819.834,3288.928,1819.724Z" transform="translate(-3274.785 -1801.16)" fill="#060201" stroke="#060201" stroke-width="0.1"/>
      <path id="Path_305" data-name="Path 305" d="M3267.927,1814.041s9.728-5.941,13.961-6.461C3277.655,1810.4,3267.927,1814.041,3267.927,1814.041Z" transform="translate(-3259.353 -1795.81)" fill="#060201" stroke="#060201" stroke-width="0.1"/>
      <path id="Path_306" data-name="Path 306" d="M3305.909,1815.449s9.34-3.958,10.3-4.827-.868,1.931-3.38,2.8S3305.909,1815.449,3305.909,1815.449Z" transform="translate(-3287.262 -1797.923)" fill="#060201" stroke="#060201" stroke-width="0.1"/>
      <path id="Path_317" data-name="Path 317" d="M3305.909,1815.449s9.34-3.958,10.3-4.827-.868,1.931-3.38,2.8S3305.909,1815.449,3305.909,1815.449Z" transform="translate(-3287.793 -1799.249)" fill="#060201" stroke="#060201" stroke-width="0.1"/>
      <path id="Path_318" data-name="Path 318" d="M3305.909,1815.449s9.34-3.958,10.3-4.827-.868,1.931-3.38,2.8S3305.909,1815.449,3305.909,1815.449Z" transform="translate(-3287.793 -1800.575)" fill="#060201" stroke="#060201" stroke-width="0.1"/>
      <path id="Path_307" data-name="Path 307" d="M3292.984,1785.847s9.87-2.8,14.987-4.731,17.175-3.9,21.688,3.757,3.22,12.753.324,19.124-5.5,7.82-5.5,7.82" transform="translate(-3277.764 -1775.079)" fill="none" stroke="#060201" stroke-width="0.1"/>
      <path id="Path_3279" data-name="Path 3279" d="M3292.984,1787.529s9.87-2.8,14.987-4.731,16.256-1.622,19.971,2.549,5.7,12.1,2.707,18.469-5.285,7.593-5.285,7.593" transform="translate(-3278.561 -1774.639)" fill="none" stroke="#060201" stroke-width="0.1"/>
      <path id="Path_308" data-name="Path 308" d="M3332.678,1799.017s7.336-9.461,7.143-17.668-9.364-12.357-12.066-11.874-15.253-.387-30.315,7.53" transform="translate(-3281.039 -1767.782)" fill="none" stroke="#060201" stroke-width="0.1"/>
      <path id="Path_309" data-name="Path 309" d="M3344.878,1795.654s7.544-12.24,4.746-21.991-18.923-7.144-18.923-7.144-13.13,2.028-19.791,5.214" transform="translate(-3290.937 -1765.405)" fill="none" stroke="#060201" stroke-width="0.1"/>
      <path id="Path_310" data-name="Path 310" d="M3379.946,1847.218c-.644-5.356-3.477-11.1-5.311-11.874s3.379-.483,4.634,5.5S3379.946,1847.218,3379.946,1847.218Z" transform="translate(-3337.477 -1815.983)" fill="#040402"/>
      <path id="Path_311" data-name="Path 311" d="M3375.346,1854.866s-.043-11.381-3.91-13.974c2.768.572,4.35,5.054,4.48,6.943A55.654,55.654,0,0,1,3375.346,1854.866Z" transform="translate(-3335.412 -1820.288)" fill="#040402"/>
      <path id="Path_312" data-name="Path 312" d="M3369.543,1861.58s1.054-10.722-4.57-12.568c.834,1.89,2.944,2.066,4.57,12.568" transform="translate(-3330.663 -1826.253)" fill="#040402"/>
      <path id="Path_313" data-name="Path 313" d="M3367.858,1868.2s-.135-6.288-2.807-9.465c2.366,1.386,3.279,6.017,3.347,7.606S3367.858,1868.2,3367.858,1868.2Z" transform="translate(-3330.719 -1833.4)" fill="#040402"/>
      <path id="Path_314" data-name="Path 314" d="M3358.892,1866.839c.136,3.245-.777-5.375-3.718-7.335s-.1-1.724.508-.946S3358.758,1863.594,3358.892,1866.839Z" transform="translate(-3322.5 -1832.847)" fill="#040402"/>
      <path id="Path_315" data-name="Path 315" d="M3352.607,1866.691a21.486,21.486,0,0,0-3.006-6.66c-2.2-3.344.151-.918.151-.918a7.436,7.436,0,0,1,1.955,2.931A19.371,19.371,0,0,1,3352.607,1866.691Z" transform="translate(-3317.295 -1831.854)" fill="#040402"/>
      <path id="Path_316" data-name="Path 316" d="M3334.923,1794.5s4.518-8.892-1-15.8-21.337-4.643-37.275,2.26" transform="translate(-3280.454 -1771.516)" fill="none" stroke="#060201" stroke-width="0.1"/>
      <path id="Path_319" data-name="Path 319" d="M3431.517,1857.962c.869-.179,6.469,2.427,6.469,2.427l-4.923-.386s-5.794,0-13.613,7.627a4.928,4.928,0,0,1-2.608,1.738s5.6-6.179,7.725-7.724A32.494,32.494,0,0,1,3431.517,1857.962Z" transform="translate(-3368.775 -1832.823)" fill="#0f0607" stroke="#060201" stroke-width="0.1"/>
      <path id="Path_321" data-name="Path 321" d="M13.833.007c.819-.147,6.1,2,6.1,2l-4.641-.318s-5.46,0-12.832,6.291A4.8,4.8,0,0,1,0,9.415a83.958,83.958,0,0,1,7.28-6.37A32.4,32.4,0,0,1,13.833.007Z" transform="matrix(0.985, 0.174, -0.174, 0.985, 52.666, 26.033)" fill="#0f0607" stroke="#060201" stroke-width="0.1"/>
      <path id="Path_320" data-name="Path 320" d="M3448.513,1844.85s5.02-5.5,8.977-4.344a19.3,19.3,0,0,1,7.146,4.344s-3.186-6.469-7.917-6.469S3448.513,1844.85,3448.513,1844.85Z" transform="translate(-3392.047 -1818.442)" fill="#0f0607" stroke="#060201" stroke-width="0.1"/>
      <path id="Path_322" data-name="Path 322" d="M3448.513,1844.85s4.178-5.5,7.473-4.344a16.077,16.077,0,0,1,5.947,4.344s-2.651-6.469-6.588-6.469S3448.513,1844.85,3448.513,1844.85Z" transform="translate(-3390.599 -1823.481)" fill="#0f0607" stroke="#060201" stroke-width="0.1"/>
    </g>
    <path id="Path_272" data-name="Path 272" d="M3363.114,2056.085s2.86,2.781,5.913,2.585a11,11,0,0,0,5.522-2.193s-2.544-1.18-3.626-1.09-1.138.516-1.9.516-.663-.4-1.955-.516a15.068,15.068,0,0,0-3.958.7" transform="translate(-3299.994 -1978.152)" fill="#975f50"/>
    <path id="Path_271" data-name="Path 271" d="M3363.324,2058.188l3.5.4a8.2,8.2,0,0,0,2.295.369c1.19,0,1.506-.321,2.526-.369s3.091,0,3.091,0" transform="translate(-3300.139 -1980.101)" fill="none" stroke="#5a2b19" stroke-width="0.1"/>
    <g id="eye-right" transform="translate(72.017 58.709)">
      <path id="Path_334" data-name="Path 334" d="M4.951,37.149c.3.192,2.27-.012,2.841.12s10.167,1.652,13.445,0,2.095-5.641,1.656-6.046-11.087-.608-13.318,1.352S4.654,36.957,4.951,37.149Z" transform="translate(-4.094 -30.379)" fill="#fff"/>
      <g id="r-eye-ball" transform="translate(5.709 0)">
        <g id="r-eye-ball-2" data-name="r-eye-ball" transform="translate(0.271 0) rotate(2)">
          <g id="Group_1" data-name="Group 1" transform="matrix(1, 0.017, -0.017, 1, 0.133, 0)">
            <g id="Ellipse_33" data-name="Ellipse 33" transform="translate(0 0)">
              <path id="gradienteye" d="M0,2.851A6.824,6.824,0,0,0,1.6,6.9c.057.058.389.4.444.437a25.69,25.69,0,0,0,3.289.088,20.749,20.749,0,0,0,3.177-.267,6.211,6.211,0,0,0,1.593-4.3A5.738,5.738,0,0,0,9.625.543L9.563.409c-.047-.1-.124-.268-.178-.364L9.254,0A16.312,16.312,0,0,0,6.93.2,25.958,25.958,0,0,0,1.6,1.243,14.851,14.851,0,0,0,.215,1.9l-.14.059c-.018.111-.034.235-.044.341a.736.736,0,0,0,0,.108A2.4,2.4,0,0,0,0,2.851Z" transform="translate(0 0)" fill="url(#linear-gradient-3)"/>
              <path id="Path_330" data-name="Path 330" d="M0,2.857A5.725,5.725,0,0,0,1.767,7.064q.086.083.179.161c.054.046.109.093.166.137a22.963,22.963,0,0,0,2.315,0h.187a31.293,31.293,0,0,0,3.518-.333A5.729,5.729,0,0,0,9.849,2.861,6,6,0,0,0,9.358.47C9.338.424,9.317.377,9.294.331c-.049-.11-.1-.217-.161-.322A15.748,15.748,0,0,0,6.8.1,25.342,25.342,0,0,0,1.478,1.321c-.531.185-1,.368-1.392.544-.018.107-.034.215-.044.324A.312.312,0,0,1,.029,2.3,4.906,4.906,0,0,0,0,2.857Z" transform="translate(0.129 0.21)" fill="none"/>
            </g>
            <path id="Path_331" data-name="Path 331" d="M0,2.281v.034a2.635,2.635,0,0,0,.084.659A3.3,3.3,0,0,0,3.346,5.24,3.154,3.154,0,0,0,6.691,2.317,2.7,2.7,0,0,0,5.924.455C5.885.412,5.843.369,5.8.329A3.139,3.139,0,0,0,5.384,0,24.993,24.993,0,0,0,.294,1.123c-.04.079-.077.157-.109.238l-.037.1A2.548,2.548,0,0,0,0,2.286Z" transform="translate(1.801 0.764)" fill="#040807"/>
            <path id="Ellipse_35" data-name="Ellipse 35" d="M.926,0a.669.669,0,0,1,.8.687A1,1,0,0,1,.8,1.526.669.669,0,0,1,0,.838,1,1,0,0,1,.926,0Z" transform="matrix(0.799, -0.602, 0.602, 0.799, 6.883, 1.56)" fill="#dae6f4"/>
          </g>
        </g>
      </g>
      <g id="to_hide" data-name="to hide" transform="translate(0 0.269)">
        <path id="Path_332" data-name="Path 332" d="M0,6.939a17.434,17.434,0,0,1,4.679-4.9C7.2.552,2.572,3.03,2.572,3.03L4.2,1.792S9.164-1.364,20.765.7c.879.4,1.406.527-1.362.439.453.431.4,1,1.016,1.737a3.885,3.885,0,0,0,1.456,1.2c1.014.494.08.932-.52.432S19.842,3.03,19.842,3.03s.7,1.23-2.109,3.384c-.615.439-.747.264-.176-.308s1.588-1.795,1.582-2.285S19.973.261,15.4.569,7.364.781,5.651,2.037A55.769,55.769,0,0,0,.891,6.414a10.638,10.638,0,0,1,2.418.13C4.276,6.763,0,6.939,0,6.939Z" transform="translate(0 0)" fill="#211006" stroke="#181216" stroke-width="0.1"/>
      </g>
      <path id="Path_333" data-name="Path 333" d="M3399.218,1993.242s4.788-7.031,16.081-3.692a2.23,2.23,0,0,0-2.021-2.373c-.614,0-9.272-.79-12,1.407a31.1,31.1,0,0,0-4.614,4.658Z" transform="translate(-3396.031 -1986.383)" fill="rgba(0,0,0,0.15)"/>
    </g>
    <g id="eye-left" transform="translate(45.161 56.437)">
      <path id="Path_327" data-name="Path 327" d="M22.961,20.656a19.384,19.384,0,0,0-3.792-.444,9,9,0,0,1-1.2.132h-.2c-.53.027-1.162.036-1.822.027-1.453,0-3.1-.1-4.508-.249l-.194-.014a10.861,10.861,0,0,1-2.8-.548.42.42,0,0,1-.22-.186,12.971,12.971,0,0,1-1.265-3.921.934.934,0,0,1,.048-.3v-.025c.3-.844.88-2.466,2.018-2.524h1.2c.581.022,1.307.068,2.122.145a23.549,23.549,0,0,1,6.007,1.249,7.125,7.125,0,0,1,1.353.685c.05.033.1.066.143.1a3.534,3.534,0,0,1,.427.356C21.3,16.055,22.691,19.442,22.961,20.656Z" transform="translate(-5.235 -11.365)" fill="#fbfdff"/>
      <g id="l-eye_ball" data-name="l-eye ball" transform="translate(4.314 1.255)">
        <g id="Ellipse_33-2" data-name="Ellipse 33">
          <path id="gradienteye-2" data-name="gradienteye" d="M27.071,13.978a6.108,6.108,0,0,1-1.732,4.333,2.4,2.4,0,0,1-.186.177c-.05.048-.1.1-.159.141H24.78c-.8.058-1.61.043-2.455.043h-.14a35.659,35.659,0,0,1-3.816-.268h0a6.4,6.4,0,0,1-1.641-4.426,6.409,6.409,0,0,1,.493-2.48l.064-.144c.048-.109.127-.287.182-.391l.133-.044a15.944,15.944,0,0,1,2.379.213,25.493,25.493,0,0,1,5.453,1.121,14.907,14.907,0,0,1,1.418.7l.143.063c.019.119.034.253.045.366a.824.824,0,0,1,0,.116A2.7,2.7,0,0,1,27.071,13.978Z" transform="translate(-16.727 -10.916)" fill="url(#linear-gradient-4)"/>
          <path id="Path_330-2" data-name="Path 330" d="M27.305,14.363A6.351,6.351,0,0,1,25.5,18.9q-.088.09-.183.174c-.056.05-.111.1-.17.147a22.271,22.271,0,0,1-2.369,0h-.191a30.405,30.405,0,0,1-3.6-.361,6.368,6.368,0,0,1-1.758-4.5,6.786,6.786,0,0,1,.5-2.581c.021-.05.042-.1.066-.15.05-.119.106-.234.164-.348a15.28,15.28,0,0,1,2.387.1A24.8,24.8,0,0,1,25.793,12.7c.544.2,1.026.4,1.424.587.019.116.034.232.045.35a.355.355,0,0,0,.013.116A5.588,5.588,0,0,1,27.305,14.363Z" transform="translate(-17.094 -11.041)" fill="none"/>
        </g>
        <path id="Path_331-2" data-name="Path 331" d="M30.891,14.392v.04a3.4,3.4,0,0,1-.09.777,3.562,3.562,0,0,1-3.49,2.671,3.514,3.514,0,0,1-3.58-3.448,3.357,3.357,0,0,1,.819-2.2c.042-.05.088-.1.135-.149a3.432,3.432,0,0,1,.443-.387,24.664,24.664,0,0,1,5.447,1.326c.042.093.082.186.117.281l.04.117a3.281,3.281,0,0,1,.156.973Z" transform="translate(-21.873 -11.354)" fill="#040807"/>
        <ellipse id="Ellipse_35-2" data-name="Ellipse 35" cx="0.928" cy="0.796" rx="0.928" ry="0.796" transform="matrix(0.656, -0.755, 0.755, 0.656, 7.012, 3.463)" fill="#dde7f3"/>
      </g>
      <g id="to_hide-2" data-name="to hide" transform="translate(0 0)">
        <path id="side" d="M6.258,21.19a8.982,8.982,0,0,0,.507,2.281,13.485,13.485,0,0,0,.949,2.565l-1.109-.981L5.72,21.76Z" transform="translate(-4.325 -17.677)" fill="#211006" stroke="#181216" stroke-width="0.1"/>
        <path id="up" d="M18.595,17.416c-1.61-.782-4.37-.481-5.524-.512,2.139-.046,3.594-.461,4.77-.354-.981-2.405-1.734-3.481-2.272-4.685a2.467,2.467,0,0,0-.472-.448,1.7,1.7,0,0,0-.138-.1,6.364,6.364,0,0,0-1.326-.663A25.662,25.662,0,0,0,7.451,9.473c-.8-.069-1.5-.111-2.042-.138H5.268c-.589-.027-.944-.032-.944-.032s-1,1.26-1.915,2.368l-.215.265c-.09.111-.18.217-.265.321-.241.284-.459.53-.631.719-.9.949.461-1.9,1.254-3.262C.868,9.683.46,9.049.46,9.049H3.945L1.95,7.972s.316-.278,2.944.918c.2-.021.393-.037.594-.045h.151a15.177,15.177,0,0,1,2.387.1,24.664,24.664,0,0,1,5.447,1.326c.544.2,1.026.4,1.424.591l.143.066a6.023,6.023,0,0,1,.777.448C17.152,12.311,18.107,16.239,18.595,17.416Z" transform="translate(-0.46 -7.944)" fill="#211006" stroke="#181216" stroke-width="0.1"/>
      </g>
      <path id="Path_335" data-name="Path 335" d="M3313.181,1988.245c-1.115-.506-2.756-9.074-13.968-3.8-.743-1.708-.529-1.217-.529-1.217l1.744-2.231s7.74-.812,11.831,2.231a35.574,35.574,0,0,1,2.671,5.375A2.982,2.982,0,0,1,3313.181,1988.245Z" transform="translate(-3297.155 -1979.598)" fill="rgba(0,0,0,0.15)"/>
    </g>
    <path id="Path_264" data-name="Path 264" d="M3282.358,1959.968a22.954,22.954,0,0,0,6.362-2.306,35.689,35.689,0,0,0,8.438-6.876c2.213.041,4.241-.124,9.359,4.735-1.752-.412-2.674-1.688-5.487-1.358s-4.979.576-8.207,3.211c-4.011,2.636-8.484,3.83-11.342,3.665A12.392,12.392,0,0,1,3282.358,1959.968Z" transform="translate(-3210.469 -1899.976)" fill="#1a0e10"/>
    <path id="Path_279" data-name="Path 279" d="M3301.159,1957.711a20.989,20.989,0,0,1,3.144.236l-2.806.541S3300.483,1957.815,3301.159,1957.711Z" transform="translate(-3214.135 -1905.049)" fill="rgba(59,48,46,0.45)"/>
    <path id="Path_280" data-name="Path 280" d="M3310.963,1961.747s-1.926-.643-2.77.27S3310.963,1961.747,3310.963,1961.747Z" transform="translate(-3222.934 -1907.868)" fill="rgba(59,48,46,0.45)"/>
    <path id="Path_281" data-name="Path 281" d="M3324.927,1967.58a35.07,35.07,0,0,1-5.138,2.873C3320.8,1968.831,3324.927,1967.58,3324.927,1967.58Z" transform="translate(-3240.615 -1912.315)" fill="rgba(70,52,48,0.3)"/>
    <path id="Path_282" data-name="Path 282" d="M3327.948,1976.719s3.786-.811,5.172-2.129A26.046,26.046,0,0,0,3327.948,1976.719Z" transform="translate(-3251.312 -1917.467)" fill="rgba(70,52,48,0.3)"/>
    <path id="Path_283" data-name="Path 283" d="M3327.565,1977.791s3.582,0,4.968-1.318A16.936,16.936,0,0,0,3327.565,1977.791Z" transform="translate(-3254.832 -1917.524)" fill="rgba(70,52,48,0.3)"/>
    <path id="Path_264-2" data-name="Path 264" d="M3303.057,1959.968a19.059,19.059,0,0,1-5.682-2.306,32.83,32.83,0,0,1-7.533-6.876c-1.978.041-3.791-.124-8.36,4.735,1.564-.412,2.387-1.688,4.9-1.358a11.1,11.1,0,0,1,7.331,3.211c3.582,2.636,7.574,3.83,10.127,3.665A11.928,11.928,0,0,0,3303.057,1959.968Z" transform="translate(-3239.375 -1900.771)" fill="#1a0e10"/>
    <path id="Path_279-2" data-name="Path 279" d="M3304.07,1957.711a20.974,20.974,0,0,0-3.144.236l2.806.541S3304.744,1957.815,3304.07,1957.711Z" transform="translate(-3253.662 -1905.845)" fill="rgba(59,48,46,0.45)"/>
    <path id="Path_280-2" data-name="Path 280" d="M3308.064,1961.747s1.927-.643,2.771.27S3308.064,1961.747,3308.064,1961.747Z" transform="translate(-3258.908 -1908.664)" fill="rgba(59,48,46,0.45)"/>
    <path id="Path_281-2" data-name="Path 281" d="M3319.789,1967.58a35.124,35.124,0,0,0,5.138,2.873C3323.914,1968.831,3319.789,1967.58,3319.789,1967.58Z" transform="translate(-3267.523 -1913.111)" fill="rgba(70,52,48,0.3)"/>
    <path id="Path_282-2" data-name="Path 282" d="M3333.118,1976.719s-3.785-.811-5.171-2.129A26.122,26.122,0,0,1,3333.118,1976.719Z" transform="translate(-3273.517 -1918.263)" fill="rgba(70,52,48,0.3)"/>
    <path id="Path_283-2" data-name="Path 283" d="M3332.533,1977.791s-3.582,0-4.968-1.318A16.912,16.912,0,0,1,3332.533,1977.791Z" transform="translate(-3269.79 -1918.32)" fill="rgba(70,52,48,0.3)"/>
  </g>
</svg>
