<svg width="30" height="30" viewBox="0 0 30 30" fill="none" xmlns="http://www.w3.org/2000/svg">
<circle cx="15" cy="15" r="15" fill="white"/>
<path d="M9.77795 25.3347C8.60724 24.1297 5.54174 21.5796 3 20.9743C3.27222 19.1573 6.41433 9.97974 15.8745 9.97974C25.3348 9.97974 27.1756 20.2152 27.2778 21.9039C24.8636 22.4995 21.1396 25.2404 20.119 25.9218C19.0985 26.6032 17.72 27.3191 17.72 27.3191C17.72 27.3191 16.5562 28.2691 18.0421 25.5634C16.1922 22.7005 11.956 24.8505 11.956 24.8505C11.956 24.8505 11.6504 25.3303 12.474 26.4416C13.2975 27.5529 10.9489 26.5401 9.77795 25.3347Z" fill="#A40224" stroke="#740317" stroke-width="0.05"/>
<path d="M10.3203 25.04L4.11133 20.0895L5.23713 20.6015L5.57824 20.0895L5.23713 19.3041L5.81574 19.6833L4.79215 17.7673H5.03103L4.79215 17.2211L5.23575 17.5625V16.8116L5.57686 17.5627C5.57686 17.5627 5.0652 16.2995 5.23575 16.2667C5.4063 16.2339 11.9222 24.6658 11.9222 24.6658L10.3203 25.04Z" fill="url(#paint0_linear)"/>
<path d="M19.196 25.6668L26.6546 20.9688L25.4397 21.4604L25.0827 20.9421L25.4617 20.163L24.8336 20.5329L25.9628 18.6356L25.7068 18.6313L25.9721 18.0894L25.4913 18.4219L25.504 17.6704L25.1256 18.4156C25.1256 18.4156 25.6954 17.1615 25.5133 17.1242C25.3312 17.0869 18.4256 25.2935 18.4256 25.2935L19.196 25.6668Z" fill="url(#paint1_linear)"/>
<path d="M10.3593 25.7176C10.4282 25.7468 12.0822 26.892 12.4456 26.7337C11.5515 25.1399 11.8119 24.825 11.7937 24.7574C11.7443 24.5806 10.2948 25.0392 10.2948 25.0392L3.47469 19.7864C3.47469 19.7864 3.09392 20.6931 3.21681 20.8979C3.33969 21.1028 5.31301 20.7364 10.3593 25.7176Z" fill="#B71D3D"/>
<path d="M19.5273 26.0832C19.4584 26.1132 17.7171 27.3301 17.4189 27.2747C17.7821 26.3055 18.2103 25.4727 18.2293 25.4054C18.2786 25.2286 19.592 25.4054 19.592 25.4054L26.9607 21.0083C26.9607 21.0083 27.2431 21.5485 27.1203 21.7528C26.9974 21.9571 25.3913 21.993 19.5273 26.0832Z" fill="#B71D3D"/>
<path d="M18.2378 25.783C18.0718 26.1558 17.8036 26.5836 17.6006 26.9668C17.3975 27.3499 19.0886 26.4202 19.3601 26.0259C19.5963 25.6706 19.5131 25.8277 18.2378 25.783Z" fill="#E1AF53"/>
<path d="M11.6433 25.2974C11.7993 25.7066 11.993 26.1005 12.2219 26.4738C12.5478 27.086 10.8024 25.927 10.5825 25.5621C10.3913 25.234 10.5536 25.2974 11.6433 25.2974Z" fill="#E1AF53"/>
<path d="M7.74264 17.4013C7.74264 17.4013 7.16212 14.0769 8.2386 11.53C9.56472 9.37751 12.2381 10.3802 12.8831 11.2769C13.5282 12.1736 17.3133 12.435 19.3208 11.1437C21.3283 9.85235 22.361 10.8128 22.6123 11.5298C22.8636 12.2467 23.3287 15.6553 23.0424 16.7312C23.2289 16.9848 23.3701 17.2688 23.4598 17.5707L22.5263 20.6274C22.222 21.9099 21.5209 23.0637 20.523 23.924C18.6238 25.0639 15.8665 26.3164 15.2513 26.3801C14.636 26.4438 10.882 24.3759 10.0763 23.924C9.27071 23.472 8.53922 22.4567 8.19481 21.7122C7.63792 20.4658 7.3112 19.1288 7.23047 17.7659C7.50407 17.5731 7.74264 17.4013 7.74264 17.4013Z" fill="#DCAD9F"/>
<path d="M10.8786 24.2858C10.8786 24.2858 9.87924 21.504 8.25528 21.1293C7.81802 20.0665 7.13086 17.7538 7.13086 17.7538C7.24199 17.7044 7.34226 17.6335 7.42594 17.5452C7.50963 17.4569 7.57508 17.3529 7.61853 17.2393C7.71221 16.8954 5.88877 11.7096 8.91571 10.748C9.03584 11.8538 8.29109 14.7633 8.91571 15.1717C9.54033 15.5801 9.82854 15.0751 10.0928 15.7725C9.61225 15.7003 9.58827 15.6046 8.53135 16.3015C7.47443 16.9983 7.83454 17.0948 7.83454 17.0948C7.83454 17.0948 8.0748 16.7581 8.255 16.8058C8.43519 16.8535 7.69044 18.6809 8.53052 19.595C9.37061 20.5091 11.4613 22.1193 13.7675 20.7008C13.846 20.7442 13.9131 20.8057 13.9632 20.8801C14.0133 20.9546 14.045 21.0399 14.0557 21.129L12.2427 22.759C12.2427 22.759 12.5014 23.1845 12.5753 23.203C12.6491 23.2214 14.1458 21.9825 14.1458 21.9825L14.7742 22.315L14.5538 22.6297C14.5538 22.6297 16.374 22.8699 16.8914 22.315C17.3532 22.7041 18.3555 24.0663 17.4678 25.2449C16.58 26.4235 15.1134 26.6151 12.0146 24.9322C10.8138 24.2833 10.8786 24.2858 10.8786 24.2858Z" fill="#E5B7A8"/>
<path d="M13.7679 18.2732C13.7679 18.2732 14.2244 18.1289 14.2002 18.0567C14.1759 17.9845 12.7236 14.3978 12.7236 14.3978C12.7236 14.3978 12.8986 14.1819 13.3298 14.6735C13.761 15.1652 15.0899 18.4171 15.0899 18.4171H15.4023L17.2167 15.2904L17.0359 16.6647L16.3179 18.4169L17.0359 18.2727L17.3721 18.8258C17.3721 18.8258 16.4353 19.3544 16.0988 20.172C16.7474 20.9166 17.0356 21.2301 17.0356 21.2301L16.0988 21.9512C16.0988 21.9512 16.195 21.9512 15.8586 21.2301C15.6359 20.7071 15.4824 20.1573 15.402 19.5946C15.3691 19.5569 15.3284 19.5268 15.2829 19.5061C15.2373 19.4854 15.1878 19.4747 15.1378 19.4747C15.0878 19.4747 15.0383 19.4854 14.9927 19.5061C14.9472 19.5268 14.9066 19.5569 14.8736 19.5946C14.6333 19.8836 14.8736 20.4872 14.8736 20.4872L14.2007 20.7489C14.2007 20.7489 14.3209 20.0515 13.9845 19.7634C13.648 19.4752 13.2942 18.8457 13.429 18.6116C13.5106 18.4712 13.6274 18.3546 13.7679 18.2732V18.2732Z" fill="#D69E8D"/>
<path d="M18.9043 24.7869C19.0324 24.5638 19.0084 23.8568 19.2603 23.4889C19.8469 22.4187 20.4759 22.1708 20.7658 21.9229C21.0556 21.675 21.9646 19.4634 21.9646 19.4634L21.7461 17.1471L22.5269 17.3346L21.7461 16.5521C21.7461 16.5521 21.465 15.1733 21.3402 15.1733C21.2154 15.1733 21.8227 15.0462 21.3543 12.8545C21.2295 12.271 21.1482 12.2558 21.1482 12.2558L22.0701 11.6216C22.0701 11.6216 22.8077 12.1053 22.8391 12.7006C22.8705 13.296 23.1513 16.5518 23.1513 16.5518L23.526 17.6476C23.526 17.6476 22.5266 20.9348 22.1831 21.7494C21.9211 22.3778 21.5438 22.9515 21.0708 23.4409C20.4418 24.0248 19.7062 24.4819 18.9043 24.7869V24.7869Z" fill="#D69E8D"/>
<path d="M11.5592 16.8788C11.2547 16.4254 10.9971 15.9421 10.7905 15.4364C10.5742 15.0277 10.9346 14.5471 11.3429 15.1482C11.83 15.7617 12.3598 16.34 12.9283 16.8788C12.7675 16.2363 12.6401 15.5858 12.5464 14.9301C12.5412 14.8143 12.5645 14.699 12.6144 14.5943C12.6643 14.4897 12.7391 14.3989 12.8324 14.3301L14.1778 18.1291L13.6973 18.2731C13.6973 18.2731 12.1348 17.7441 11.5592 16.8788Z" fill="#E1B7A7"/>
<path d="M10.5014 12.5026C10.5014 12.5026 10.6455 13.8011 11.3423 13.8262C12.0391 13.8513 12.111 12.047 12.111 12.047C12.111 12.047 12.087 11.1095 11.2461 11.0132C10.4052 10.917 10.5014 12.5026 10.5014 12.5026Z" fill="#E5B7A8"/>
<path opacity="0.42" d="M18.6933 21.1326C18.6933 21.1326 20.5043 21.2981 21.3174 20.7626C20.8554 20.0782 20.8554 20.2629 20.8554 20.2629C20.8554 20.2629 20.2456 20.7684 18.9336 20.4882C18.5084 21.262 18.6933 21.1326 18.6933 21.1326Z" fill="#D69E8D"/>
<path d="M15.6826 12.246C17.675 12.7162 19.1248 12.147 20.7168 11.5566C20.8782 11.7809 21.0242 12.0159 21.154 12.2598C21.2403 12.4093 21.6249 11.9816 21.6249 11.9816C21.6249 11.9816 22.0539 11.6027 22.6931 12.3773C22.8276 11.5608 22.4658 10.4412 21.2717 10.6263C20.0775 10.8113 19.5656 11.6363 15.6826 12.246Z" fill="#D69E8D"/>
<path d="M10.8933 24.3111C10.48 24.2965 8.91752 23.3004 8.27775 21.7926C7.63798 20.2848 6.75684 17.7666 6.75684 17.7666H7.14065L8.27775 21.1382C8.27775 21.1382 9.98353 21.6225 10.8933 24.3111Z" fill="#C69586"/>
<path d="M13.918 21.7065C13.9196 21.7084 13.9193 21.7098 13.918 21.7065C14.1076 21.3989 14.2378 21.0584 14.3018 20.7027C14.3679 20.3764 14.4122 20.0461 14.4343 19.7139C14.4923 19.6298 14.5693 19.5606 14.659 19.5119C14.7487 19.4632 14.8486 19.4364 14.9507 19.4337C15.1454 19.4301 15.3346 19.4989 15.4816 19.6267C15.4816 19.6267 15.8062 21.1473 16.2043 21.7081C16.1161 21.9068 15.9768 22.0785 15.8005 22.2056C15.6243 22.3327 15.4174 22.4107 15.2012 22.4315C15.2012 22.4315 14.2425 22.3854 13.918 21.7065Z" fill="#CE9282"/>
<path d="M15.3439 19.6255C15.3439 19.6255 15.5698 21.2196 15.9385 21.5296C15.7319 21.7226 15.658 22.0166 15.245 22.0019C14.9813 21.9842 14.7293 21.8863 14.5226 21.7215L14.4341 21.8839H14.2572L14.5964 21.264L14.3159 21.1016L14.0654 21.456C14.0654 21.456 14.4873 20.4205 14.4339 19.7052C14.5554 19.593 14.7106 19.5243 14.8753 19.5099C15.0399 19.4955 15.2048 19.5362 15.3439 19.6255V19.6255Z" fill="#E5B7A8"/>
<path d="M14.6394 22.0396C14.5966 21.9714 14.531 21.9206 14.4543 21.8964C14.3775 21.8721 14.2947 21.876 14.2206 21.9073C13.9894 22.0617 14.5184 22.2106 14.5184 22.2106C14.5184 22.2106 14.7435 22.2161 14.6394 22.0396Z" fill="#712D1A"/>
<path d="M15.4603 22.225C15.552 22.1016 15.6638 21.9944 15.7909 21.9079C15.8347 21.8619 15.9455 21.821 15.9623 21.8464C15.9791 21.8718 16.0502 21.9388 15.94 22.0714C15.8003 22.1915 15.6367 22.2805 15.46 22.3326C15.4496 22.3273 15.3338 22.5319 14.8486 22.3632C14.9203 22.2507 15.0194 22.3789 15.1682 22.3632C15.2758 22.3431 15.3765 22.2955 15.4603 22.225V22.225Z" fill="#712D1A"/>
<path d="M14.915 19.5375C14.915 19.5375 15.4661 21.3185 15.3675 21.503C15.2709 21.633 15.1343 21.7275 14.9787 21.7719C15.02 21.8346 15.079 21.8836 15.1483 21.9125C15.2176 21.9415 15.2939 21.949 15.3675 21.9343C15.629 21.8852 15.8199 21.5527 15.8199 21.5527C15.7 21.2446 15.5962 20.9304 15.5088 20.6115C15.3727 20.108 15.2826 19.5361 15.2826 19.5361L14.915 19.5375Z" fill="#ECC7B7"/>
<path d="M6.82573 17.1334C6.79817 17.1334 5.62856 16.3888 5.33595 17.5602C5.17614 18.7584 5.72938 19.9187 6.66011 21.2765C7.27179 21.889 8.23283 21.7371 8.23283 21.7371C8.23283 21.7371 7.06571 18.478 6.82573 17.1334Z" fill="#E5B7A8"/>
<path d="M6.55143 17.6305L7.09589 18.5758C7.09589 18.5758 6.70844 19.0846 6.86604 19.2302C7.02364 19.3758 7.48355 19.7756 7.48355 19.7756C7.56286 20.1266 7.6154 20.483 7.64082 20.8419C7.41103 20.9522 7.36254 20.8419 7.36254 20.8419C7.34127 20.7349 7.29858 20.6333 7.23702 20.5433C7.17546 20.4532 7.09637 20.3766 7.00441 20.318C6.68948 20.112 6.15027 19.9198 5.79952 18.72C5.55816 17.4852 6.55143 17.6305 6.55143 17.6305Z" fill="#CC8E7B"/>
<path d="M6.12758 17.3756C6.15266 17.2744 5.69168 17.0723 5.47374 17.5686C5.2558 18.065 5.61925 17.811 5.71651 17.6789C5.81377 17.5469 6.10279 17.4768 6.12758 17.3756Z" fill="#CC8E7B"/>
<path d="M6.2666 20.442L6.66718 20.9921L6.89091 20.9268L6.33185 20.1345L6.2666 20.442Z" fill="#CC8E7B"/>
<path d="M23.6715 17.2018C23.6991 17.2028 24.8927 16.5177 25.1451 17.6706C25.2638 18.845 24.6721 19.9578 23.6956 21.2502C23.0634 21.8257 22.1084 21.6438 22.1084 21.6438C22.1084 21.6438 23.7075 18.4762 23.6715 17.2018Z" fill="#E5B7A8"/>
<path d="M23.9279 17.7122L23.3507 18.6374C23.3507 18.6374 23.7199 19.1595 23.5576 19.2992C23.3954 19.4388 22.9214 19.823 22.9214 19.823C22.8297 20.1705 22.7645 20.5245 22.7265 20.8819C22.9525 21.0001 23.0048 20.8916 23.0048 20.8916C23.0298 20.7855 23.076 20.6855 23.1406 20.5977C23.2053 20.5099 23.287 20.4361 23.3809 20.3808C23.7027 20.186 24.2481 20.0127 24.6405 18.8253C24.9247 17.6018 23.9279 17.7122 23.9279 17.7122Z" fill="#CC8E7B"/>
<path d="M24.3598 17.4729C24.3383 17.371 24.8059 17.1852 25.0063 17.6887C25.2066 18.1922 24.8527 17.9257 24.7604 17.7904C24.6682 17.655 24.3824 17.575 24.3598 17.4729Z" fill="#CC8E7B"/>
<path d="M24.1186 20.4401L23.6991 20.9756L23.4782 20.9025L24.0641 20.1307L24.1186 20.4401Z" fill="#CC8E7B"/>
<path d="M7.71484 20.0991C7.83303 20.7076 8.00585 21.3042 8.23119 21.8816C8.57708 22.6105 9.10406 23.2385 9.76174 23.7054C10.5247 24.3057 10.9228 24.2944 12.0448 24.9843C12.976 25.557 13.1207 26.0598 15.1213 26.4274C16.7422 26.0082 16.8296 25.8452 18.0011 25.3221C18.958 24.9129 20.4756 24.1088 21.001 23.5658C21.502 23.0953 21.8936 22.5203 22.1481 21.8816C22.3331 21.404 22.4929 20.9171 22.6269 20.4228C22.6269 20.4228 22.253 20.914 21.9106 21.3662C21.4612 21.9615 20.9919 21.7763 20.2298 22.6325C19.4677 23.4887 19.508 24.3071 18.2058 24.3281C18.1449 23.814 18.1102 23.4732 17.5721 23.0786C17.3394 22.8823 17.0962 22.6989 16.8436 22.5291C16.7618 22.482 16.6692 22.4572 16.5748 22.4572C16.4805 22.4572 16.3878 22.482 16.3061 22.5291C15.9955 22.708 15.9798 22.6964 15.2191 22.6964C14.4584 22.6964 14.6601 22.7058 14.2272 22.5291C14.1089 22.4758 13.9807 22.4482 13.851 22.4482C13.7213 22.4482 13.593 22.4758 13.4747 22.5291C13.4747 22.5291 13.0209 22.8754 12.7102 23.1382C12.3994 23.401 11.9624 23.5926 12.0412 24.3281C11.2014 24.1709 10.4092 22.8163 9.75816 22.253C9.10709 21.6896 8.80236 21.8101 8.3673 21.255C7.93225 20.7 7.99643 20.4127 7.71484 20.0991Z" fill="#160C0B" stroke="#060201" stroke-width="0.05"/>
<path d="M14.251 23.9596L15.9782 23.9974C16.1632 24.4422 16.3805 24.8727 16.6285 25.2857C17.0043 25.1918 17.3381 24.9753 17.5774 24.6705V24.0938C17.5774 24.0938 17.6209 23.364 15.6799 23.3538C15.552 23.2824 15.4669 23.4731 15.1822 23.4731C14.8976 23.4731 14.7626 23.2002 14.5414 23.3538C14.3091 23.3538 12.6543 23.4787 12.6543 23.9974V24.6702C12.6543 24.6702 13.3131 25.3381 13.6462 25.2854C13.8024 25.2606 14.251 23.9596 14.251 23.9596Z" fill="#CD9D8D" stroke="#707070" stroke-width="0.05"/>
<path d="M12.4854 23.4242C12.797 23.1861 13.095 22.9305 13.3778 22.6587" stroke="#331C1A" stroke-width="0.05"/>
<path d="M12.4854 23.6391L13.3574 22.7915C13.3574 22.7915 12.7601 23.6036 12.7692 23.7291C12.8852 23.5865 13.1612 23.0061 13.5627 22.8905" stroke="#331C1A" stroke-width="0.05"/>
<path d="M17.742 23.3859C17.4143 23.1702 17.0991 22.936 16.7979 22.6846" stroke="#331C1A" stroke-width="0.05"/>
<path d="M17.7572 23.6007L16.8276 22.8159C16.8276 22.8159 17.4805 23.5842 17.4805 23.7103C17.3547 23.5754 17.0384 23.016 16.6299 22.9283" stroke="#331C1A" stroke-width="0.05"/>
<path d="M13.6699 22.8719L13.9284 22.6846" stroke="#331C1A" stroke-width="0.05"/>
<path d="M13.8057 22.9431L14.1311 22.7471" stroke="#331C1A" stroke-width="0.05"/>
<path d="M13.9375 23.042L14.213 22.8186" stroke="#331C1A" stroke-width="0.05"/>
<path d="M14.1426 23.0417L14.4101 22.8271" stroke="#331C1A" stroke-width="0.05"/>
<path d="M14.4551 23.0415L14.6601 22.8455" stroke="#331C1A" stroke-width="0.05"/>
<path d="M16.486 22.9449L16.2275 22.7576" stroke="#331C1A" stroke-width="0.05"/>
<path d="M16.3508 23.0161L16.0254 22.8201" stroke="#331C1A" stroke-width="0.05"/>
<path d="M16.2179 23.1152L15.9424 22.8918" stroke="#331C1A" stroke-width="0.05"/>
<path d="M16.0146 23.1145L15.7471 22.8999" stroke="#331C1A" stroke-width="0.05"/>
<path d="M15.7011 23.1145L15.4961 22.9185" stroke="#331C1A" stroke-width="0.05"/>
<path d="M16.124 25.4292L15.8297 25.5899L16.2221 25.4292C16.2221 25.4292 16.1331 25.6076 16.124 25.5899C16.1149 25.5723 16.2844 25.5094 16.2844 25.5094L16.124 25.7148L16.3913 25.5899L15.8297 26.0273C15.8297 26.0273 16.2935 25.8665 16.2221 25.8936C16.1507 25.9206 15.687 26.1969 15.714 26.1789C15.741 26.161 16.9889 25.5899 16.9889 25.5899L16.2846 25.8309L16.7125 25.5899L16.3202 25.7148C16.6628 25.5276 16.9934 25.319 17.3099 25.0903C17.2089 25.2088 17.1018 25.322 16.9889 25.4292L17.7289 24.8501L17.3099 25.3409C17.5599 25.1773 17.7929 24.9889 18.0053 24.7786C18.0328 24.6805 18.0767 24.2705 18.0767 24.2705V24.7786L17.6934 25.2158L18.0767 24.9574L17.7289 25.3409" stroke="#331C1A" stroke-width="0.05"/>
<path d="M14.6626 25.5574L14.5289 25.3167C14.5285 25.4531 14.5496 25.5887 14.5915 25.7184C14.6449 25.7899 14.4487 25.5039 14.4487 25.5039L14.5289 25.8348L14.2614 25.559L14.4129 25.8348L13.6461 25.3175L14.0828 25.7193C13.8492 25.6268 13.6277 25.5065 13.423 25.3608C13.5715 25.5617 13.7523 25.7367 13.958 25.8784C13.958 25.8784 13.2359 25.5475 13.0042 25.1289C12.9953 25.2985 13.6461 25.8334 13.6461 25.8334L12.9061 25.2177L13.423 25.7176L12.7275 25.1821L13.0485 25.5566" stroke="#331C1A" stroke-width="0.05"/>
<path d="M10.5009 23.5731L10.4236 23.7113L10.3424 23.3553C10.2944 23.4599 10.257 23.569 10.2308 23.681C10.178 23.4943 10.136 23.3046 10.1049 23.113L10.0708 23.7169L9.94551 23.133L9.95041 23.6403L9.71417 22.809L9.7855 23.3555C9.67444 23.1485 9.58824 22.9291 9.5287 22.7018C9.51463 22.9332 9.53896 23.1654 9.6007 23.3888C9.48227 23.047 9.43713 22.6841 9.4682 22.3237C9.36153 22.5537 9.28858 22.7979 9.25161 23.0487L9.24197 22.3038L8.98203 22.7449L8.9214 22.1058L8.7699 22.4106" stroke="#30201D" stroke-width="0.05"/>
<path d="M19.9587 23.6463L20.036 23.7844L20.1173 23.4287C20.1651 23.5331 20.2024 23.642 20.2285 23.7539C20.2814 23.5667 20.3235 23.3766 20.3546 23.1846L20.3887 23.7899L20.5138 23.2061L20.5083 23.7125L20.7452 22.8824L20.6739 23.4285C20.7849 23.2216 20.871 23.0022 20.9305 22.7749C20.9445 23.0062 20.9202 23.2383 20.8585 23.4616C20.9772 23.1197 21.0225 22.7565 20.9915 22.3959C21.098 22.6261 21.1707 22.8705 21.2074 23.1215L21.2178 22.3769L21.4771 22.8179L21.5377 22.1791L21.6889 22.4834" stroke="#30201D" stroke-width="0.05"/>
<path d="M12.3383 24.6495L12.6618 25.0036L12.2159 24.704L12.5929 25.1126L12.1182 24.7476L12.5962 25.2292" stroke="#331C1A" stroke-width="0.05"/>
<path d="M14.5586 25.0221L14.7528 24.531L14.7942 24.783L14.8738 24.582L14.9311 24.8595L15.0138 24.6112L15.0838 24.8983L15.173 24.5983L15.2593 24.9176L15.3518 24.5826L15.4155 24.7836L15.4632 24.5602L15.68 25.0226" stroke="#331C1A" stroke-width="0.05"/>
<path d="M9.77832 14.3136C9.77832 14.3136 10.0445 14.1537 11.4009 14.5532C13.2361 14.6332 13.8217 14.8196 13.8217 14.8196" stroke="#A16855" stroke-width="0.05"/>
<path d="M13.2363 15.1121L14.8068 15.4049" stroke="#A16855" stroke-width="0.05"/>
<path d="M17.5186 15.2586C17.5186 15.2586 19.8605 14.7659 20.6573 14.2336" stroke="#A16855" stroke-width="0.05"/>
<path d="M18.1262 13.8616C17.5939 13.7552 19.3854 13.5225 19.3854 13.5225C19.3854 13.5225 18.6579 13.9683 18.1262 13.8616Z" fill="#A06754"/>
<path d="M13.2363 16.2302C13.2363 16.2302 16.6149 16.5763 17.4123 16.3899" stroke="#985D4B" stroke-width="0.05"/>
<path d="M17.917 16.3632C18.8987 16.1239 19.8589 15.8839 20.2846 15.6187" stroke="#9B5E4C" stroke-width="0.05"/>
<path d="M5.54066 17.1346C5.22325 17.5725 3.68229 12.3773 4.8924 7.94734C5.79034 7.43692 6.04133 7.41184 6.40309 7.09665C6.77876 6.73374 7.10206 6.32019 7.3636 5.86792C6.98824 5.77676 6.62397 5.64459 6.27744 5.47385C6.27744 5.47385 10.5547 1.8011 17.6437 2.00846C18.8197 2.11242 20.5919 2.81283 20.9983 4.11962C21.094 4.61885 21.1559 5.124 21.1835 5.63158L21.5926 5.37956C21.5926 5.37956 23.6954 5.29683 25.3213 9.20727C25.9779 10.6608 25.736 11.0071 25.736 11.0071C25.736 11.0071 25.5285 14.5025 25.1136 15.9563C24.6986 17.4101 23.7395 17.3282 22.9212 20.0722C22.5936 20.7064 22.5729 20.482 22.5729 20.482L23.453 17.5124L23.0438 16.7342C23.0438 16.7342 23.7602 9.40278 20.5473 10.8979C19.1498 11.5481 17.9102 12.395 15.5729 12.3042C13.0105 12.2141 11.7665 10.5221 10.8526 10.3696C9.23439 10.0996 7.79425 11.3146 7.79425 13.2939C7.79425 15.2733 7.29995 15.7903 7.79425 17.5116C7.04757 17.8394 7.18803 17.8237 7.18803 17.8237C7.18803 17.8237 7.51624 19.7614 7.79425 20.2338C7.36222 19.714 6.82769 18.145 6.76432 17.1338C6.19949 16.9581 5.85806 16.6967 5.54066 17.1346Z" fill="#160C0B" stroke="#0B0505" stroke-width="0.05"/>
<path d="M16.3125 12.1884C16.3125 12.1884 18.2152 9.66937 15.7192 6.90467C15.371 6.65898 12.181 7.39222 12.492 13.9414C11.6674 12.0662 11.2819 8.03142 14.8439 6.33526C18.5784 5.26258 17.5408 12.123 16.78 12.1881C16.0193 12.2532 16.3125 12.1884 16.3125 12.1884Z" fill="#060201"/>
<path d="M10.6301 14.6602C10.4747 14.0952 9.8633 6.12514 15.9037 5.77879C17.2984 5.77879 18.1354 7.40104 17.6408 10.7757C20.1583 7.76117 18.0905 4.79186 16.6969 4.47668C15.3033 4.16149 12.769 4.97304 11.1674 7.22097C9.56575 9.4689 9.22432 13.4028 10.6301 14.6602Z" fill="#060201"/>
<path d="M12.4228 13.6295C11.3584 10.3814 12.3321 7.87156 14.7256 6.51514C13.2909 7.95153 11.8384 9.4232 12.4228 13.6295Z" fill="#745754"/>
<path d="M16.5878 5.34863C15.8439 5.48182 14.1527 5.53919 13.0611 6.57741C13.0774 6.54983 13.0335 6.62181 13.0611 6.57741C13.8419 5.36409 16.0919 5.37455 16.5878 5.34863Z" fill="#160C0B"/>
<path d="M17.659 10.9003C17.9651 10.2079 18.8629 8.77331 18.6124 7.28777C18.6262 7.31668 18.5911 7.24008 18.6124 7.28777C19.1809 8.61412 17.9142 10.4752 17.659 10.9003Z" fill="#160C0B"/>
<path d="M16.5065 12.2359C16.776 11.5284 17.5975 10.0488 17.2697 8.57838C17.285 8.60653 17.2459 8.53188 17.2697 8.57838C17.9067 9.87315 16.7392 11.7981 16.5065 12.2359Z" fill="#160C0B"/>
<path d="M11.5615 8.21756C11.7475 6.99267 12.9979 5.31553 14.3278 5.02268C14.9012 4.86787 15.4903 4.77861 16.0838 4.75659C16.0838 4.75659 12.7474 5.42723 11.5615 8.21756Z" fill="#160C0B"/>
<path d="M12.5451 6.22151C12.5939 6.0835 12.5939 5.93293 12.5451 5.79492C12.5451 5.79492 8.502 8.96305 10.2307 13.8615C9.83225 10.2412 10.2045 8.45841 12.5451 6.22151Z" fill="#745754"/>
<path d="M4.43652 10.9583L7.57582 15.0118L4.43652 10.5681C4.43652 10.5681 7.69898 14.848 7.57582 14.6842C7.45266 14.5204 4.43652 10.3017 4.43652 10.3017C4.43652 10.3017 7.98498 14.848 7.57582 14.4793C7.16666 14.1107 4.54778 10.1379 4.54778 10.1379L7.57582 14.111L4.54778 9.78992L7.57582 13.9262L4.62938 9.52326L7.57582 13.7423L4.62938 9.17554" stroke="#8F7C78" stroke-width="0.05"/>
<path d="M6.34735 16.407L4.66936 14.1544L5.83591 15.4228L4.66936 13.8872L6.12247 15.4228L4.66936 13.0064L6.12247 15.259L4.56738 12.3098L7.26756 16.0987C7.26756 16.0987 5.26254 14.788 4.56738 11.4705" stroke="#442F2B" stroke-width="0.05"/>
<path d="M23.208 15.281C23.208 15.281 25.5205 12.2502 25.6841 11.8404C25.8478 11.4306 23.3308 14.933 23.3308 14.933L25.7866 11.1852L23.208 14.7281C23.208 14.7281 25.7657 11.1852 25.7866 10.5918C25.8076 9.99836 23.3308 14.4215 23.3308 14.4215C23.3308 14.4215 25.6224 10.4076 25.6841 10.3257C25.7458 10.2438 23.3308 14.2163 23.3308 14.2163C23.3308 14.2163 25.5817 10.2843 25.5817 10.08C25.5817 9.87566 23.2898 14.2163 23.3308 14.1143C23.3719 14.0122 25.2339 10.7776 25.2951 9.6294C25.3563 8.48116 24.6405 11.9843 24.1902 12.3122" stroke="#8F7C78" stroke-width="0.05"/>
<path d="M24.498 13.9416L25.5825 12.5576L24.7435 13.9416C24.9907 13.7181 25.223 13.4786 25.4389 13.2247C25.3984 13.204 24.6614 14.9316 23.3516 15.5463C24.3341 15.2799 25.4389 13.9405 25.4389 13.9405C25.4389 13.9405 24.1908 15.6483 23.4951 15.9146C23.802 16.0583 25.3574 14.5836 25.3574 14.5836L23.4951 16.2218L25.2753 14.8296L24.3134 15.9146L25.0298 15.3207L24.3134 16.2218L24.9471 15.9146L24.047 16.6724L24.9471 16.2218" stroke="#442F2B" stroke-width="0.05"/>
<path d="M5.63086 8.7937C5.76366 9.43758 7.02221 10.5957 8.33096 10.5138C7.39059 10.1465 6.22407 9.61406 5.63086 8.7937Z" fill="#060201" stroke="#060201" stroke-width="0.05"/>
<path d="M5.24023 9.31055C5.33945 9.9607 6.53662 11.1832 7.84832 11.1695C6.92806 10.752 5.79056 10.1599 5.24023 9.31055Z" fill="#060201" stroke="#060201" stroke-width="0.05"/>
<path d="M6.67507 8.73975C6.52725 8.65759 7.88504 9.82196 8.22835 9.79863C8.1738 9.52261 8.31683 9.5479 8.13092 9.431C7.65952 9.17236 7.17341 8.94155 6.67507 8.73975V8.73975Z" fill="#060201" stroke="#060201" stroke-width="0.05"/>
<path d="M6.2666 8.11395C8.41572 7.76568 9.33546 7.62229 10.5649 7.02832C11.3217 7.1513 9.31644 7.86799 9.31644 7.86799C9.31644 7.86799 6.71654 8.50304 6.2666 8.11395Z" fill="#060201" stroke="#060201" stroke-width="0.05"/>
<path d="M8.70066 8.60444C8.70066 8.60444 9.88757 8.37916 10.2356 7.86709C10.6858 7.74438 10.5012 8.11305 10.3378 8.27685C10.1744 8.44064 9.41699 8.87082 8.926 8.82973C8.43501 8.78865 8.70066 8.60444 8.70066 8.60444Z" fill="#060201" stroke="#060201" stroke-width="0.05"/>
<path d="M7.8418 7.51975C8.55817 7.27405 9.94872 7.02808 10.3171 6.7413C10.6855 6.45451 10.3171 6.96659 10.3171 6.96659C10.3171 6.96659 8.23001 7.82666 7.8418 7.51975Z" fill="#060201" stroke="#060201" stroke-width="0.05"/>
<path d="M8.33301 7.11955C8.78295 6.76108 9.949 6.33145 10.4821 5.77856C10.7687 6.04494 10.3796 6.12659 10.3796 6.12659C10.3796 6.12659 8.88544 7.14988 8.33301 7.11955Z" fill="#060201" stroke="#060201" stroke-width="0.05"/>
<path d="M6.79688 7.02798C6.79688 7.02798 9.47719 5.38973 10.6435 5.24634C9.47719 6.02396 6.79688 7.02798 6.79688 7.02798Z" fill="#060201" stroke="#060201" stroke-width="0.05"/>
<path d="M9.57422 6.83339C9.57422 6.83339 12.1477 5.74197 12.4122 5.50235C12.6767 5.26272 12.173 6.03483 11.4809 6.27446C10.7888 6.51408 9.57422 6.83339 9.57422 6.83339Z" fill="#060201" stroke="#060201" stroke-width="0.05"/>
<path d="M9.42773 6.46768C9.42773 6.46768 12.0012 5.37625 12.2657 5.13662C12.5302 4.89699 12.0266 5.66911 11.3344 5.90874C10.6423 6.14837 9.42773 6.46768 9.42773 6.46768Z" fill="#060201" stroke="#060201" stroke-width="0.05"/>
<path d="M9.42773 6.1022C9.42773 6.1022 12.0012 5.01077 12.2657 4.77114C12.5302 4.53152 12.0266 5.30363 11.3344 5.54326C10.6423 5.78289 9.42773 6.1022 9.42773 6.1022Z" fill="#060201" stroke="#060201" stroke-width="0.05"/>
<path d="M8.62891 4.96984C8.62891 4.96984 11.3484 4.19771 12.7582 3.66523C14.1681 3.13275 17.4904 2.58982 18.7339 4.70125C19.9773 6.81269 19.6211 8.2179 18.8231 9.97472C18.0252 11.7315 17.3077 12.1311 17.3077 12.1311" stroke="#060201" stroke-width="0.05"/>
<path d="M8.41016 5.55505C8.41016 5.55505 11.1296 4.78292 12.5395 4.25044C13.9494 3.71797 17.0184 3.80319 18.042 4.95335C19.0656 6.10352 19.6125 8.28995 18.7879 10.0462C17.9632 11.8025 17.3317 12.14 17.3317 12.14" stroke="#060201" stroke-width="0.05"/>
<path d="M18.6641 10.6137C18.6641 10.6137 20.6854 8.00486 20.6322 5.74176C20.579 3.47866 18.0521 2.33428 17.3077 2.46747C16.5632 2.60066 13.1051 2.36076 8.95508 4.54389" stroke="#060201" stroke-width="0.05"/>
<path d="M19.2976 10.3418C19.2976 10.3418 21.3762 6.96654 20.6052 4.27768C19.8343 1.58882 15.3914 2.30773 15.3914 2.30773C15.3914 2.30773 11.7738 2.86695 9.93848 3.7455" stroke="#060201" stroke-width="0.05"/>
<path d="M16.1373 10.6137C15.9599 9.1368 15.1793 7.55287 14.674 7.33944C14.1687 7.12601 15.605 7.20625 15.9508 8.85608C16.2966 10.5059 16.1373 10.6137 16.1373 10.6137Z" fill="#040402"/>
<path d="M15.4386 11.5355C15.4386 11.5355 15.4268 8.39715 14.3613 7.68213C15.124 7.83986 15.5599 9.07578 15.5957 9.59667C15.5844 10.2456 15.5319 10.8932 15.4386 11.5355Z" fill="#040402"/>
<path d="M15.1478 11.742C15.1478 11.742 15.4382 8.78541 13.8887 8.27637C14.1185 8.79754 14.6998 8.84607 15.1478 11.742Z" fill="#040402"/>
<path d="M14.6679 11.5968C14.6679 11.5968 14.6307 9.86288 13.8945 8.98682C14.5464 9.36901 14.798 10.646 14.8167 11.0842C14.8354 11.5224 14.6679 11.5968 14.6679 11.5968Z" fill="#040402"/>
<path d="M14.4627 11.3737C14.5002 12.2685 14.2486 9.89155 13.4383 9.35108C12.628 8.8106 13.4107 8.87567 13.5782 9.0902C13.7457 9.30474 14.4258 10.4789 14.4627 11.3737Z" fill="#040402"/>
<path d="M14.1653 11.6068C13.9961 10.9518 13.716 10.3307 13.3372 9.7703C12.731 8.84818 13.3787 9.51717 13.3787 9.51717C13.6204 9.7395 13.8051 10.0167 13.9174 10.3254C14.0521 10.7408 14.1353 11.1711 14.1653 11.6068V11.6068Z" fill="#040402"/>
<path d="M19.4433 8.33851C19.4433 8.33851 20.6881 5.88651 19.1678 3.98161C17.6474 2.07672 13.2888 2.7013 8.89746 4.60482" stroke="#060201" stroke-width="0.05"/>
<path d="M21.7231 8.93261C21.9625 8.88325 23.5054 9.60186 23.5054 9.60186L22.149 9.49542C22.149 9.49542 20.5526 9.49541 18.3982 11.5986C18.2172 11.8323 17.9649 12.0006 17.6797 12.0778C17.6797 12.0778 19.2226 10.374 19.8081 9.94793C20.403 9.53314 21.046 9.1922 21.7231 8.93261V8.93261Z" fill="#0F0607" stroke="#060201" stroke-width="0.05"/>
<path d="M22.7002 9.84488C22.9295 9.84425 24.2598 10.6808 24.2598 10.6808L23.0155 10.3717C23.0155 10.3717 21.5337 10.1098 19.2313 11.4648C19.019 11.6278 18.7622 11.7226 18.4949 11.7365C19.2281 11.2327 19.9898 10.7717 20.7761 10.3556C21.3964 10.1141 22.0418 9.94282 22.7002 9.84488V9.84488Z" fill="#0F0607" stroke="#060201" stroke-width="0.05"/>
<path d="M19.9932 9.28263C19.9932 9.28263 21.3763 7.76598 22.4666 8.08476C23.2025 8.33523 23.8746 8.74412 24.4355 9.28263C24.4355 9.28263 23.5577 7.49878 22.2542 7.49878C20.9506 7.49878 19.9932 9.28263 19.9932 9.28263Z" fill="#0F0607" stroke="#060201" stroke-width="0.05"/>
<path d="M20.3926 7.89296C20.3926 7.89296 21.5438 6.37633 22.4517 6.6951C23.0831 6.96212 23.644 7.37217 24.0902 7.89296C24.0902 7.89296 23.3598 6.10913 22.275 6.10913C21.1902 6.10913 20.3926 7.89296 20.3926 7.89296Z" fill="#0F0607" stroke="#060201" stroke-width="0.05"/>
<path d="M13.5792 23.4907C13.5792 23.4907 14.3672 24.2576 15.2084 24.2035C15.7614 24.1454 16.2877 23.9363 16.7299 23.5988C16.7299 23.5988 16.0289 23.2734 15.7308 23.2982C15.4327 23.323 15.4172 23.4405 15.2073 23.4405C14.9973 23.4405 15.0246 23.3302 14.6687 23.2982C14.2982 23.3135 13.9314 23.3784 13.5781 23.4912" fill="#975F50"/>
<path d="M13.5967 23.5332L14.561 23.6435C14.7659 23.7073 14.9788 23.7416 15.1933 23.7452C15.5212 23.7452 15.6083 23.6567 15.8893 23.6435C16.1704 23.6302 16.741 23.6435 16.741 23.6435" stroke="#5A2B19" stroke-width="0.05"/>
<path d="M16.265 20.0565C16.3477 20.1094 16.8905 20.0532 17.0478 20.0896C17.2051 20.126 19.8491 20.5451 20.7522 20.0896C21.6554 19.634 21.3295 18.534 21.2085 18.4224C21.0876 18.3107 18.1538 18.2547 17.539 18.7952C16.9243 19.3357 16.1832 20.0035 16.265 20.0565Z" fill="white"/>
<path d="M17.6724 18.9758C17.6724 19.3867 17.8067 19.7863 18.055 20.1137C18.0699 20.1305 18.1564 20.2294 18.171 20.2404C18.4705 20.2835 18.7724 20.3074 19.0749 20.3118C19.3679 20.3251 19.6615 20.3157 19.9531 20.2839C20.2617 19.9748 20.4404 19.5594 20.4529 19.1226C20.4651 18.9033 20.4315 18.6839 20.3543 18.4783L20.3392 18.4405C20.3277 18.4123 20.3089 18.3649 20.2954 18.3377L20.26 18.3234C20.0455 18.3153 19.8308 18.3226 19.6175 18.3452C19.1175 18.3634 18.6209 18.434 18.1357 18.5559C18.0028 18.6028 17.8725 18.6566 17.7451 18.717L17.7058 18.7312C17.6992 18.7615 17.6931 18.7954 17.6888 18.8245C17.6876 18.8343 17.687 18.8443 17.6873 18.8542C17.6786 18.8942 17.6736 18.9349 17.6724 18.9758V18.9758Z" fill="url(#paint2_linear)"/>
<path d="M18.1657 19.0551L18.1652 19.0644C18.162 19.1257 18.1666 19.187 18.1789 19.2471C18.2308 19.4377 18.3433 19.6063 18.4994 19.7273C18.6555 19.8483 18.8467 19.9151 19.0441 19.9178C19.2719 19.9441 19.5008 19.8794 19.681 19.7376C19.8612 19.5958 19.9782 19.3885 20.0063 19.1608C20.0146 18.969 19.9485 18.7814 19.8219 18.6371C19.8117 18.6247 19.8008 18.6123 19.7895 18.6007C19.7557 18.5654 19.719 18.5331 19.6798 18.5041C19.2006 18.5333 18.7258 18.6125 18.2631 18.7404C18.251 18.7616 18.2397 18.7826 18.2297 18.8044L18.2181 18.8314C18.1883 18.903 18.1706 18.9791 18.1656 19.0565L18.1657 19.0551Z" fill="#040807"/>
<path d="M19.7957 18.5761C19.8153 18.5561 19.8393 18.5409 19.8657 18.5316C19.8921 18.5223 19.9203 18.5192 19.9482 18.5224C19.976 18.5257 20.0027 18.5352 20.0263 18.5503C20.0499 18.5654 20.0697 18.5857 20.0843 18.6097C20.1106 18.6665 20.1168 18.7306 20.1019 18.7914C20.0869 18.8522 20.0518 18.9062 20.0022 18.9443C19.9825 18.9643 19.9585 18.9795 19.9321 18.9888C19.9056 18.9981 19.8774 19.0012 19.8496 18.998C19.8217 18.9947 19.795 18.9851 19.7714 18.97C19.7478 18.9548 19.728 18.9345 19.7134 18.9105C19.6872 18.8537 19.681 18.7896 19.696 18.7288C19.7109 18.6681 19.7461 18.6142 19.7957 18.5761V18.5761Z" fill="#DAE6F4"/>
<path d="M16.0293 20.177C16.3666 19.6465 16.8046 19.1874 17.3185 18.8258C18.0131 18.4157 16.7379 19.099 16.7379 19.099L17.1865 18.7576C17.1865 18.7576 18.5542 17.8874 21.7506 18.4565C21.9928 18.5668 22.138 18.6018 21.3753 18.5776C21.5001 18.6964 21.4855 18.8533 21.6553 19.0566C21.7598 19.1982 21.8976 19.3118 22.0564 19.3875C22.3358 19.5237 22.0785 19.6445 21.9132 19.5066C21.7478 19.3687 21.4963 19.099 21.4963 19.099C21.4963 19.099 21.6892 19.4382 20.9152 20.0322C20.7458 20.1532 20.7094 20.105 20.8667 19.9472C21.024 19.7895 21.3042 19.4523 21.3026 19.3172C21.3009 19.182 21.5324 18.3355 20.2724 18.4204C19.0124 18.5053 18.0583 18.4789 17.5863 18.8252C17.1262 19.2018 16.6883 19.6048 16.2748 20.0322C16.4975 20.0187 16.721 20.0307 16.941 20.068C17.2074 20.1284 16.0293 20.177 16.0293 20.177Z" fill="#211006" stroke="#181216" stroke-width="0.05"/>
<path d="M16.9068 20.0809C16.9068 20.0809 18.226 18.1421 21.3375 19.0629C21.3485 18.9026 21.2963 18.7444 21.1923 18.6221C21.0882 18.4998 20.9405 18.4232 20.7807 18.4085C20.6115 18.4085 18.226 18.1906 17.4744 18.7965C17.0066 19.1786 16.5805 19.6091 16.2031 20.0809H16.9068Z" fill="black" fill-opacity="0.15"/>
<path d="M13.5142 20.1254C13.1708 20.0503 12.8208 20.0093 12.4694 20.003C12.3601 20.0225 12.2497 20.0346 12.1388 20.0394H12.0836C11.9376 20.0468 11.7635 20.0493 11.5816 20.0468C11.1813 20.0468 10.7275 20.0192 10.3396 19.9781L10.2861 19.9743C10.0234 19.9581 9.76403 19.9073 9.51463 19.8232C9.48901 19.8138 9.46755 19.7956 9.45401 19.7719C9.28102 19.4324 9.16335 19.0673 9.10547 18.6906C9.10534 18.6625 9.10981 18.6346 9.1187 18.6079V18.601C9.20136 18.3683 9.36116 17.921 9.67471 17.905H10.0053C10.1654 17.9111 10.3655 17.9238 10.59 17.945C11.1544 17.9871 11.7108 18.1029 12.2451 18.2894C12.3757 18.3389 12.5007 18.4023 12.6179 18.4783C12.6317 18.4874 12.6455 18.4965 12.6573 18.5059C12.699 18.5355 12.7384 18.5683 12.7749 18.6041C13.0565 18.8567 13.4398 19.7906 13.5142 20.1254Z" fill="#FBFDFF"/>
<path d="M12.6695 18.7537C12.6748 19.1995 12.5031 19.6292 12.1923 19.9485C12.1761 19.9657 12.159 19.982 12.1411 19.9973C12.1273 20.0106 12.1135 20.0249 12.0973 20.0362H12.0383C11.8179 20.0522 11.5947 20.0481 11.3619 20.0481H11.3233C10.9718 20.0423 10.6208 20.0176 10.2719 19.9742V19.9742C9.97134 19.6399 9.80961 19.2033 9.81979 18.7537C9.81924 18.519 9.86542 18.2865 9.95562 18.0698L9.97326 18.0301C9.98648 18.0001 10.0082 17.951 10.0234 17.9223L10.06 17.9102C10.2797 17.9133 10.4988 17.9329 10.7155 17.9689C11.2261 18.0167 11.7299 18.1204 12.218 18.278C12.3515 18.3354 12.4819 18.3998 12.6087 18.471L12.6481 18.4884C12.6533 18.5212 12.6574 18.5582 12.6605 18.5893C12.6612 18.6 12.6612 18.6107 12.6605 18.6213C12.6674 18.6651 12.6705 18.7094 12.6695 18.7537Z" fill="url(#paint3_linear)"/>
<path d="M12.3038 18.7469V18.7579C12.3038 18.83 12.2955 18.9019 12.279 18.9721C12.2241 19.1849 12.0996 19.373 11.9253 19.5065C11.7509 19.6401 11.5369 19.7112 11.3174 19.7087C11.1903 19.7111 11.0639 19.6884 10.9455 19.6419C10.8271 19.5955 10.719 19.5261 10.6274 19.4378C10.5358 19.3495 10.4625 19.244 10.4117 19.1274C10.3608 19.0107 10.3334 18.8851 10.3311 18.7579C10.3309 18.5351 10.411 18.3197 10.5567 18.1512C10.5683 18.1374 10.581 18.1236 10.5939 18.1101C10.6315 18.0711 10.6723 18.0354 10.716 18.0034C11.2285 18.0678 11.732 18.1905 12.2168 18.3691C12.2283 18.3947 12.2393 18.4204 12.249 18.4466L12.26 18.4788C12.2878 18.5656 12.3022 18.656 12.303 18.7471L12.3038 18.7469Z" fill="#040807"/>
<path d="M12.2498 18.9588C12.3424 18.8521 12.3434 18.7012 12.2519 18.6217C12.1605 18.5422 12.0113 18.5642 11.9187 18.6709C11.8261 18.7775 11.8251 18.9285 11.9165 19.008C12.008 19.0875 12.1572 19.0654 12.2498 18.9588Z" fill="#DDE7F3"/>
<path d="M9.16288 18.5317C9.18188 18.7466 9.22884 18.958 9.30258 19.1607C9.36556 19.4048 9.45317 19.6417 9.56405 19.868L9.25849 19.5975L9.01465 18.6889L9.16288 18.5317Z" fill="#211006" stroke="#181216" stroke-width="0.05"/>
<path d="M13.6266 20.1751C13.183 19.9595 12.4225 20.0425 12.1046 20.034C12.6939 20.0213 13.0948 19.9068 13.4188 19.9363C13.1485 19.2732 12.9411 18.9765 12.7928 18.6445C12.7551 18.5977 12.7114 18.5562 12.6628 18.5209C12.6506 18.5111 12.6379 18.5019 12.6247 18.4933C12.5105 18.4184 12.3879 18.357 12.2594 18.3105C11.7071 18.1324 11.1351 18.0231 10.5561 17.9849C10.3357 17.9658 10.1428 17.9542 9.99347 17.9468H9.95462C9.79233 17.9394 9.69452 17.938 9.69452 17.938C9.69452 17.938 9.41899 18.2854 9.16688 18.591L9.10765 18.664C9.08285 18.6946 9.05805 18.7239 9.03463 18.7525C8.96823 18.8309 8.90816 18.8987 8.86077 18.9508C8.6128 19.2125 8.98779 18.4269 9.20628 18.0513C8.7423 18.0428 8.62988 17.8679 8.62988 17.8679H9.59009L9.04042 17.571C9.04042 17.571 9.12748 17.4943 9.85157 17.8241C9.90667 17.8183 9.95985 17.8139 10.0152 17.8117H10.0568C10.2764 17.8036 10.4964 17.8128 10.7145 17.8393C11.227 17.9037 11.7306 18.0263 12.2153 18.2049C12.3652 18.2601 12.498 18.3152 12.6077 18.3679L12.6471 18.3861C12.7214 18.4219 12.793 18.4632 12.8611 18.5096C13.229 18.7674 13.4921 19.8506 13.6266 20.1751Z" fill="#211006" stroke="#181216" stroke-width="0.05"/>
<path d="M13.0461 19.9479C12.7389 19.8084 12.2867 17.4457 9.19754 18.9C8.99282 18.429 9.05184 18.5645 9.05184 18.5645L9.53233 17.9492C9.53233 17.9492 11.6649 17.7253 12.7921 18.5645C13.0787 19.0369 13.3249 19.5327 13.528 20.0466C13.3611 20.0637 13.1929 20.0293 13.0461 19.9479V19.9479Z" fill="black" fill-opacity="0.15"/>
<path d="M15.9946 18.5434C16.607 18.4193 17.1978 18.205 17.7475 17.9075C18.6147 17.3982 19.3988 16.7588 20.0724 16.0115C20.6821 16.0228 21.2409 15.9773 22.651 17.3172C22.1683 17.2036 21.9143 16.8517 21.1392 16.9427C20.3642 17.0337 19.7674 17.1015 18.878 17.8281C17.7728 18.555 16.5404 18.8843 15.7529 18.8388C15.8279 18.7359 15.9086 18.6373 15.9946 18.5434V18.5434Z" fill="#1A0E10"/>
<path d="M20.1646 16.5222C20.4546 16.5221 20.7442 16.5439 21.0309 16.5873L20.2578 16.7365C20.2578 16.7365 19.9783 16.5509 20.1646 16.5222Z" fill="#3B302E" fill-opacity="0.45"/>
<path d="M20.4419 16.8578C20.4419 16.8578 19.9113 16.6805 19.6788 16.9322C19.4462 17.1839 20.4419 16.8578 20.4419 16.8578Z" fill="#3B302E" fill-opacity="0.45"/>
<path d="M19.4166 17.2397C18.9677 17.5431 18.4942 17.8081 18.001 18.032C18.2795 17.5847 19.4166 17.2397 19.4166 17.2397Z" fill="#463430" fill-opacity="0.3"/>
<path d="M17.3018 18.3393C17.3018 18.3393 18.345 18.1156 18.7268 17.7522C18.2321 17.8961 17.7543 18.093 17.3018 18.3393V18.3393Z" fill="#463430" fill-opacity="0.3"/>
<path d="M16.2266 18.6193C16.2266 18.6193 17.2135 18.6193 17.5954 18.2559C17.1233 18.3066 16.6617 18.4292 16.2266 18.6193Z" fill="#463430" fill-opacity="0.3"/>
<path d="M13.7326 18.324C13.1799 18.198 12.6512 17.9832 12.1671 17.6881C11.3807 17.1681 10.6805 16.5284 10.0915 15.792C9.54653 15.8033 9.04697 15.7578 7.78809 17.0977C8.21901 16.9841 8.44581 16.6322 9.13821 16.7232C9.8981 16.7567 10.6182 17.0724 11.158 17.6087C12.145 18.3356 13.2449 18.6648 13.9484 18.6193C13.882 18.5169 13.8099 18.4183 13.7326 18.324Z" fill="#1A0E10"/>
<path d="M10.0762 16.3027C9.78625 16.3026 9.49667 16.3244 9.20996 16.3678L9.98306 16.517C9.98306 16.517 10.2619 16.3314 10.0762 16.3027Z" fill="#3B302E" fill-opacity="0.45"/>
<path d="M9.73145 16.638C9.73145 16.638 10.2624 16.4607 10.4949 16.7125C10.7275 16.9642 9.73145 16.638 9.73145 16.638Z" fill="#3B302E" fill-opacity="0.45"/>
<path d="M10.5879 17.0205C11.0368 17.3238 11.5103 17.5888 12.0035 17.8128C11.7244 17.3655 10.5879 17.0205 10.5879 17.0205Z" fill="#463430" fill-opacity="0.3"/>
<path d="M12.6083 18.1198C12.6083 18.1198 11.5655 17.8962 11.1836 17.5327C11.6781 17.6768 12.1558 17.8737 12.6083 18.1198V18.1198Z" fill="#463430" fill-opacity="0.3"/>
<path d="M13.4743 18.3996C13.4743 18.3996 12.4874 18.3996 12.1055 18.0361C12.5776 18.0868 13.0392 18.2093 13.4743 18.3996V18.3996Z" fill="#463430" fill-opacity="0.3"/>
<defs>
<linearGradient id="paint0_linear" x1="8.01679" y1="16.2666" x2="8.01679" y2="25.04" gradientUnits="userSpaceOnUse">
<stop stop-color="#740015"/>
<stop offset="1" stop-color="#A5001E"/>
</linearGradient>
<linearGradient id="paint1_linear" x1="22.643" y1="17.0752" x2="22.4959" y2="25.7229" gradientUnits="userSpaceOnUse">
<stop stop-color="#740015"/>
<stop offset="1" stop-color="#A5001E"/>
</linearGradient>
<linearGradient id="paint2_linear" x1="18.8149" y1="18.6119" x2="19.1498" y2="20.4458" gradientUnits="userSpaceOnUse">
<stop stop-color="#000302"/>
<stop offset="1" stop-color="#037147"/>
</linearGradient>
<linearGradient id="paint3_linear" x1="11.9229" y1="20.7649" x2="12.4536" y2="18.8777" gradientUnits="userSpaceOnUse">
<stop stop-color="#037147"/>
<stop offset="1" stop-color="#000302"/>
</linearGradient>
</defs>
</svg>
