<svg width="30" height="30" viewBox="0 0 30 30" fill="none" xmlns="http://www.w3.org/2000/svg">
<circle cx="15" cy="15" r="15" fill="white"/>
<path d="M8.26542 17.6322L14.664 21.8987C14.8822 22.0329 15.1155 22.0346 15.336 21.8987L21.7346 17.6322C21.8985 17.5231 22 17.3277 22 17.1323V12.8669C22 12.6715 21.8985 12.4761 21.7346 12.367L15.336 8.10106C15.1178 7.9669 14.8845 7.96573 14.664 8.10106L8.26542 12.367C8.1015 12.4761 8 12.6715 8 12.8669V17.1323C8 17.3277 8.1015 17.5231 8.26542 17.6322V17.6322ZM14.3986 20.2735L9.68758 17.1329L11.7893 15.7264L14.3986 17.4689V20.2735ZM15.6014 20.2735V17.4689L18.2107 15.7264L20.3124 17.1329L15.6014 20.2735ZM20.7972 16.007L19.2892 14.9996L20.7972 13.9916V16.007ZM15.6014 9.72624L20.3124 12.8669L18.2107 14.2733L15.6014 12.5309V9.72624ZM15 13.5774L17.1251 14.9996L15 16.4218L12.8749 14.9996L15 13.5774ZM14.3986 9.72624V12.5309L11.7893 14.2733L9.68758 12.8669L14.3986 9.72624ZM9.20342 13.9928V13.9922L10.7113 15.0002L9.20342 16.0082V13.9928Z" fill="black"/>
</svg>
