<svg width="33" height="31" viewBox="0 0 33 31" fill="none" xmlns="http://www.w3.org/2000/svg">
<path d="M30.2807 7.71935C28.8164 5.32909 26.8081 3.39994 24.455 2.12297C21.9594 0.765118 19.2114 0.0585938 16.4257 0.0585938C13.6399 0.0585937 10.8919 0.765118 8.39636 2.12297C6.04321 3.39995 4.03499 5.3291 2.57063 7.71935C1.38873 9.63108 0.666481 11.8395 0.470968 14.1394C0.275454 16.4393 0.613019 18.7561 1.45231 20.8746C3.1565 25.1983 6.796 28.5561 11.3605 30.0191C11.5008 30.0604 11.6475 30.0694 11.7912 30.0457C11.9349 30.0219 12.0726 29.9658 12.1956 29.881C12.2805 29.8114 12.3494 29.7211 12.3969 29.6172C12.4445 29.5133 12.4693 29.3987 12.4694 29.2824C12.4694 29.2421 12.4694 28.8805 12.4694 28.1974V26.4205L11.9901 26.4993C11.6068 26.5556 11.2199 26.5776 10.8332 26.5652C10.3471 26.5568 9.86211 26.5107 9.38191 26.4271C8.89137 26.3387 8.42418 26.1345 8.01266 25.8286C7.59791 25.5331 7.27733 25.1033 7.09541 24.5988L6.88993 24.1384C6.70438 23.7641 6.47419 23.4186 6.20544 23.1111C5.95161 22.7943 5.63566 22.5447 5.28131 22.3811L5.13064 22.2826C5.03467 22.2112 4.94528 22.1297 4.86373 22.0393C4.78518 21.9579 4.71996 21.8622 4.67092 21.7565C4.62988 21.6659 4.67092 21.5922 4.7811 21.5263C4.97478 21.4544 5.17952 21.4253 5.3835 21.4408L5.80108 21.5012C6.16643 21.5938 6.51403 21.7564 6.82795 21.9813C7.23232 22.2401 7.57854 22.5952 7.84105 23.0204C8.12882 23.5334 8.52582 23.9622 8.99794 24.2698C9.41002 24.548 9.88332 24.6981 10.3672 24.704C10.7661 24.7092 11.1646 24.6762 11.5582 24.6055C11.8783 24.5372 12.1919 24.436 12.4947 24.3033C12.5747 23.4951 12.9407 22.7537 13.5139 22.2384C12.7956 22.1722 12.0821 22.0536 11.3781 21.8834C10.6969 21.6948 10.0376 21.4211 9.41331 21.0676C8.78395 20.7486 8.21498 20.3024 7.73611 19.7524C7.24863 19.1366 6.87649 18.4215 6.64093 17.6479C6.34082 16.6832 6.19716 15.6682 6.21646 14.6491C6.2073 13.8732 6.34931 13.1042 6.633 12.3934C6.91669 11.6826 7.33551 11.0464 7.86144 10.5275C7.60859 9.8775 7.49034 9.17406 7.51521 8.46788C7.54007 7.7617 7.70743 7.07036 8.00522 6.44368C8.61426 6.35107 9.23478 6.44432 9.79866 6.7132C10.3932 6.92698 10.9741 7.18397 11.5376 7.48247C11.9072 7.69941 12.2221 7.87707 12.4275 8.02814C15.0544 7.32683 17.7964 7.32683 20.4233 8.02814L21.2174 7.54803C21.8305 7.1908 22.4721 6.89588 23.1342 6.66697C23.6655 6.4215 24.2489 6.34404 24.8183 6.44338C25.1247 7.06633 25.2991 7.757 25.3287 8.46406C25.3582 9.17113 25.2422 9.87641 24.9891 10.5275C25.5148 11.0468 25.9334 11.6833 26.2167 12.3943C26.5001 13.1054 26.6417 13.8747 26.6321 14.6506C26.6468 15.6736 26.5033 16.692 26.2077 17.6624C25.9719 18.4335 25.5972 19.1446 25.1059 19.7536C24.6195 20.3008 24.0466 20.7464 23.4149 21.0688C22.7909 21.4089 22.1342 21.6713 21.457 21.8514C20.753 22.0216 20.0395 22.1402 19.3212 22.2064C19.6965 22.5511 19.9907 22.9897 20.1789 23.4853C20.3672 23.9809 20.444 24.5189 20.4029 25.0539V29.2758C20.4019 29.3907 20.4247 29.5043 20.4698 29.608C20.5149 29.7117 20.5809 29.8028 20.6629 29.8743C20.7834 29.959 20.9188 30.0151 21.0602 30.0389C21.2017 30.0626 21.3462 30.0536 21.4843 30.0124C26.0424 28.5425 29.6736 25.1859 31.3778 20.867C32.2172 18.751 32.5567 16.437 32.3649 14.139C32.1731 11.841 31.4563 9.63304 30.2807 7.71935Z" fill="white"/>
</svg>
