<svg width="30" height="30" viewBox="0 0 30 30" fill="none" xmlns="http://www.w3.org/2000/svg">
<circle cx="15" cy="15" r="15" fill="url(#paint0_linear)"/>
<path d="M21.5183 7.53179C21.8036 7.57432 22.0604 7.72839 22.2322 7.96016C22.404 8.19192 22.4768 8.48241 22.4345 8.76779C22.4139 8.90922 22.3657 9.0452 22.2925 9.16795C22.2193 9.2907 22.1226 9.39781 22.0079 9.48313C21.8933 9.56846 21.763 9.63034 21.6244 9.66522C21.4858 9.70009 21.3417 9.70729 21.2003 9.68639C19.8743 9.48959 18.0047 11.4348 15.9233 15.4092C13.3397 20.3442 10.9511 22.6794 8.48328 22.4964C8.19568 22.4748 7.92844 22.3398 7.74031 22.1212C7.55219 21.9026 7.45859 21.6182 7.48008 21.3306C7.52448 20.7306 8.04528 20.2806 8.64408 20.325C10.0067 20.4258 11.9021 18.4032 13.9997 14.397C16.5983 9.43379 19.0151 7.16099 21.5183 7.53179Z" fill="white" stroke="white" stroke-width="0.778"/>
<defs>
<linearGradient id="paint0_linear" x1="6.35015e-08" y1="3.0912" x2="28.6896" y2="21.7386" gradientUnits="userSpaceOnUse">
<stop stop-color="#2BEAED"/>
<stop offset="1" stop-color="#0FCCCE"/>
</linearGradient>
</defs>
</svg>
