<svg width="30" height="30" viewBox="0 0 30 30" fill="none" xmlns="http://www.w3.org/2000/svg">
<circle cx="15" cy="15" r="14.75" fill="white" stroke="white" stroke-width="0.5"/>
<path d="M15 0C6.72416 0 0 6.71261 0 14.9742C0 21.1188 3.67242 26.3857 9 28.7092C8.94826 27.6765 9 26.3857 9.25863 25.2497C9.569 24.0104 11.1724 17.0913 11.1724 17.0913C11.1724 17.0913 10.7069 16.1102 10.7069 14.716C10.7069 12.4957 12 10.8434 13.6034 10.8434C14.9483 10.8434 15.6207 11.8761 15.6207 13.1153C15.6207 14.4579 14.7414 16.5232 14.2758 18.4338C13.9138 20.0345 15.0517 21.3253 16.6552 21.3253C19.5 21.3253 21.4138 17.6592 21.4138 13.3735C21.4138 10.0688 19.1896 7.64195 15.1552 7.64195C10.6034 7.64195 7.75863 11.0499 7.75863 14.8192C7.75863 16.1101 8.12068 17.0396 8.74137 17.7624C9 18.0723 9.05174 18.2272 8.94826 18.5886C8.89652 18.8468 8.68963 19.518 8.63789 19.7762C8.53441 20.1376 8.2241 20.2925 7.86205 20.1376C5.74137 19.2598 4.81031 16.9879 4.81031 14.4061C4.81031 10.172 8.37926 5.06012 15.5172 5.06012C21.2586 5.06012 25.0345 9.19096 25.0345 13.6316C25.0345 19.518 21.7758 23.907 16.9655 23.907C15.3621 23.907 13.8104 23.0292 13.2931 22.0482C13.2931 22.0482 12.4138 25.5077 12.2586 26.179C11.9483 27.315 11.3276 28.5026 10.7586 29.3804C12.1035 29.7935 13.5517 30 15 30C23.2758 30 30 23.2874 30 15.0258C30 6.76414 23.2759 0 15 0Z" fill="#CB1F24"/>
</svg>
