<svg width="30" height="30" viewBox="0 0 30 30" fill="none" xmlns="http://www.w3.org/2000/svg">
<path d="M15 30C23.2843 30 30 23.2843 30 15C30 6.71573 23.2843 0 15 0C6.71573 0 0 6.71573 0 15C0 23.2843 6.71573 30 15 30Z" fill="#001935"/>
<path d="M15.5561 10.1694V6.14087H12.9557C12.8971 6.28793 12.8683 6.46735 12.8683 6.6465C12.841 6.73394 12.8089 6.79731 12.8089 6.88448C12.5423 8.37838 11.7664 9.4204 10.4521 9.98967C10.062 10.1696 9.70398 10.1969 9.31787 10.1696V13.4173H11.2286C11.2597 17.9875 11.2597 20.3435 11.2597 20.4633V20.7342C11.4995 22.7281 12.5421 23.9231 14.3927 24.3723C15.1373 24.5787 15.9419 24.6707 16.7494 24.6707C17.7922 24.6386 18.8072 24.4597 19.8225 24.134V20.312C19.2295 20.4911 18.6885 20.6419 18.2112 20.7895C17.2871 21.0596 16.5112 20.8807 15.8815 20.2839C15.8221 20.1927 15.7341 20.0726 15.7031 19.9531C15.6152 19.4761 15.5593 18.9697 15.5593 18.4929V13.4171H19.703V10.1694H15.5561Z" fill="#F1F2F2"/>
</svg>
