<svg width="30" height="30" viewBox="0 0 30 30" fill="none" xmlns="http://www.w3.org/2000/svg">
<path d="M14.9999 0C23.2847 0 30 6.71625 30 15.0001C30 23.2848 23.2847 30 14.9999 30C6.71522 30 0 23.2847 0 15.0001C0 6.71625 6.71532 0 14.9999 0Z" fill="#1DA1F2"/>
<path d="M24.3777 10.1053C23.7225 10.3884 23.0174 10.5787 22.2778 10.665C23.0334 10.2253 23.6128 9.53058 23.8856 8.70098C23.1787 9.10878 22.3968 9.40412 21.5634 9.56251C20.8968 8.87347 19.9471 8.44312 18.8953 8.44312C16.8778 8.44312 15.2409 10.0303 15.2409 11.9896C15.2409 12.2681 15.2729 12.539 15.3356 12.7988C12.2981 12.6507 9.60371 11.2378 7.80187 9.09189C7.48685 9.61595 7.30684 10.2244 7.30684 10.875C7.30684 12.105 7.9518 13.1924 8.93248 13.8272C8.33252 13.8085 7.76994 13.65 7.27595 13.3829V13.4279C7.27595 15.1472 8.53591 16.5807 10.2084 16.9069C9.90183 16.9876 9.5793 17.0316 9.24554 17.0316C9.01023 17.0316 8.78151 17.0101 8.55836 16.9679C9.02331 18.3779 10.3734 19.4035 11.9737 19.4317C10.7222 20.3841 9.14617 20.9504 7.4334 20.9504C7.13806 20.9504 6.84745 20.9335 6.56055 20.9008C8.1796 21.9076 10.0997 22.4954 12.1649 22.4954C18.8887 22.4954 22.5656 17.088 22.5656 12.4004L22.5553 11.941C23.2677 11.4422 23.8874 10.8178 24.3777 10.1053Z" fill="white"/>
</svg>
