<svg width="30" height="30" viewBox="0 0 30 30" fill="none" xmlns="http://www.w3.org/2000/svg">
<path d="M14.9999 0C23.2847 0 30 6.71625 30 15.0001C30 23.2848 23.2847 30 14.9999 30C6.71522 30 0 23.2847 0 15.0001C0 6.71625 6.71532 0 14.9999 0Z" fill="#1AB7EA"/>
<path d="M6.5625 12.1875C7.96498 11.0681 9.95909 8.60999 11.5144 8.60999C13.0678 8.60999 13.4494 10.4447 13.6613 12.1087C13.876 13.7728 14.4863 17.4131 15.3076 17.4131C16.1307 17.4131 18.0047 14.1928 17.8979 12.9487C17.7929 11.7046 16.4354 11.8912 15.6892 12.2485C16.3755 9.76038 17.9598 8.4375 19.9857 8.4375C22.0126 8.4375 22.501 9.86902 22.501 11.6269C22.501 14.3025 17.0776 22.5 13.801 22.5C11.7741 22.5 11.2716 19.5132 10.861 18.0347C10.4494 16.5582 9.64129 12.6835 8.69635 12.435C8.32974 12.374 7.29479 13.1962 7.29479 13.1962L6.5625 12.1875Z" fill="white"/>
</svg>
